<svg xmlns="http://www.w3.org/2000/svg" xmlns:xlink="http://www.w3.org/1999/xlink" viewBox="0 0 901.17 789.98">
    <defs>
        <linearGradient id="a" x1="-940.78" y1="1429.9" x2="-939.72" y2="1430.08" gradientTransform="matrix(253, 0, 0, -181, 238610, 259492)" gradientUnits="userSpaceOnUse">
            <stop offset="0" stop-color="#e9fbff"/>
            <stop offset="1" stop-color="#ffdcb0"/>
        </linearGradient>
        <linearGradient id="b" x1="-941.14" y1="1424.95" x2="-940.48" y2="1425.28" gradientTransform="matrix(253, 0, 0, -253, 238171, 360985)" gradientUnits="userSpaceOnUse">
            <stop offset="0" stop-color="#e9fbff"/>
            <stop offset="1" stop-color="#cef4ff"/>
        </linearGradient>
        <linearGradient id="c" x1="-960.6" y1="1443.91" x2="-960.1" y2="1444.24" gradientTransform="matrix(102, 0, 0, -102, 98741, 147663)" gradientUnits="userSpaceOnUse">
            <stop offset="0" stop-color="#e9fbff"/>
            <stop offset="1" stop-color="#c7fadf"/>
        </linearGradient>
        <linearGradient id="d" x1="-968.99" y1="1451.44" x2="-967.39" y2="1451.22" gradientTransform="matrix(84, 0, 0, -84, 81805.75, 121963)" gradientUnits="userSpaceOnUse">
            <stop offset="0" stop-color="#fafeff"/>
            <stop offset="1" stop-color="#bef6d9"/>
        </linearGradient>
        <linearGradient id="e" x1="-1009.52" y1="1490.2" x2="-1007.93" y2="1489.99" gradientTransform="matrix(42, 0, 0, -42, 43061.75, 62646)" gradientUnits="userSpaceOnUse">
            <stop offset="0" stop-color="#fafeff"/>
            <stop offset="1" stop-color="#a8d3fe"/>
        </linearGradient>
        <linearGradient id="f" x1="-934.26" y1="1422.8" x2="-934.26" y2="1421.46" gradientTransform="matrix(459.01, 0, 0, -320.58, 429243.57, 456571.61)" gradientUnits="userSpaceOnUse">
            <stop offset="0" stop-color="#91d9fb"/>
            <stop offset="1" stop-color="#e0ebff"/>
        </linearGradient>
        <mask id="g" x="72.98" y="312.92" width="576.24" height="402.47" maskUnits="userSpaceOnUse">
            <g transform="translate(-49.25 -159)">
                <path d="M142.32,471.92H678.39A20.08,20.08,0,0,1,698.48,492V854.3a20.09,20.09,0,0,1-20.09,20.09H142.32a20.09,20.09,0,0,1-20.08-20.09V492A20.08,20.08,0,0,1,142.32,471.92Z" style="fill:#fff"/>
            </g>
        </mask>
        <linearGradient id="h" x1="-1065.27" y1="1533.49" x2="-1064.05" y2="1532.76" gradientTransform="matrix(25.6, 0, 0, -25.6, 27786.95, 39716)" gradientUnits="userSpaceOnUse">
            <stop offset="0" stop-color="#fff" stop-opacity="0.35"/>
            <stop offset="1" stop-color="#fff" stop-opacity="0.19"/>
        </linearGradient>
        <mask id="i" x="72.98" y="312.92" width="629.21" height="402.47" maskUnits="userSpaceOnUse">
            <g transform="translate(-49.25 -159)">
                <path d="M142.32,471.92H678.39A20.08,20.08,0,0,1,698.48,492V854.3a20.09,20.09,0,0,1-20.09,20.09H142.32a20.09,20.09,0,0,1-20.08-20.09V492A20.08,20.08,0,0,1,142.32,471.92Z" style="fill:#fff"/>
            </g>
        </mask>
        <linearGradient id="j" x1="-955.88" y1="1438.16" x2="-954.66" y2="1437.43" gradientTransform="matrix(123.6, 0, 0, -123.6, 118699.81, 178233.8)" xlink:href="#h"/>
        <linearGradient id="m" x1="-946.96" y1="1444.28" x2="-946.96" y2="1445.64" gradientTransform="matrix(172.8, 0, 0, -95.2, 164185.19, 138133.6)" gradientUnits="userSpaceOnUse">
            <stop offset="0" stop-color="#ffaf5f"/>
            <stop offset="1" stop-color="#ffc967"/>
        </linearGradient>
        <mask id="n" x="125.71" y="339.28" width="225.5" height="263.09" maskUnits="userSpaceOnUse">
            <g transform="translate(-49.25 -159)">
                <path d="M187.18,498.28H388.26a12.22,12.22,0,0,1,12.21,12.22V749.16a12.21,12.21,0,0,1-12.21,12.21H187.18A12.21,12.21,0,0,1,175,749.16V510.5A12.21,12.21,0,0,1,187.18,498.28Z" style="fill:#fff"/>
            </g>
        </mask>
        <mask id="o" x="138.87" y="352.44" width="201.45" height="110.69" maskUnits="userSpaceOnUse">
            <g transform="translate(-49.25 -159)">
                <path d="M195.43,511.44H382.26a7.3,7.3,0,0,1,7.31,7.3v96.08a7.3,7.3,0,0,1-7.31,7.3H195.43a7.3,7.3,0,0,1-7.31-7.3V518.74A7.3,7.3,0,0,1,195.43,511.44Z" style="fill:#fff"/>
            </g>
        </mask>
        <mask id="p" x="132.85" y="352.44" width="207.46" height="187.36" maskUnits="userSpaceOnUse">
            <g transform="translate(-49.25 -159)">
                <path d="M195.43,511.44H382.26a7.3,7.3,0,0,1,7.31,7.3v96.08a7.3,7.3,0,0,1-7.31,7.3H195.43a7.3,7.3,0,0,1-7.31-7.3V518.74A7.3,7.3,0,0,1,195.43,511.44Z" style="fill:#fff"/>
            </g>
        </mask>
        <linearGradient id="q" x1="-964.54" y1="1445.45" x2="-965.83" y2="1446.67" gradientTransform="matrix(93.41, 0, 0, -92.21, 90330.16, 133806.14)" gradientUnits="userSpaceOnUse">
            <stop offset="0" stop-color="#0f9091"/>
            <stop offset="1" stop-color="#91f688"/>
        </linearGradient>
        <mask id="r" x="138.87" y="352.44" width="228.51" height="185.85" maskUnits="userSpaceOnUse">
            <g transform="translate(-49.25 -159)">
                <path d="M195.43,511.44H382.26a7.3,7.3,0,0,1,7.31,7.3v96.08a7.3,7.3,0,0,1-7.31,7.3H195.43a7.3,7.3,0,0,1-7.31-7.3V518.74A7.3,7.3,0,0,1,195.43,511.44Z" style="fill:#fff"/>
            </g>
        </mask>
        <linearGradient id="s" x1="-959.87" y1="1441.52" x2="-958.36" y2="1440.3" gradientTransform="matrix(110.17, 0, 0, -108.97, 105948, 157477.2)" gradientUnits="userSpaceOnUse">
            <stop offset="0" stop-color="#2fbdbe"/>
            <stop offset="1" stop-color="#88f6d7"/>
        </linearGradient>
        <linearGradient id="u" x1="-971.83" y1="2097.53" x2="-971.83" y2="2096.19" gradientTransform="matrix(79.33, 0, 0, -4.49, 77353.41, 10094.74)" gradientUnits="userSpaceOnUse">
            <stop offset="0" stop-color="#71ffb0"/>
            <stop offset="1" stop-color="#91f688"/>
        </linearGradient>
        <linearGradient id="w" x1="-999.37" y1="2096.76" x2="-999.37" y2="2095.42" gradientTransform="matrix(49.4, 0, 0, -4.49, 49601.26, 10108.21)" xlink:href="#u"/>
        <linearGradient id="y" x1="-1729.91" y1="2097.53" x2="-1729.91" y2="2096.19" gradientTransform="matrix(4.49, 0, 0, -4.49, 7914.79, 9935.73)" xlink:href="#u"/>
        <linearGradient id="aa" x1="-955.4" y1="2095.91" x2="-955.4" y2="2094.57" gradientTransform="matrix(124.24, 0, 0, -4.49, 118981.64, 10123.18)" xlink:href="#u"/>
        <linearGradient id="ac" x1="-999.37" y1="2095.14" x2="-999.37" y2="2093.8" gradientTransform="matrix(49.4, 0, 0, -4.49, 49601.26, 10136.65)" xlink:href="#u"/>
        <linearGradient id="ae" x1="-1729.91" y1="2095.91" x2="-1729.91" y2="2094.57" gradientTransform="matrix(4.49, 0, 0, -4.49, 7914.79, 9964.17)" xlink:href="#u"/>
        <linearGradient id="ag" x1="-977.53" y1="1486.45" x2="-977.53" y2="1484.91" gradientTransform="matrix(69.97, 0, 0, -41.92, 68772.55, 63011.5)" gradientUnits="userSpaceOnUse">
            <stop offset="0" stop-color="#9ff6ec"/>
            <stop offset="1" stop-color="#7d9dff"/>
        </linearGradient>
        <linearGradient id="ah" x1="-976.47" y1="1486.44" x2="-976.47" y2="1484.9" gradientTransform="matrix(69.97, 0, 0, -41.92, 69062.55, 63012.5)" xlink:href="#ag"/>
        <linearGradient id="ai" x1="-978.69" y1="1467.03" x2="-977.18" y2="1466.15" gradientTransform="matrix(68, 0, 0, -57, 67284, 84247)" xlink:href="#s"/>
        <linearGradient id="aj" x1="-1186.56" y1="1459.29" x2="-1186.5" y2="1457.79" gradientTransform="matrix(15.19, 8.37, 10.55, -19.14, 3528.01, 38616.24)" gradientUnits="userSpaceOnUse">
            <stop offset="0" stop-color="#fdc6c6"/>
            <stop offset="1" stop-color="#fab2b2"/>
        </linearGradient>
        <linearGradient id="ak" x1="-1005.31" y1="1457.82" x2="-1005.31" y2="1459.29" gradientTransform="matrix(43.91, 0, 0, -65.83, 45060.84, 96775.91)" gradientUnits="userSpaceOnUse">
            <stop offset="0" stop-color="#c99efe"/>
            <stop offset="1" stop-color="#5925c9"/>
        </linearGradient>
        <linearGradient id="al" x1="-1126.39" y1="1537.13" x2="-1126.34" y2="1535.63" gradientTransform="matrix(17.37, 0, 0, -24.47, 20430.5, 38504.6)" xlink:href="#aj"/>
        <linearGradient id="am" x1="-886.36" y1="1442.31" x2="-885.91" y2="1443.46" gradientTransform="translate(-75070.4 145158.3) rotate(180) scale(85.71 100.01)" gradientUnits="userSpaceOnUse">
            <stop offset="0" stop-color="#22315b"/>
            <stop offset="1" stop-color="#222735"/>
        </linearGradient>
        <linearGradient id="an" x1="-1121.04" y1="1547.79" x2="-1120.98" y2="1546.29" gradientTransform="matrix(17.94, 0, 0, -22.53, 20889.27, 35763.18)" xlink:href="#aj"/>
        <linearGradient id="ao" x1="-894.42" y1="1442.43" x2="-893.9" y2="1443.85" gradientTransform="translate(-96034.89 146737.49) rotate(180) scale(108.31 101.13)" gradientUnits="userSpaceOnUse">
            <stop offset="0" stop-color="#2e4175"/>
            <stop offset="1" stop-color="#222735"/>
        </linearGradient>
        <linearGradient id="ap" x1="-987.83" y1="1444.03" x2="-987.97" y2="1445.68" gradientTransform="matrix(56.44, 0, 0, -93.67, 56641.95, 136105.22)" xlink:href="#ak"/>
        <linearGradient id="aq" x1="-1082.63" y1="1536.43" x2="-1082.56" y2="1534.93" gradientTransform="matrix(22.36, 0, 0, -24.94, 24980.9, 39006.14)" xlink:href="#aj"/>
        <linearGradient id="ar" x1="-972.48" y1="1464.3" x2="-972.7" y2="1465.29" gradientTransform="matrix(75.32, 0, 0, -58.27, 74089.02, 86087.44)" xlink:href="#ak"/>
        <linearGradient id="as" x1="-1037.71" y1="1499.28" x2="-1037.64" y2="1497.78" gradientTransform="matrix(31.21, 0, 0, -35.85, 33263.28, 54376.49)" xlink:href="#aj"/>
        <linearGradient id="at" x1="-1084.02" y1="1519.84" x2="-1083.96" y2="1518.34" gradientTransform="matrix(22.52, 0, 0, -28.46, 24908.93, 44130.17)" xlink:href="#aj"/>
        <linearGradient id="au" x1="-888.78" y1="1441.69" x2="-888.78" y2="1442.78" gradientTransform="translate(-83091.51 147019.61) rotate(180) scale(94.04 101.33)" gradientUnits="userSpaceOnUse">
            <stop offset="0" stop-color="#4f2f6c"/>
            <stop offset="1" stop-color="#342041"/>
        </linearGradient>
        <linearGradient id="av" x1="-1080.48" y1="1529" x2="-1080.4" y2="1527.5" gradientTransform="matrix(23.16, 0, 0, -26.2, 25430.34, 40943.64)" xlink:href="#aj"/>
        <linearGradient id="aw" x1="-895.97" y1="1441.89" x2="-896.43" y2="1443.02" gradientTransform="translate(-105386 146191.87) rotate(180) scale(118.09 100.75)" gradientUnits="userSpaceOnUse">
            <stop offset="0" stop-color="#7d42aa"/>
            <stop offset="1" stop-color="#3b2750"/>
        </linearGradient>
        <linearGradient id="ax" x1="-1153.49" y1="1451.47" x2="-1153.42" y2="1449.97" gradientTransform="matrix(17.66, 9.74, 12.27, -22.25, 3095.5, 44275.68)" xlink:href="#aj"/>
        <linearGradient id="ay" x1="-1024.24" y1="1487.37" x2="-1024.16" y2="1485.87" gradientTransform="matrix(36.29, 0, 0, -41.68, 37674.72, 62602.83)" xlink:href="#aj"/>
        <linearGradient id="az" x1="-978.95" y1="1442.25" x2="-978.78" y2="1440.91" gradientTransform="matrix(67.71, 0, 0, -105.38, 66790.81, 152636.39)" gradientUnits="userSpaceOnUse">
            <stop offset="0" stop-color="#f16b79"/>
            <stop offset="1" stop-color="#f69d88"/>
        </linearGradient>
        <linearGradient id="ba" x1="-1063.84" y1="1519.29" x2="-1063.76" y2="1517.79" gradientTransform="matrix(26, 0, 0, -29, 28042.21, 44732.21)" xlink:href="#aj"/>
        <linearGradient id="bb" x1="-1075.96" y1="1449.19" x2="-1075.96" y2="1447.85" gradientTransform="matrix(23.94, 0, 0, -85.05, 26100.08, 124030.9)" gradientUnits="userSpaceOnUse">
            <stop offset="0" stop-color="#ffc959"/>
            <stop offset="1" stop-color="#eb8425"/>
        </linearGradient>
        <linearGradient id="bc" x1="-1332.06" y1="1460.57" x2="-1332.06" y2="1459.63" gradientTransform="matrix(8.82, 0, 0, -64.89, 12095.81, 95550.5)" xlink:href="#bb"/>
        <linearGradient id="bd" x1="-1076.31" y1="1449.19" x2="-1076.31" y2="1447.85" gradientTransform="matrix(23.94, 0, 0, -85.05, 26067.32, 124029.65)" xlink:href="#bb"/>
        <linearGradient id="be" x1="-1333.01" y1="1460.57" x2="-1333.01" y2="1459.63" gradientTransform="matrix(8.82, 0, 0, -64.89, 12063.05, 95549.24)" xlink:href="#bb"/>
        <linearGradient id="bf" x1="-977.79" y1="1446.35" x2="-977.75" y2="1445.05" gradientTransform="matrix(69.93, 0, 0, -91.35, 68683.04, 132944.15)" gradientUnits="userSpaceOnUse">
            <stop offset="0" stop-color="#ffc959"/>
            <stop offset="1" stop-color="#fb902d"/>
        </linearGradient>
        <linearGradient id="bg" x1="-1003.44" y1="1504.16" x2="-1003.44" y2="1502.49" gradientTransform="matrix(46.62, 0, 0, -33.39, 47078.45, 51100.22)" xlink:href="#bf"/>
        <linearGradient id="bh" x1="-977.23" y1="1457.94" x2="-978.41" y2="1457.94" gradientTransform="matrix(70.4, 0, 0, -66.64, 68971.8, 98056.32)" xlink:href="#az"/>
        <mask id="bi" x="25.28" y="688.29" width="93.4" height="101.69" maskUnits="userSpaceOnUse">
            <g transform="translate(-49.25 -159)">
                <path d="M100.44,857.33h46.61a3.22,3.22,0,0,1,3.21,3.22v8.83h0c0,19.79,17.68,38.46,17.68,53.38q0,14.78-15.73,18.16a3.08,3.08,0,0,1-.68.07H96.21a3.21,3.21,0,0,1-1.15-.21q-15.51-5.92-15.51-18c0-12.3,17.68-34.69,17.68-53.38v-8.83h0A3.22,3.22,0,0,1,100.44,857.33Z" style="fill:#fff"/>
            </g>
        </mask>
    </defs>
    <path d="M910.47,546.92a7.54,7.54,0,0,1,7.53,7.54V766.62a7.53,7.53,0,0,1-7.53,7.53H607.91a7.53,7.53,0,0,1-7.53-7.53V554.46a7.54,7.54,0,0,1,7.53-7.54Zm-54,61.52H661.9v104.2H856.48Z" transform="translate(-49.25 -159)" style="fill:url(#a)"/>
    <path d="M359.34,241.86a7.53,7.53,0,0,1,7.53,7.53V551.94a7.54,7.54,0,0,1-7.53,7.54H56.79a7.55,7.55,0,0,1-7.54-7.54V249.39a7.54,7.54,0,0,1,7.54-7.53Zm-67.79,75.32h-167v167h167Z" transform="translate(-49.25 -159)" style="fill:url(#b)"/>
    <path d="M856.48,293.33a7.54,7.54,0,0,1,7.54,7.53v113a7.54,7.54,0,0,1-7.54,7.53h-113a7.54,7.54,0,0,1-7.54-7.53v-113a7.54,7.54,0,0,1,7.54-7.53ZM826.35,331H773.63v52.73h52.72Z" transform="translate(-49.25 -159)" style="fill:url(#c)"/>
    <rect x="435.63" width="105.45" height="105.45" style="fill:url(#d)"/>
    <rect x="674.16" y="36.41" width="52.73" height="52.73" style="fill:url(#e)"/>
    <path d="M122.38,461.88h594a25.25,25.25,0,0,1,25.25,25.24V859.18a25.25,25.25,0,0,1-25.25,25.25h-594a25.24,25.24,0,0,1-25.25-25.25V487.12A25.24,25.24,0,0,1,122.38,461.88Z" transform="translate(-49.25 -159)" style="fill:#293f75"/>
    <circle cx="671.57" cy="514.79" r="14.06" style="fill:#6077af"/>
    <path d="M142.32,471.92H678.39A20.08,20.08,0,0,1,698.48,492V854.3a20.09,20.09,0,0,1-20.09,20.09H142.32a20.09,20.09,0,0,1-20.08-20.09V492A20.08,20.08,0,0,1,142.32,471.92Z" transform="translate(-49.25 -159)" style="fill:url(#f)"/>
    <g style="mask:url(#g)">
        <circle cx="541" cy="473.61" r="16.07" style="fill:url(#h)"/>
    </g>
    <g style="mask:url(#i)">
        <path d="M673.87,471.92a77.59,77.59,0,1,1-77.59,77.59A77.58,77.58,0,0,1,673.87,471.92Zm0,33.9a43.69,43.69,0,1,0,43.69,43.69A43.69,43.69,0,0,0,673.87,505.82Z" transform="translate(-49.25 -159)" style="fill:url(#j)"/>
    </g>
    <g style="mask:url(#g)">
        <path d="M158.9,633.62H295.49a5,5,0,0,1,5,5V835.49a5,5,0,0,1-5,5H158.9a5,5,0,0,1-5-5V638.64A5,5,0,0,1,158.9,633.62Z" transform="translate(-49.25 -159)" style="fill:#fff;fill-opacity:0.345907986164093"/>
    </g>
    <g style="mask:url(#g)">
        <path d="M158.9,513.1H295.49a5,5,0,0,1,5,5V606.5a5,5,0,0,1-5,5H158.9a5,5,0,0,1-5-5V518.12A5,5,0,0,1,158.9,513.1Z" transform="translate(-49.25 -159)" style="fill:#fff;fill-opacity:0.345907986164093"/>
    </g>
    <path d="M439.86,498.28H660.21a10,10,0,0,1,10,10.05V646.42a10,10,0,0,1-10,10.05H439.86a10.05,10.05,0,0,1-10.05-10.05V508.33A10.05,10.05,0,0,1,439.86,498.28Z" transform="translate(-49.25 -159)"/>
    <path d="M439.86,498.28H660.21a10,10,0,0,1,10,10.05V646.42a10,10,0,0,1-10,10.05H439.86a10.05,10.05,0,0,1-10.05-10.05V508.33A10.05,10.05,0,0,1,439.86,498.28Z" transform="translate(-49.25 -159)" style="fill:#fff"/>
    <path d="M446.75,508.33H653.92a4.87,4.87,0,0,1,4.88,4.88V623a4.87,4.87,0,0,1-4.88,4.88H446.75a4.87,4.87,0,0,1-4.88-4.88V513.21A4.87,4.87,0,0,1,446.75,508.33Z" transform="translate(-49.25 -159)" style="fill:url(#m)"/>
    <circle cx="398.89" cy="481.15" r="4.97" style="fill:#ffbf29"/>
    <path d="M656.29,639.14a1.81,1.81,0,0,1,.15,3.61H463.19a1.81,1.81,0,0,1-.15-3.61H656.29Z" transform="translate(-49.25 -159)" style="fill:#ffbf29"/>
    <circle cx="500.3" cy="409.18" r="30.18" style="fill:#fff"/>
    <path d="M541.85,560.32v16.81a1.14,1.14,0,0,0,1.14,1.14,1.06,1.06,0,0,0,.52-.13l16.82-8.68a1.15,1.15,0,0,0,.49-1.54,1.2,1.2,0,0,0-.52-.5l-16.81-8.13a1.16,1.16,0,0,0-1.53.53A1.25,1.25,0,0,0,541.85,560.32Z" transform="translate(-49.25 -159)" style="fill:#ffbf29"/>
    <path d="M187.18,498.28H388.26a12.22,12.22,0,0,1,12.21,12.22V749.16a12.21,12.21,0,0,1-12.21,12.21H187.18A12.21,12.21,0,0,1,175,749.16V510.5A12.21,12.21,0,0,1,187.18,498.28Z" transform="translate(-49.25 -159)"/>
    <path d="M187.18,498.28H388.26a12.22,12.22,0,0,1,12.21,12.22V749.16a12.21,12.21,0,0,1-12.21,12.21H187.18A12.21,12.21,0,0,1,175,749.16V510.5A12.21,12.21,0,0,1,187.18,498.28Z" transform="translate(-49.25 -159)" style="fill:#fff"/>
    <g style="mask:url(#n)">
        <path d="M195.43,511.44H382.26a7.3,7.3,0,0,1,7.31,7.3v96.08a7.3,7.3,0,0,1-7.31,7.3H195.43a7.3,7.3,0,0,1-7.31-7.3V518.74A7.3,7.3,0,0,1,195.43,511.44Z" transform="translate(-49.25 -159)" style="fill:#baf3c4"/>
        <g style="mask:url(#o)">
            <circle cx="226.81" cy="403.74" r="15.79" style="fill:#fff"/>
        </g>
        <g style="mask:url(#p)">
            <ellipse cx="191.48" cy="481.92" rx="58.63" ry="57.88" style="fill:url(#q)"/>
        </g>
        <g style="mask:url(#r)">
            <ellipse cx="298.22" cy="469.89" rx="69.15" ry="68.4" style="fill:url(#s)"/>
        </g>
    </g>
    <g style="mask:url(#n)">
        <path d="M206.91,675.87h94a2.82,2.82,0,0,1,0,5.64h-94a2.82,2.82,0,0,1,0-5.64Z" transform="translate(-49.25 -159)" style="isolation:isolate;opacity:0.454078316688538;fill:url(#u)"/>
    </g>
    <g style="mask:url(#n)">
        <path d="M206.91,692.78h56.38a2.82,2.82,0,1,1,0,5.64H206.91a2.82,2.82,0,1,1,0-5.64Z" transform="translate(-49.25 -159)" style="isolation:isolate;opacity:0.454078316688538;fill:url(#w)"/>
    </g>
    <g style="mask:url(#n)">
        <circle cx="146.38" cy="519.69" r="2.82" style="isolation:isolate;opacity:0.454078316688538;fill:url(#y)"/>
    </g>
    <g style="mask:url(#n)">
        <path d="M206.91,711.57H357.25a2.82,2.82,0,0,1,0,5.64H206.91a2.82,2.82,0,0,1,0-5.64Z" transform="translate(-49.25 -159)" style="isolation:isolate;opacity:0.454078316688538;fill:url(#aa)"/>
    </g>
    <g style="mask:url(#n)">
        <path d="M206.91,728.49h56.38a2.82,2.82,0,1,1,0,5.63H206.91a2.82,2.82,0,1,1,0-5.63Z" transform="translate(-49.25 -159)" style="isolation:isolate;opacity:0.454078316688538;fill:url(#ac)"/>
    </g>
    <g style="mask:url(#n)">
        <circle cx="146.38" cy="555.39" r="2.82" style="isolation:isolate;opacity:0.454078316688538;fill:url(#ae)"/>
    </g>
    <g style="mask:url(#n)">
        <rect x="143.56" y="477.41" width="52.62" height="5.64" style="fill:#23a190"/>
    </g>
    <polygon points="604.23 609.45 587.75 609.45 587.75 779.23 604.23 779.23 604.23 609.45" style="fill:#e3f4ff"/>
    <polygon points="606.13 609.45 597.25 609.45 597.25 779.23 606.13 779.23 606.13 609.45" style="fill:#91d6ff"/>
    <polygon points="688.59 609.45 672.12 609.45 672.12 779.23 688.59 779.23 688.59 609.45" style="fill:#e3f4ff"/>
    <polygon points="690.5 609.45 681.61 609.45 681.61 779.23 690.5 779.23 690.5 609.45" style="fill:#91d6ff"/>
    <polygon points="782.75 609.45 766.27 609.45 766.27 779.23 782.75 779.23 782.75 609.45" style="fill:#e3f4ff"/>
    <polygon points="784.6 609.45 775.72 609.45 775.72 779.23 784.6 779.23 784.6 609.45" style="fill:#91d6ff"/>
    <path d="M838.7,763.18H731.39a7.91,7.91,0,1,0,0,15.81H838.7a7.91,7.91,0,1,0,0-15.81Z" transform="translate(-49.25 -159)" style="fill:#91d6ff"/>
    <path d="M734.5,763.18H625.94a7.91,7.91,0,1,0,0,15.81H734.5a7.91,7.91,0,1,0,0-15.81Z" transform="translate(-49.25 -159)" style="fill:#e3f4ff"/>
    <polygon points="252.71 609.45 236.24 609.45 236.24 779.23 252.71 779.23 252.71 609.45" style="fill:#e3f4ff"/>
    <polygon points="254.62 609.45 245.73 609.45 245.73 779.23 254.62 779.23 254.62 609.45" style="fill:#91d6ff"/>
    <polygon points="337.07 609.45 320.6 609.45 320.6 779.23 337.07 779.23 337.07 609.45" style="fill:#e3f4ff"/>
    <polygon points="338.98 609.45 330.09 609.45 330.09 779.23 338.98 779.23 338.98 609.45" style="fill:#91d6ff"/>
    <polygon points="431.23 609.45 414.76 609.45 414.76 779.23 431.23 779.23 431.23 609.45" style="fill:#e3f4ff"/>
    <polygon points="433.09 609.45 424.2 609.45 424.2 779.23 433.09 779.23 433.09 609.45" style="fill:#91d6ff"/>
    <path d="M487.19,763.18H379.87a7.91,7.91,0,0,0,0,15.81H487.19a7.91,7.91,0,1,0,0-15.81Z" transform="translate(-49.25 -159)" style="fill:#91d6ff"/>
    <path d="M389.26,763.18H276.93a7.91,7.91,0,1,0,0,15.81H389.26a7.91,7.91,0,1,0,0-15.81Z" transform="translate(-49.25 -159)" style="fill:#e3f4ff"/>
    <path d="M341.65,759.16h112a.94.94,0,0,1,.94.94v1.57a.93.93,0,0,1-.94.93h-112a.93.93,0,0,1-.94-.93V760.1A.94.94,0,0,1,341.65,759.16Z" transform="translate(-49.25 -159)" style="fill:#8dc6f6"/>
    <path d="M341.64,759.16h43.11a.94.94,0,0,1,.94.94v1.57a.93.93,0,0,1-.94.93H341.64a.93.93,0,0,1-.94-.93V760.1A.94.94,0,0,1,341.64,759.16Z" transform="translate(-49.25 -159)" style="fill:#518df8"/>
    <path d="M337,706.68H411.8a4.52,4.52,0,0,1,4.49,4l5.59,43.59a4.53,4.53,0,0,1-3.91,5.06,5.49,5.49,0,0,1-.58,0H342.62a4.52,4.52,0,0,1-4.49-3.94l-5.58-43.59a4.52,4.52,0,0,1,3.9-5.06A5.65,5.65,0,0,1,337,706.68Z" transform="translate(-49.25 -159)" style="fill:#518df8"/>
    <path d="M339.29,706.68H412.5a4.52,4.52,0,0,1,4.48,4l5.59,43.59a4.53,4.53,0,0,1-3.91,5.06,5.49,5.49,0,0,1-.58,0h-73.2a4.52,4.52,0,0,1-4.49-3.94l-5.58-43.59a4.52,4.52,0,0,1,3.9-5.06A5.65,5.65,0,0,1,339.29,706.68Z" transform="translate(-49.25 -159)" style="fill:url(#ag)"/>
    <path d="M341.44,709.17h69.33a4.07,4.07,0,0,1,4,3.55l5,39.32a4.07,4.07,0,0,1-3.52,4.55,3,3,0,0,1-.52,0H346.47a4.06,4.06,0,0,1-4-3.55l-5-39.32a4.07,4.07,0,0,1,3.52-4.55A3,3,0,0,1,341.44,709.17Z" transform="translate(-49.25 -159)" style="fill:#fcfdff"/>
    <path d="M705.72,760.42h112a.94.94,0,0,1,.94.94v1.56a.94.94,0,0,1-.94.94h-112a.94.94,0,0,1-.94-.94v-1.56A.94.94,0,0,1,705.72,760.42Z" transform="translate(-49.25 -159)" style="fill:#8dc6f6"/>
    <path d="M705.71,760.42h43.11a.94.94,0,0,1,.94.94v1.56a.94.94,0,0,1-.94.94H705.71a.94.94,0,0,1-.94-.94v-1.56A.94.94,0,0,1,705.71,760.42Z" transform="translate(-49.25 -159)" style="fill:#518df8"/>
    <path d="M701.1,707.94h74.77a4.52,4.52,0,0,1,4.49,3.94l5.59,43.6a4.52,4.52,0,0,1-3.91,5,3.69,3.69,0,0,1-.58,0H706.69a4.52,4.52,0,0,1-4.49-4L696.62,713a4.52,4.52,0,0,1,3.9-5.06A5.63,5.63,0,0,1,701.1,707.94Z" transform="translate(-49.25 -159)" style="fill:#518df8"/>
    <path d="M703.36,707.94h73.21a4.52,4.52,0,0,1,4.48,3.94l5.59,43.6a4.52,4.52,0,0,1-3.91,5,3.69,3.69,0,0,1-.58,0H709a4.52,4.52,0,0,1-4.49-4L698.88,713a4.52,4.52,0,0,1,3.9-5.06A5.63,5.63,0,0,1,703.36,707.94Z" transform="translate(-49.25 -159)" style="fill:url(#ah)"/>
    <path d="M705.51,710.43h69.33a4.07,4.07,0,0,1,4,3.55l5,39.32a4.07,4.07,0,0,1-3.52,4.55,4.41,4.41,0,0,1-.52,0H710.54a4.06,4.06,0,0,1-4-3.55l-5-39.32a4.07,4.07,0,0,1,3.52-4.55A4.41,4.41,0,0,1,705.51,710.43Z" transform="translate(-49.25 -159)" style="fill:#fcfdff"/>
    <path d="M761.24,621.31h70.31a7.54,7.54,0,0,1,7.53,7.54v56.49a7.53,7.53,0,0,1-7.53,7.53H761.24a7.53,7.53,0,0,1-7.53-7.53V628.85A7.54,7.54,0,0,1,761.24,621.31Z" transform="translate(-49.25 -159)" style="fill:url(#ai)"/>
    <path d="M786.35,646.81v20.53a1,1,0,0,0,1,1,1,1,0,0,0,.47-.12l20.53-10.53a1,1,0,0,0,0-1.84l-20.53-10a1,1,0,0,0-1.37.48A1,1,0,0,0,786.35,646.81Z" transform="translate(-49.25 -159)" style="fill:#fff"/>
    <rect x="713.25" y="468.59" width="7.53" height="7.53" style="fill:#fff"/>
    <rect x="728.31" y="468.59" width="7.53" height="7.53" style="fill:#fff"/>
    <rect x="743.38" y="468.59" width="7.53" height="7.53" style="fill:#fff"/>
    <rect x="758.44" y="468.59" width="7.53" height="7.53" style="fill:#fff"/>
    <rect x="773.51" y="468.59" width="7.53" height="7.53" style="fill:#fff"/>
    <rect x="713.25" y="518.81" width="7.53" height="7.53" style="fill:#fff"/>
    <rect x="728.31" y="518.81" width="7.53" height="7.53" style="fill:#fff"/>
    <rect x="743.38" y="518.81" width="7.53" height="7.53" style="fill:#fff"/>
    <rect x="758.44" y="518.81" width="7.53" height="7.53" style="fill:#fff"/>
    <rect x="773.51" y="518.81" width="7.53" height="7.53" style="fill:#fff"/>
    <path d="M896.77,760s-17.6,4.07-17.42,5.67,7.92,1.86,7.92,1.86-14.32,9.24-13.18,11,10.48,3.84,14.36,2.38,13.93-12,13.93-12Z" transform="translate(-49.25 -159)" style="fill:url(#aj)"/>
    <path d="M896.62,707.89c5.89,7.27,26,29.48,26,29.48s-20.11,14.3-25.17,17.33c-8.3,5,.14,18.12,6.23,16.65,8.25-2,29.08-16.33,38.86-22.14s6.05-15.19-1.19-23.75c-5.57-6.57-17.66-20-26.17-31.86S885.17,693.78,896.62,707.89Z" transform="translate(-49.25 -159)" style="fill:url(#ak)"/>
    <path d="M922.62,737.37q5.65,5.45,5.07,5.87t-7.41-4.2Z" transform="translate(-49.25 -159)" style="fill-opacity:0.159855768084526"/>
    <path d="M868.35,894.48l9,29.3-16.44.68s2.14-10-.92-19.41a77.49,77.49,0,0,0-4.45-11.31Z" transform="translate(-49.25 -159)" style="fill:url(#al)"/>
    <path d="M861.55,916.5S838.14,928,836.9,930.33c-1.55,2.92.45,5.83,12.31,6,10.42.2,12-2.18,15.68-.41s13.24-.12,14.73-2.81-1-15.94-2.8-16.19-2.1,5.14-6.82,5.26S861.55,916.5,861.55,916.5Z" transform="translate(-49.25 -159)" style="fill:#222d4e"/>
    <path d="M859.12,917.59l.87,1.33a1.26,1.26,0,0,1-.36,1.74l0,0-13.17,6.13a1.28,1.28,0,0,1-1.2,0l-1.69-.94C848.62,922.75,853.84,920.6,859.12,917.59Z" transform="translate(-49.25 -159)" style="fill:#fff;fill-opacity:0.540974676609039"/>
    <path d="M908.77,788.32c-11.42,1.13-67.68,14.62-79.26,17S808.13,820.69,817,835.7c9.92,16.85,35.52,64.71,41.74,75.5,3.07,5.34,18.59,2.34,14.95-6.62-6.8-16.7-10-58.67-27.28-74,0,0,44.74,16.2,67.11-1.47C926.68,818.7,921.36,787.09,908.77,788.32Z" transform="translate(-49.25 -159)" style="fill:url(#am)"/>
    <path d="M817,835.7c1.8,3,4.1,7.11,6.71,11.78l-3-37.92C813.93,815.05,810.57,824.84,817,835.7Z" transform="translate(-49.25 -159)" style="fill:#fff;fill-opacity:0.192498907446861"/>
    <path d="M779.56,893.56s-5,22.35-11.58,24.74c-2.52.92,16.81,3.55,16.81,3.55l5.48-21.44Z" transform="translate(-49.25 -159)" style="fill:url(#an)"/>
    <path d="M786.63,917.74c1.5.62-2,15.82-3.72,16.88s-16.63,2.08-26.3.86-18.29-3.44-19.11-6.12,1.45-5.24,7.38-6.2l.4-.07c7.5-1.09,15.27-5.4,19.05-7.63l1.64-1c1.4-.83,5.44-2.61,6.65-.09s1.2,5.83,4.66,6S785.12,917.11,786.63,917.74Z" transform="translate(-49.25 -159)" style="fill:#222d4e"/>
    <path d="M768.31,916.34c.43,0,.85.34,1.25,1a1.26,1.26,0,0,1-.45,1.72l-.15.08-13.52,5.56a1,1,0,0,1-1.31-.54,1,1,0,0,1,0-.69l0-.13C754.4,922.84,767.35,916.34,768.31,916.34Z" transform="translate(-49.25 -159)" style="fill:#fff;fill-opacity:0.540974676609039"/>
    <path d="M900.72,784.74Q917.39,819.92,894,832c-22.63,11.68-82.86-3.39-82.86-3.39a81.59,81.59,0,0,1,0,18.44c-3.16,22.71-18.2,56.77-21.38,61.53-4.4,6.57-17.8,1.61-18.06-3.86s10.11-71.62,11.68-85,6.52-15.26,21-18.91c3.32-.84,46.33-10.59,49.93-10.31Q885.15,793,900.72,784.74Z" transform="translate(-49.25 -159)" style="fill:url(#ao)"/>
    <path d="M854.25,790.54c-3.6-.28-46.61,9.47-49.93,10.31l-2.38.61c-12.32,3.21-16.89,5.61-18.47,17.41l-.43,3.39c-1.3,9.89-4.82,33.13-7.6,52.49a136.43,136.43,0,0,0,7.79-23.68c4.79-20.21,3.77-36.81,5.06-39.72s64.21-12.18,75-14.1q7-1.25,8-6.2A157.83,157.83,0,0,1,854.25,790.54Z" transform="translate(-49.25 -159)" style="fill:#fff;fill-opacity:0.192498907446861"/>
    <path d="M914.85,693.25c9.81,13-5.31,60.57-5.69,68.71s10.5,22,8.65,28.07c-4.27,14-58.82,16.22-64.67-.07-2.79-7.76,2.31-27.93,0-38.26s-9.15-18.15-3.86-32.58,4.21-26.85,7.67-30.3C863.23,682.53,905,680.23,914.85,693.25Z" transform="translate(-49.25 -159)" style="fill:url(#ap)"/>
    <path d="M868.79,702Q876,720,852.9,772.47l.39-4.53c.49-6.05.79-12-.17-16.24-2.29-10.18-9-17.92-4.08-32l.22-.63c3.62-9.86,4.26-18.78,5.4-24.55Q865.71,694.42,868.79,702Z" transform="translate(-49.25 -159)" style="fill-opacity:0.159855768084526"/>
    <path d="M781.85,727.85s-14.62-9.76-17.2-11.72-5.81-16.74-3.81-18.81c1-1,8.28,5.75,9.59,6.66s7.93,4.88,7.93,4.88-1.88-11.32-.26-12.23c1.2-.66,3.59,2.25,3.91,5.33s3.64,7.1,4.07,11.77c.19,2,2.21,5.94,2.21,5.94Z" transform="translate(-49.25 -159)" style="fill:url(#aq)"/>
    <path d="M869,709.14c-5.6,11.64-15.12,28.64-20.35,38.61-6.18,11.8-13.56,16.8-28.42,8-12.45-7.33-30.41-19.12-39.69-25.53-8.63-6,1.58-20.69,9.73-15.71,10.82,6.59,38.49,19.65,38.49,19.65s14.24-26,20.15-38.45C856.38,679.89,879.79,686.63,869,709.14Z" transform="translate(-49.25 -159)" style="fill:url(#ar)"/>
    <path d="M828.71,734.2q-2.61,9.15-3.22,8.8c-.41-.25-.26-3.62.43-10.11Z" transform="translate(-49.25 -159)" style="fill-opacity:0.159855768084526"/>
    <path d="M860.08,653.13c-4.94.54-4.59,9.24,1.43,9.69,1.23,8.38,5.61,12.37,11,12.83l-.29,12.68h23.66a37.09,37.09,0,0,1-6.33-21.22c.33-12.26-.22-23.77-.22-23.77l-30.65.55Z" transform="translate(-49.25 -159)" style="fill:url(#as)"/>
    <path d="M902,690.37c15.36-3.57,16.37-24.65,4.69-32,12-25.24-15.8-50.3-34.87-34.84-12.51-5.36-21.64,19.3-10,35.52-4.88,27.85,3.8,31.28,21.69,31.59Z" transform="translate(-49.25 -159)" style="fill:#422851"/>
    <polygon points="817.35 672.17 802.13 779.73 810.11 779.63 825.33 673.29 817.35 672.17" style="fill:#91d6ff"/>
    <polygon points="823.82 672.17 839.04 779.73 831.06 779.63 815.84 673.29 823.82 672.17" style="fill:#bfe7ff"/>
    <polygon points="773.06 672.17 757.84 779.73 765.82 779.63 781.04 673.29 773.06 672.17" style="fill:#91d6ff"/>
    <polygon points="870.22 672.17 885.44 779.73 877.46 779.63 862.24 673.29 870.22 672.17" style="fill:#bfe7ff"/>
    <path d="M803.93,830a12.55,12.55,0,0,1,12.55-12.55h51a13.92,13.92,0,0,0,13.85-12.57l8.1-83.09a13.91,13.91,0,0,1,13.85-12.57H936.5a13.92,13.92,0,0,1,13.92,13.92c0,.37,0,.74,0,1.1L942,829.7a13.91,13.91,0,0,1-13.87,12.82H816.48A12.55,12.55,0,0,1,803.93,830Z" transform="translate(-49.25 -159)" style="fill:#91d6ff"/>
    <path d="M896.37,710.94,888,817a13.91,13.91,0,0,1-13.87,12.82H803.93v-.24a12.52,12.52,0,0,1,12.51-12.52h50.89a13.92,13.92,0,0,0,13.86-12.56l8.09-82.78A13.91,13.91,0,0,1,896.37,710.94Z" transform="translate(-49.25 -159)" style="fill:#bfe7ff"/>
    <path d="M498.57,889.58l10.5,34.07-22,.79s2.48-11.65-1.07-22.57a90.56,90.56,0,0,0-5.17-13.15Z" transform="translate(-49.25 -159)" style="fill:url(#at)"/>
    <path d="M487.88,915.18s-27.22,13.38-28.66,16.09c-1.8,3.4.52,6.78,14.31,7,12.11.24,16.84-2.54,21.15-.48s15.4-.13,17.14-3.27-1.22-18.52-3.26-18.82-2.45,6-7.93,6.11S487.88,915.18,487.88,915.18Z" transform="translate(-49.25 -159)" style="fill:#482b61"/>
    <line x1="429.52" y1="761.1" x2="431.32" y2="764.77" style="fill:none;stroke:#fff;stroke-linecap:round"/>
    <line x1="425.76" y1="762.36" x2="427.55" y2="766.02" style="fill:none;stroke:#fff;stroke-linecap:round"/>
    <path d="M548.79,782.93q-87.51,7-99.57,7.36c-12.06.38-21.27,17.57-11.93,33.43,10.48,17.82,39,69.1,44.55,81,4.71,10,26.12,5.91,22.27-9.4-4.6-18.33-13.18-59.44-31.49-75.62,0,0,44.54,16.13,69.63.49Q556.56,811.23,548.79,782.93Z" transform="translate(-49.25 -159)" style="fill:url(#au)"/>
    <path d="M437.29,823.72l1.36,2.34c5.31,9.16,13.88,24.64,22.06,39.72l-.43-1.38c-6.33-20.12-16.16-43.81-20.36-51a41.4,41.4,0,0,0-6-7.75A25.76,25.76,0,0,0,437.29,823.72Z" transform="translate(-49.25 -159)" style="fill:#fff;fill-opacity:0.192498907446861"/>
    <path d="M403.33,890s-5.85,26-13.46,28.77c-2.93,1.07,22.47,4.13,22.47,4.13l6.37-24.93Z" transform="translate(-49.25 -159)" style="fill:url(#av)"/>
    <path d="M414.26,918.08c1.75.73-2.29,18.4-4.32,19.64s-17.68,2.53-29.4,1.14-22.42-4-23.4-7.27,1.8-6.22,9-7.28c10.3-1.5,21.05-8.24,24.05-10,1.63-1,6.34-3,7.74-.1s1.4,6.79,5.42,7S412.51,917.35,414.26,918.08Z" transform="translate(-49.25 -159)" style="fill:#482b61"/>
    <path d="M541.55,790q.12,27.93-18.67,35c-18.78,7-79.95,4.38-79.95,4.38s-19.42,71.34-24.07,78.29-26.7,7.67-25.51-8.33,9.81-75.43,11.47-89.52,6.89-17.47,22.16-20c5.37-.89,3.09-2.31,37.6-3.92,7.41-.35,19.85,2.42,31.27,3.68Q507.28,790.78,541.55,790Z" transform="translate(-49.25 -159)" style="fill:url(#aw)"/>
    <path d="M480.49,790.59v-3.24l-1.53-.23c-5.56-.82-10.62-1.45-14.38-1.27l-4,.19c-30.37,1.53-28.48,2.88-33.63,3.73l-1,.17c-14.18,2.45-19.32,5.88-21.05,18.91l-.49,3.92c-2.3,18.06-10,71.46-11.1,86.51a14.49,14.49,0,0,0,.11,3.33l4.47-22.49q9.88-50,11.08-59.27l.16-1.28c1.49-11,5.38-24.55,17.95-23.66l1.09.09q13.28,1,50.34-5.08Z" transform="translate(-49.25 -159)" style="fill:#fff;fill-opacity:0.192498907446861"/>
    <ellipse cx="390.92" cy="812.16" rx="5.02" ry="8.79" transform="translate(-221.93 -50.25) rotate(-13)" style="fill:#fff;fill-opacity:0.192498907446861"/>
    <line x1="333.46" y1="760.2" x2="335.26" y2="763.87" style="fill:none;stroke:#fff;stroke-linecap:round"/>
    <line x1="329.7" y1="761.46" x2="331.49" y2="765.12" style="fill:none;stroke:#fff;stroke-linecap:round"/>
    <path d="M524.23,752.91s-20.47,4.73-20.26,6.59,9.21,2.15,9.21,2.15-16.66,10.75-15.33,12.85S510,779,514.54,777.26s16.2-14,16.2-14Z" transform="translate(-49.25 -159)" style="fill:url(#ax)"/>
    <path d="M524,692.32c6.86,8.46,30.24,34.28,30.24,34.28S530.9,743.23,525,746.75c-9.65,5.77.17,21.07,7.25,19.37,9.59-2.31,33.81-19,45.19-25.76s7-17.65-1.39-27.6c-6.47-7.65-20.53-23.31-30.42-37S510.74,675.92,524,692.32Z" transform="translate(-49.25 -159)" style="fill:#f16b79"/>
    <path d="M554.28,726.6q6.59,6.33,5.9,6.82t-8.62-4.88Z" transform="translate(-49.25 -159)" style="fill-opacity:0.159855768084526"/>
    <path d="M485.73,630.26c-5.75.63-5.34,10.74,1.66,11.27,1.43,9.74,6.53,14.39,12.75,14.92l-.34,14.74h27.51A43.07,43.07,0,0,1,520,646.51c.38-14.26-.26-27.65-.26-27.65l-35.64.64Z" transform="translate(-49.25 -159)" style="fill:url(#ay)"/>
    <path d="M475.11,610.5c-2.81,6,9.42,20.19,9.42,20.19,6.41-.87,12.57,6.89,14.91,14.5,6.76,6.94,15.51,6.93,21.33,2.89l8.31-25.28c4.37-5,5.7-9.35-2.64-11.45-.39-7-2.4-9.82-12.11-6.25C504.11,593,497.11,588.85,495.82,601c-9.64-3.39-13.93-1.56-11.89,6.43C483.93,607.44,477.92,604.55,475.11,610.5Z" transform="translate(-49.25 -159)" style="fill:#422851"/>
    <path d="M545.81,676.78c3,5,4.55,14,1.29,65.62-1.69,26.75,7.71,38.55,3.45,44.58-10,14.19-77.6,8.31-81.64-1.19-5.15-12.12-.06-23,1.33-49.67s.34-54.24,2.91-58.4c5.11-8.31,18.26-12.2,26.43-13.44,10.36-1.58,23.74-1.64,31.69.88S542.82,671.78,545.81,676.78Z" transform="translate(-49.25 -159)" style="fill:url(#az)"/>
    <path d="M470.77,722.53l25.58-32.6-.31,2.23q-6.19,44.33-16.42,62.47-5.7,10.11-11.63,4.6l.44-3.46c.69-5.5,1.4-11.91,1.81-19.65C470.47,731.57,470.64,727,470.77,722.53Z" transform="translate(-49.25 -159)" style="fill-opacity:0.159855768084526"/>
    <path d="M531.27,665.16c.49.15,1,.31,1.4.48-11.42,5-30.27,4.31-40.52.25a63.84,63.84,0,0,1,7.43-1.61C509.94,662.7,523.32,662.64,531.27,665.16Z" transform="translate(-49.25 -159)" style="fill:#ff9b86"/>
    <path d="M392.47,719.5s-17-11.34-20-13.62S365.7,686.41,368,684c1.13-1.17,9.64,6.69,11.16,7.74s9.22,5.68,9.22,5.68-2.19-13.16-.31-14.22c1.39-.77,4.17,2.61,4.55,6.19s4.23,8.26,4.73,13.69c.23,2.37,2.57,6.91,2.57,6.91Z" transform="translate(-49.25 -159)" style="fill:url(#ba)"/>
    <path d="M493.74,697.75c-6.51,13.52-17.58,33.3-23.66,44.89-7.19,13.72-15.76,19.53-33.05,9.35-14.48-8.52-35.35-22.23-46.14-29.69-10-6.93,1.83-24,11.31-18.27C414.78,711.7,447,726.88,447,726.88s16.56-30.21,23.43-44.71C479.13,663.74,506.35,671.58,493.74,697.75Z" transform="translate(-49.25 -159)" style="fill:#f16b79"/>
    <path d="M447,726.88q-3,10.65-3.74,10.23t.5-11.75Z" transform="translate(-49.25 -159)" style="fill-opacity:0.159855768084526"/>
    <polygon points="453.28 672.17 438.06 779.73 446.04 779.63 461.26 673.29 453.28 672.17" style="fill:#91d6ff"/>
    <polygon points="459.75 672.17 474.97 779.73 466.99 779.63 451.77 673.29 459.75 672.17" style="fill:#bfe7ff"/>
    <polygon points="408.99 672.17 393.77 779.73 401.75 779.63 416.97 673.29 408.99 672.17" style="fill:#91d6ff"/>
    <polygon points="506.15 672.17 521.37 779.73 513.39 779.63 498.17 673.29 506.15 672.17" style="fill:#bfe7ff"/>
    <path d="M439.86,830a12.55,12.55,0,0,1,12.55-12.55h51a13.92,13.92,0,0,0,13.85-12.57l8.1-83.09a13.91,13.91,0,0,1,13.85-12.57h33.18a13.92,13.92,0,0,1,13.92,13.92c0,.37,0,.74,0,1.1L578,829.7a13.91,13.91,0,0,1-13.87,12.82H452.41A12.55,12.55,0,0,1,439.86,830Z" transform="translate(-49.25 -159)" style="fill:#91d6ff"/>
    <path d="M532.3,710.94,523.88,817A13.91,13.91,0,0,1,510,829.86H439.86v-.24a12.52,12.52,0,0,1,12.51-12.52h50.89a13.92,13.92,0,0,0,13.86-12.56l8.09-82.78A13.91,13.91,0,0,1,532.3,710.94Z" transform="translate(-49.25 -159)" style="fill:#bfe7ff"/>
    <path d="M340.5,808.7h7.35a8.7,8.7,0,0,1,8.7,8.7v77.51A20.57,20.57,0,0,1,336,915.47H334.4l-7.91-85,5.83-16.07A8.7,8.7,0,0,1,340.5,808.7Z" transform="translate(-49.25 -159)" style="fill:url(#bb)"/>
    <path d="M351,815.82a1.57,1.57,0,0,1,1.58,1.58v79.88h-3.95l-7.12-43.41,7.59-36.51A1.94,1.94,0,0,1,351,815.82Z" transform="translate(-49.25 -159)" style="fill:url(#bc)"/>
    <path d="M299.38,807.12h7.34a8.69,8.69,0,0,1,8.7,8.7v77.51a20.57,20.57,0,0,1-20.56,20.56h-1.58l-7.91-85,5.83-16.07A8.68,8.68,0,0,1,299.38,807.12Z" transform="translate(-49.25 -159)" style="fill:url(#bd)"/>
    <path d="M309.88,814.23a1.59,1.59,0,0,1,1.59,1.59V895.7h-4l-7.12-52.17,7.5-27.77A2.06,2.06,0,0,1,309.88,814.23Z" transform="translate(-49.25 -159)" style="fill:url(#be)"/>
    <path d="M312.65,814.43a12.46,12.46,0,0,1,12.46,12.21v.25h-4.35a8.11,8.11,0,0,0-7.88-8.11H296a8.11,8.11,0,0,0-8.1,7.89v.22h-4.35a12.46,12.46,0,0,1,12.2-12.46h16.86Z" transform="translate(-49.25 -159)" style="fill:#eb8426"/>
    <path d="M293.67,814.23h20.56a2.77,2.77,0,0,1,0,5.54H293.67a2.77,2.77,0,0,1,0-5.54Z" transform="translate(-49.25 -159)" style="fill:#85704f"/>
    <path d="M291.69,822.93h16.22a43.9,43.9,0,0,1,43.89,43.9v66a4.75,4.75,0,0,1-4.74,4.75h-78.3a4.75,4.75,0,0,1-4.75-4.75V850.62A27.69,27.69,0,0,1,291.69,822.93Z" transform="translate(-49.25 -159)" style="fill:url(#bf)"/>
    <path d="M303.16,822.54a40.33,40.33,0,0,1,40.33,39.67v51.13a.4.4,0,0,1-.79.07V862.88a39.55,39.55,0,0,0-79.09-.66v51a.4.4,0,0,1-.79.07V862.88A40.33,40.33,0,0,1,303.16,822.54Z" transform="translate(-49.25 -159)" style="fill:#222d4e;isolation:isolate;opacity:0.467075884342194"/>
    <path d="M295.25,822.93a40,40,0,0,1,39.94,40v70a4.75,4.75,0,0,1-4.74,4.75H260.06a4.75,4.75,0,0,1-4.75-4.75v-70A40,40,0,0,1,295.25,822.93Z" transform="translate(-49.25 -159)" style="fill:#ffcb69"/>
    <path d="M295.25,831.24a32.44,32.44,0,0,1,32.43,31.89v2.51a.4.4,0,0,1-.4.4.39.39,0,0,1-.38-.33v-2a31.64,31.64,0,0,0-63.27-.53v2.5a.4.4,0,0,1-.79.07v-2A32.42,32.42,0,0,1,295.25,831.24Z" transform="translate(-49.25 -159)" style="fill:#222d4e;isolation:isolate;opacity:0.467075884342194"/>
    <path d="M326.49,864.85h1.59a.8.8,0,0,1,.79.79v1.59a.8.8,0,0,1-.79.79h-1.59a.8.8,0,0,1-.79-.79v-1.59A.8.8,0,0,1,326.49,864.85Z" transform="translate(-49.25 -159)" style="fill:#fff9ee"/>
    <path d="M326.49,867.23h1.59l.68,5.43a.81.81,0,0,1-.69.89H326.6a.79.79,0,0,1-.79-.79v-.1l.68-5.43Z" transform="translate(-49.25 -159)" style="fill:#ffefd0"/>
    <path d="M273.5,890.16h49a4.75,4.75,0,0,1,4.74,4.75v32.42a4.74,4.74,0,0,1-4.74,4.75h-49a4.74,4.74,0,0,1-4.74-4.75V894.91A4.75,4.75,0,0,1,273.5,890.16Z" transform="translate(-49.25 -159)" style="fill:url(#bg)"/>
    <path d="M317,889a5.14,5.14,0,0,1,5.14,4.95v15.93a.39.39,0,0,1-.78.07V894.12a4.34,4.34,0,0,0-4.17-4.35H268.76a4.34,4.34,0,0,0-4.35,4.17v15.44a.39.39,0,0,1-.4.39.41.41,0,0,1-.39-.32V894.12a5.14,5.14,0,0,1,4.95-5.14H317Z" transform="translate(-49.25 -159)" style="fill:#222d4e;isolation:isolate;opacity:0.467075884342194"/>
    <path d="M263.22,890.16h48.25a4.75,4.75,0,0,1,4.74,4.75v32.42a4.74,4.74,0,0,1-4.74,4.75H263.22a4.74,4.74,0,0,1-4.74-4.75V894.91A4.75,4.75,0,0,1,263.22,890.16Z" transform="translate(-49.25 -159)" style="fill:#ffda95"/>
    <rect x="294.86" y="913.1" width="11.86" height="11.86" transform="translate(-611.01 322.87) rotate(-45)" style="fill:#fca23b"/>
    <path d="M111.45,865.25Q102.33,817.58,67,843.09q27.15-2,40.1,22.16Z" transform="translate(-49.25 -159)" style="fill:#02d3af"/>
    <path d="M116,856.46q-4.51-55.55-49-42.32,26.43,14,41.79,42.32Z" transform="translate(-49.25 -159)" style="fill:#02b596"/>
    <path d="M103.4,821.62q-2.36-15.4,3.92-34.85,15,26.34,16.73,43.6a85.38,85.38,0,0,1-3.91,34.85Q105.77,837,103.4,821.62Z" transform="translate(-49.25 -159)" style="fill:#02d3af"/>
    <path d="M118.72,819.21q.63-15.57,17.49-43.92,5.78,38.9,4.18,56.15t-16.9,31.36Q118.11,834.78,118.72,819.21Z" transform="translate(-49.25 -159)" style="fill:#02b596"/>
    <path d="M128.55,861.55q0-65.12,46.13-41.36-26.35,5.68-41.78,41.36Z" transform="translate(-49.25 -159)" style="fill:#02d3af"/>
    <path d="M133.57,864.06q11.56-51.37,45.59-17.36-28.68-4.29-41.23,17.36Z" transform="translate(-49.25 -159)" style="fill:#02b596"/>
    <path d="M100.44,857.33h46.61a3.22,3.22,0,0,1,3.21,3.22v8.83h0c0,19.79,17.68,38.46,17.68,53.38q0,14.78-15.73,18.16a3.08,3.08,0,0,1-.68.07H96.21a3.21,3.21,0,0,1-1.15-.21q-15.51-5.92-15.51-18c0-12.3,17.68-34.69,17.68-53.38v-8.83h0A3.22,3.22,0,0,1,100.44,857.33Z" transform="translate(-49.25 -159)" style="fill:url(#bh)"/>
    <g style="mask:url(#bi)">
        <path d="M74.53,847.29h33.9c-21,40.65,9,64.89,0,101.69H74.53Z" transform="translate(-49.25 -159)" style="fill:#ffb3a4"/>
    </g>
    <path d="M95.87,854.82h55.24a2.51,2.51,0,0,1,2.51,2.51v5a2.51,2.51,0,0,1-2.51,2.52H95.87a2.52,2.52,0,0,1-2.51-2.52v-5A2.52,2.52,0,0,1,95.87,854.82Z" transform="translate(-49.25 -159)" style="fill:#ffb3a4"/>
    <path d="M691,813.59a12.45,12.45,0,0,1,12.45,12.21v.25h-4.35a8.11,8.11,0,0,0-7.88-8.11H674.4a8.11,8.11,0,0,0-8.11,7.88v.23h-4.35a12.46,12.46,0,0,1,12.21-12.46H691Z" transform="translate(-49.25 -159)" style="fill:#ffcb69"/>
    <path d="M672,813.39h20.57a2.77,2.77,0,0,1,0,5.54H672a2.77,2.77,0,0,1,0-5.54Z" transform="translate(-49.25 -159)" style="fill:#ce8b36"/>
    <path d="M708.94,826.64a20.4,20.4,0,0,1,20.39,19.77v.39l.75,65a7.54,7.54,0,0,1-7.45,7.62l-3.14,0h0l-.83-72.51a9.74,9.74,0,0,0-9.42-9.62H701V826.64Z" transform="translate(-49.25 -159)" style="fill:#eba448"/>
    <path d="M706.43,826.64a20.4,20.4,0,0,1,20.39,19.77v.39l.74,65a7.53,7.53,0,0,1-7.44,7.62l-3.14,0h0l-.83-72.51a9.74,9.74,0,0,0-9.42-9.62h-8.3V826.64Z" transform="translate(-49.25 -159)" style="fill:#ce8b36"/>
    <path d="M654,827h53.11a12.43,12.43,0,0,1,12.42,12.43v87a12.43,12.43,0,0,1-12.42,12.43H654a12.44,12.44,0,0,1-12.43-12.43v-87A12.44,12.44,0,0,1,654,827Z" transform="translate(-49.25 -159)" style="fill:#ffcb69"/>
    <path d="M709.4,895.87h12.42a4.52,4.52,0,0,1,4.52,4.52v22a10.73,10.73,0,0,1-10.73,10.73H709.4a4.52,4.52,0,0,1-4.52-4.52V900.39A4.52,4.52,0,0,1,709.4,895.87Z" transform="translate(-49.25 -159)" style="fill:#da9339"/>
    <path d="M709.4,895.87h3.38V929.2a4,4,0,1,1-7.9,0V900.39A4.52,4.52,0,0,1,709.4,895.87Z" transform="translate(-49.25 -159)" style="fill:#eba448"/>
    <path d="M655.16,827h32.77a12.44,12.44,0,0,1,12.43,12.43v87a12.44,12.44,0,0,1-12.43,12.43H643.86a12.44,12.44,0,0,1-12.43-12.43v-75.7A23.73,23.73,0,0,1,655.16,827Z" transform="translate(-49.25 -159)" style="fill:#e8c37e"/>
    <path d="M655.16,824.69h52.67a11.73,11.73,0,0,1,11.73,11.74h-5.65a11.28,11.28,0,0,0-11.29,11.29v70.75a12.43,12.43,0,0,1-12.43,12.43H639.34a12.43,12.43,0,0,1-12.43-12.43V852.94A28.25,28.25,0,0,1,655.16,824.69Z" transform="translate(-49.25 -159)" style="fill:#ffda95"/>
    <path d="M656.13,824.69l13.18-1.93a2,2,0,0,1,2.22,1.65,2.64,2.64,0,0,1,0,.28h0q-11.28,3-15.42,6c-5.9,4.32-5.9,10.66-6,15.52v88a2.26,2.26,0,0,1-2.26,2.26h-6.22a2.26,2.26,0,0,1-2.26-2.26v-87.7h0c0-9.47,3.72-17.32,12.62-20.46l.41-.15Z" transform="translate(-49.25 -159)" style="fill:#ce8b36"/>
    <path d="M661.2,822.51l8.46.17a1,1,0,0,1,.5.13l.83.43h0a86.21,86.21,0,0,0-13.73,5.19c-6.81,3.49-8.3,10.28-8.3,15.85v90a2.26,2.26,0,0,1-2.26,2.26h-6.22a2.26,2.26,0,0,1-2.26-2.26v-90h0c0-9.47,6-17.32,14.88-20.46l.41-.15A23.08,23.08,0,0,1,661.2,822.51Z" transform="translate(-49.25 -159)" style="fill:#eba448"/>
    <rect x="592.35" y="712.02" width="4.52" height="4.52" style="fill:#fffaf1"/>
    <path d="M648.39,865.37a4.52,4.52,0,0,1,4.52,4.52v6.78a4.52,4.52,0,0,1-4.52,4.52h-9a4.53,4.53,0,0,1-4.52-4.52v-6.78a4.52,4.52,0,0,1,4.52-4.52Zm0,2.26h-9a2.26,2.26,0,0,0-2.25,2.09v6.95a2.26,2.26,0,0,0,2.09,2.25h9.21a2.28,2.28,0,0,0,2.26-2.1v-6.94a2.27,2.27,0,0,0-2.09-2.26Z" transform="translate(-49.25 -159)" style="fill:#fffaf1"/>
    <circle cx="594.04" cy="732.92" r="1.69" style="fill:#ce8b36"/>
    <circle cx="594.04" cy="745.35" r="1.69" style="fill:#ce8b36"/>
    <circle cx="594.04" cy="757.78" r="1.69" style="fill:#ce8b36"/>
    <path d="M690,824.69l13.19-1.93a1.94,1.94,0,0,1,2.21,1.65,1.33,1.33,0,0,1,0,.28h0q-11.28,3-15.43,6c-5.89,4.32-5.89,10.66-6,15.52v88a2.26,2.26,0,0,1-2.26,2.26h-6.21a2.26,2.26,0,0,1-2.26-2.26v-87.7h0c0-9.47,3.72-17.32,12.62-20.46l.41-.15Z" transform="translate(-49.25 -159)" style="fill:#ce8b36"/>
    <path d="M695.1,822.51l8.45.17a1,1,0,0,1,.51.13l.83.43h0a86.77,86.77,0,0,0-13.74,5.19c-6.81,3.49-8.3,10.28-8.3,15.85v90a2.26,2.26,0,0,1-2.26,2.26h-6.21a2.26,2.26,0,0,1-2.26-2.26v-90h0c0-9.47,6-17.32,14.88-20.46l.41-.15A23.08,23.08,0,0,1,695.1,822.51Z" transform="translate(-49.25 -159)" style="fill:#eba448"/>
    <rect x="626.25" y="712.02" width="4.52" height="4.52" style="fill:#fffaf1"/>
    <path d="M682.29,865.37a4.52,4.52,0,0,1,4.52,4.52v6.78a4.53,4.53,0,0,1-4.52,4.52h-9a4.52,4.52,0,0,1-4.52-4.52v-6.78a4.52,4.52,0,0,1,4.52-4.52Zm0,2.26h-9a2.25,2.25,0,0,0-2.25,2.09v6.95a2.26,2.26,0,0,0,2.09,2.25h9.21a2.26,2.26,0,0,0,2.25-2.1v-6.94a2.27,2.27,0,0,0-2.09-2.26Z" transform="translate(-49.25 -159)" style="fill:#fffaf1"/>
    <circle cx="627.94" cy="732.92" r="1.69" style="fill:#ce8b36"/>
    <circle cx="627.94" cy="745.35" r="1.69" style="fill:#ce8b36"/>
    <circle cx="627.94" cy="757.78" r="1.69" style="fill:#ce8b36"/>
</svg>