<svg xmlns="http://www.w3.org/2000/svg" xmlns:xlink="http://www.w3.org/1999/xlink" viewBox="0 0 887.84 359.67">
    <defs>
        <linearGradient id="a" x1="796.65" y1="-124.63" x2="831.37" y2="-160.41" gradientTransform="matrix(1, 0, 0, -1, 0, -36)" gradientUnits="userSpaceOnUse">
            <stop offset="0.21" stop-color="#f15a24"/>
            <stop offset="0.68" stop-color="#fbb03b"/>
        </linearGradient>
        <linearGradient id="b" x1="769.95" y1="-167.8" x2="735.23" y2="-132.03" gradientTransform="matrix(1, 0, 0, -1, 0, -36)" gradientUnits="userSpaceOnUse">
            <stop offset="0.21" stop-color="#ed1e79"/>
            <stop offset="0.89" stop-color="#522785"/>
        </linearGradient>
    </defs>
    <path d="M138.28,293.18a36,36,0,0,0,36-36c0-19.9-26-66-36-66s-36,46.15-36,66A36,36,0,0,0,138.28,293.18Z" transform="translate(-67.16 -65.46)" style="fill:#aac5ff"/>
    <path d="M136.78,278.26a1.87,1.87,0,0,1,1.87,1.79V392a1.88,1.88,0,0,1-3.75.08v-112A1.88,1.88,0,0,1,136.78,278.26Z" transform="translate(-67.16 -65.46)" style="fill:#c8daff"/>
    <path d="M124.67,318.64a15.83,15.83,0,0,0-.48-22.38c-6.32-6.1-28.86-12.07-31.91-8.9s3.69,25.48,10,31.58A15.83,15.83,0,0,0,124.67,318.64Z" transform="translate(-67.16 -65.46)" style="fill:#aac5ff"/>
    <path d="M115.38,308.47a1.88,1.88,0,0,1,2.59-.06l.07.06,20.07,20.17a1.87,1.87,0,0,1-2.59,2.71l-.07-.07-20.07-20.16A1.88,1.88,0,0,1,115.38,308.47Z" transform="translate(-67.16 -65.46)" style="fill:#c8daff"/>
    <path d="M151,350.2a15.83,15.83,0,0,0,22.27,2.24c6.82-5.52,15.5-27.16,12.73-30.59s-25.75.57-32.57,6.09A15.84,15.84,0,0,0,151,350.2Z" transform="translate(-67.16 -65.46)" style="fill:#aac5ff"/>
    <path d="M156.6,343.88a1.88,1.88,0,0,1,2.6,2.71l-.06.06L138,365.93a1.87,1.87,0,0,1-2.59-2.7l.06-.07Z" transform="translate(-67.16 -65.46)" style="fill:#c8daff"/>
    <path d="M112.5,393.75q-11.76-2.33-11.76-7.7t8.89-4.17q-4.84-12.84,5.28-15.67t13.47,12.94q5.87-6.33,10.12-4.71t1.1,10.43q3.59-2.88,6.81-2.17t-3.78,11.05Z" transform="translate(-67.16 -65.46)" style="fill:#a7c3ff"/>
    <circle cx="49.85" cy="319.13" r="3" style="fill:#c8daff"/>
    <path d="M181.47,358.64a17.25,17.25,0,0,1,13.32,6.27,11.26,11.26,0,0,1,20.44,5.76c.25,0,.51,0,.77,0a11.26,11.26,0,0,1,11.26,11.26c0,.33,0,.65,0,1a11.26,11.26,0,0,1,8.82,8.79H159.71a7.52,7.52,0,0,1,6.63-7.46,17.26,17.26,0,0,1,15.13-25.56Z" transform="translate(-67.16 -65.46)" style="fill:#a7c3ff"/>
    <circle cx="125.58" cy="312.69" r="3" style="fill:#c8daff"/>
    <path d="M195.52,246.5h62.67a.74.74,0,0,1,.75.75v88.19a.75.75,0,0,1-.75.75H195.52a.76.76,0,0,1-.75-.75V247.25A.75.75,0,0,1,195.52,246.5Z" transform="translate(-67.16 -65.46)" style="fill:#9ab9fa"/>
    <polygon points="159.14 250.84 166.64 250.84 125.36 352.92 119.36 352.92 159.14 250.84" style="fill:#f5ac00"/>
    <polygon points="163.27 250.84 169.27 250.84 127.99 352.92 121.99 352.92 163.27 250.84" style="fill:#ffbf29"/>
    <polygon points="148.63 250.84 156.14 250.84 144.88 352.92 137.37 352.92 148.63 250.84" style="fill:#f5ac00"/>
    <polygon points="151.26 250.84 157.26 250.84 146 352.92 140 352.92 151.26 250.84" style="fill:#ffbf29"/>
    <polygon points="172.27 250.84 164.77 250.84 176.03 352.92 183.53 352.92 172.27 250.84" style="fill:#f5ac00"/>
    <polygon points="173.4 250.84 167.4 250.84 178.65 352.92 184.66 352.92 173.4 250.84" style="fill:#ffbf29"/>
    <path d="M198.9,246.5h63.42a.38.38,0,0,1,.38.37v88.94a.38.38,0,0,1-.38.38H198.9a.38.38,0,0,1-.38-.38V246.87A.38.38,0,0,1,198.9,246.5Z" transform="translate(-67.16 -65.46)" style="fill:#eaefff"/>
    <path d="M231.82,290.08a10.81,10.81,0,0,0,10.81-10.81c0-6-7.79-19.82-10.81-19.82S221,273.3,221,279.27A10.81,10.81,0,0,0,231.82,290.08Z" transform="translate(-67.16 -65.46)" style="fill:#4ed266"/>
    <path d="M231.37,285.6a.56.56,0,0,1,.56.54v33.59a.56.56,0,0,1-.56.56.55.55,0,0,1-.56-.53v-33.6A.56.56,0,0,1,231.37,285.6Z" transform="translate(-67.16 -65.46)" style="fill:#ffbf29"/>
    <path d="M225.34,321.46c-2.35-.47-3.53-1.24-3.53-2.32s.89-1.49,2.67-1.25q-1.46-3.84,1.58-4.7c2-.56,3.38.73,4,3.89,1.18-1.27,2.19-1.74,3-1.42s1,1.37.33,3.13a2.44,2.44,0,0,1,2-.65c.64.14.27,1.25-1.13,3.32Z" transform="translate(-67.16 -65.46)" style="fill:#4ed266"/>
    <circle cx="159.53" cy="253.24" r="0.9" style="fill:#c8daff"/>
    <path d="M227.74,297.72a4.75,4.75,0,0,0-.15-6.72c-1.89-1.83-8.65-3.62-9.57-2.67s1.11,7.65,3,9.48A4.76,4.76,0,0,0,227.74,297.72Z" transform="translate(-67.16 -65.46)" style="fill:#4ed266"/>
    <path d="M225,294.66a.57.57,0,0,1,.78,0l0,0,6,6a.57.57,0,0,1-.78.82l0,0-6-6.05A.57.57,0,0,1,225,294.66Z" transform="translate(-67.16 -65.46)" style="fill:#ffbf29"/>
    <path d="M235.64,307.18a4.75,4.75,0,0,0,6.68.68c2.05-1.66,4.65-8.15,3.82-9.18s-7.72.17-9.77,1.83A4.75,4.75,0,0,0,235.64,307.18Z" transform="translate(-67.16 -65.46)" style="fill:#4ed266"/>
    <path d="M237.32,305.29a.56.56,0,0,1,.79,0,.56.56,0,0,1,0,.78l0,0-6.33,5.78a.56.56,0,0,1-.79,0,.56.56,0,0,1,0-.78l0,0Z" transform="translate(-67.16 -65.46)" style="fill:#ffbf29"/>
    <polygon points="146 266.6 150.02 266.6 150.02 262.47 171.9 262.47 171.9 271.1 146 271.1 146 266.6" style="fill:#f5ac00"/>
    <rect x="153.13" y="262.47" width="25.89" height="8.63" style="fill:#ffbf29"/>
    <polygon points="186.16 283.41 186.16 287.35 137.37 287.35 137.37 283.41 186.16 283.41" style="fill:#c8daff"/>
    <polygon points="141.5 283.49 141.5 287.62 137.37 287.62 137.37 283.49 141.5 283.49" style="fill:#a7c3ff"/>
    <polygon points="186.16 305.93 186.16 309.87 137.37 309.87 137.37 305.93 186.16 305.93" style="fill:#c8daff"/>
    <polygon points="141.5 306 141.5 310.13 137.37 310.13 137.37 306 141.5 306" style="fill:#a7c3ff"/>
    <path d="M279.73,387.43a125.5,125.5,0,0,1-17.39-1.15l6.39,27.47H264.2l-12.34-26.48a8.39,8.39,0,0,1,6.88-11.91l17.51-1.54h0v-2.91h11.69Q291.79,387.43,279.73,387.43Z" transform="translate(-67.16 -65.46)" style="fill:#f1b395"/>
    <path d="M268.7,422.59c-1.48.37-5.91.06-9.22.35a18.08,18.08,0,0,1-5-.54c-.34-.14-.35-.51,0-1.1h0q3.5-1.28,5.6-2.22c2.09-.95,4.37-2.37,4.37-3.26q0-.88-2.57-7.21l5.44-.58L270.55,421A2.33,2.33,0,0,1,268.7,422.59Z" transform="translate(-67.16 -65.46)" style="fill:#f1b395"/>
    <path d="M269.47,422.27l-3.56.06h0l-1.53-.67-3.8.74h-6.45a.66.66,0,0,0-.67.65v.18a.66.66,0,0,0,.65.65l6.5.05h0l3.8-.74,1.47.64,3.61-.07a.66.66,0,0,0,.65-.67v-.16A.65.65,0,0,0,269.47,422.27Z" transform="translate(-67.16 -65.46)" style="fill:#283845"/>
    <polygon points="196.35 351.45 189.94 354.61 190.18 354.97 196.59 351.97 196.35 351.45" style="fill:#283845"/>
    <polygon points="190.7 354.24 189.12 354.81 190.06 357.43 191.66 356.95 190.7 354.24" style="fill:#283845"/>
    <path d="M269.84,416.57l-3.59.64h0l-2.09-1.29a.17.17,0,0,0-.22.05l-.74,1.1a.16.16,0,0,0,.05.23h0l2.68,1.57h0l4-.65a.18.18,0,0,0,.14-.17l0-1.32a.17.17,0,0,0-.17-.17Z" transform="translate(-67.16 -65.46)" style="fill:#283845"/>
    <polygon points="197.87 352.6 197.23 356.84 198.79 357.03 199.41 352.94 197.87 352.6" style="fill:#283845"/>
    <path d="M282.21,387.43q-9.13,0-20-.66l-1.4-12.35,17.89-1.26v-2.25h13.34Q294.65,387.43,282.21,387.43Z" transform="translate(-67.16 -65.46)" style="fill:#303c5c"/>
    <path d="M267.13,385.84a30.2,30.2,0,0,1-2.06-5.64,27.19,27.19,0,0,1-.8-5.86,1.15,1.15,0,0,0-1.18-1.13l-.19,0-2.54.49a1.16,1.16,0,0,0-.94,1.12,26,26,0,0,0,.66,6.21,29,29,0,0,0,2.22,6.22,1.15,1.15,0,0,0,1.21.63l2.76-.41a1.17,1.17,0,0,0,1-1.32A1.42,1.42,0,0,0,267.13,385.84Z" transform="translate(-67.16 -65.46)" style="fill:#546081"/>
    <path d="M288,373.18q1.25,15-10.28,14.78-9.15-.13-29.1-2.35a44,44,0,0,1-2.45,12.22q-1.8,4.53-7.05,16.37l-5.08-.6,5.72-30.18a9.28,9.28,0,0,1,7.91-7.47l21.14-2.77h0v-2.25h19.34Z" transform="translate(-67.16 -65.46)" style="fill:#ffc4a7"/>
    <path d="M237.53,422.4c-1.49.35-5.91,0-9.22.19a19.13,19.13,0,0,1-5-.45c-.34-.15-.34-.52,0-1.1h0c2.35-.93,4.23-1.69,5.64-2.3,2.11-.91,4.52-2.09,4.76-3.51q.22-1.43,1.64-8.11l5.34,3.2a47.83,47.83,0,0,0-1.81,6,13.84,13.84,0,0,0,0,4.45C239,421.63,238.53,422.17,237.53,422.4Z" transform="translate(-67.16 -65.46)" style="fill:#ffc4a7"/>
    <path d="M238.46,422.26H234.9l-1.52-.7-3.81.68-6.45-.13a.66.66,0,0,0-.68.65h0v.17a.66.66,0,0,0,.65.66l6.49.15h0l3.81-.66,1.46.66h3.61a.67.67,0,0,0,.66-.66v-.17A.67.67,0,0,0,238.46,422.26Z" transform="translate(-67.16 -65.46)" style="fill:#283845"/>
    <polygon points="165.43 351.34 158.97 354.39 159.2 354.75 165.67 351.87 165.43 351.34" style="fill:#283845"/>
    <polygon points="159.73 354.03 158.14 354.57 159.04 357.21 160.65 356.75 159.73 354.03" style="fill:#283845"/>
    <path d="M238.93,416.57l-3.6.58h0l-2.07-1.33a.17.17,0,0,0-.22.05l-.76,1.08a.17.17,0,0,0,0,.23h0L235,418.8h0l4-.58a.16.16,0,0,0,.14-.17v-1.32a.17.17,0,0,0-.16-.17Z" transform="translate(-67.16 -65.46)" style="fill:#283845"/>
    <polygon points="166.94 352.51 166.22 356.74 167.77 356.96 168.47 352.88 166.94 352.51" style="fill:#283845"/>
    <path d="M288.18,373.18q1.23,15-10.29,14.78c-4.49-.07-11.13-.07-19.19-.51q-1.21-.06-1.22-12.78l11.5-1.49v-2.25h19.35Z" transform="translate(-67.16 -65.46)" style="fill:#3e4d76"/>
    <path d="M261.2,386.89a29.76,29.76,0,0,1-1.35-5.85,26.57,26.57,0,0,1-.09-5.91,1.16,1.16,0,0,0-1-1.27h-.18L256,374a1.15,1.15,0,0,0-1.06,1,26,26,0,0,0-.11,6.24,29.05,29.05,0,0,0,1.45,6.45,1.16,1.16,0,0,0,1.13.78l2.78-.08a1.15,1.15,0,0,0,1.12-1.19A1,1,0,0,0,261.2,386.89Z" transform="translate(-67.16 -65.46)" style="fill:#69779e"/>
    <polygon points="204.77 306.9 208.46 313.85 209.38 306.75 204.77 306.9" style="fill:#303c5c"/>
    <path d="M274,322.36v2.89q-1.2-.63-1.2-.87A9.48,9.48,0,0,1,274,322.36Z" transform="translate(-67.16 -65.46)" style="fill:#f19b93"/>
    <path d="M284,332.34h-6.3l.6-3a3.76,3.76,0,0,1-3.77-1.41c-.79-1.12-1.13-4.61-1-10.45H284Z" transform="translate(-67.16 -65.46)" style="fill:#ffc4a7"/>
    <path d="M281.69,328.71c-2.1,0-6.76-3.78-7.13-8.62s.32-8.41,6.25-7.14c5.32-1.51,8.74,3.67,8.74,7.14,0,4-4.33,8.59-5.55,8.59C283.69,328.68,282.5,328.72,281.69,328.71Z" transform="translate(-67.16 -65.46)" style="fill:#5b1e09"/>
    <circle cx="219.93" cy="252.52" r="3.22" style="fill:#ff4f4f"/>
    <circle cx="221.54" cy="251.57" r="4.09" style="fill:#5b1e09"/>
    <polygon points="211.12 263.92 212.44 263.73 210.53 266.87 211.12 263.92" style="fill:#f19b93"/>
    <path d="M275.55,321c-2-2-2.81-3.7-2.34-5.12q1.35-4.12,8.3-2.76Z" transform="translate(-67.16 -65.46)" style="fill:#5b1e09"/>
    <path d="M308.52,326.15a26.09,26.09,0,0,1-2.17-2.33c-.7-1-.48-1.39,0-1.15a12.46,12.46,0,0,1,2.63,1.86Z" transform="translate(-67.16 -65.46)" style="fill:#ffc4a7"/>
    <path d="M310,312.11l2.13.69-5.31,15a.69.69,0,0,1-.86.42.68.68,0,0,1-.45-.85L310,312.11Z" transform="translate(-67.16 -65.46)" style="fill:#467fff"/>
    <polygon points="243.66 242.69 246.63 243.66 245.38 246.07 243.25 245.38 243.66 242.69" style="fill:#ffbf29"/>
    <polygon points="243.39 244.95 245.51 245.64 244.82 247.77 242.7 247.08 243.39 244.95" style="fill:#d1daff"/>
    <path d="M294.15,337.67l9.73,7.12q4.55-11.71,5.18-16.3c.09-.65-.83-1.56-.87-2.29-.07-1.33,1.11-8.45,1.49-8.45s.61,1.53.38,4.57c2.65.25,4,.56,4,.93a12.46,12.46,0,0,1-.93,5.5q.09,1.41-3.18,20.33a4.42,4.42,0,0,1-5.1,3.6,4.37,4.37,0,0,1-1.92-.84l-12.32-9.39h0Z" transform="translate(-67.16 -65.46)" style="fill:#ffc4a7"/>
    <path d="M286.61,335.48l-.56.83a4.1,4.1,0,0,0,1.1,5.68L303,352.72a4.13,4.13,0,0,0,5.74-1.1c.08-.13.17-.27.24-.41l2-3.87h0l-6.11-6.29-1.11,1.46-11.37-8.08a4.1,4.1,0,0,0-5.71,1Z" transform="translate(-67.16 -65.46)" style="fill:#ff4f4f"/>
    <polygon points="225.44 274.44 225.44 280.13 224.38 279.52 225.44 274.44" style="fill:#080708;fill-opacity:0.223011359572411"/>
    <path d="M304.09,342.42l5.71,5.94a.65.65,0,0,0,.93,0,.54.54,0,0,0,.15-.22l.88-2.07a.67.67,0,0,0-.18-.76l-5.88-5a.66.66,0,0,0-.93.08l0,.07-.7,1.09A.66.66,0,0,0,304.09,342.42Z" transform="translate(-67.16 -65.46)" style="fill:#ff8080"/>
    <path d="M290.09,333.37a79.84,79.84,0,0,0-8.66-.9,52,52,0,0,0-9.5.69h0a1.59,1.59,0,0,0-1.19.88c-2.93,6.17-4.48,10.48-4.62,12.93-.18,2.92,2.49,6.18,2.49,9.18q0,3-2,17.1l27.17,1.38a.36.36,0,0,0,.37-.34.52.52,0,0,0,0-.11l-5.36-18.59h0l4.46-17.46a3.85,3.85,0,0,0-2.78-4.68Z" transform="translate(-67.16 -65.46)" style="fill:#283845"/>
    <path d="M290.09,333.37a79.84,79.84,0,0,0-8.66-.9,52,52,0,0,0-9.5.69h0a1.59,1.59,0,0,0-1.19.88c-2.93,6.17-4.48,10.48-4.62,12.93-.18,2.92,2.49,6.18,2.49,9.18q0,3-2,17.1l27.17,1.38a.36.36,0,0,0,.37-.34.52.52,0,0,0,0-.11l-5.36-18.59h0l4.46-17.46a3.85,3.85,0,0,0-2.78-4.68Z" transform="translate(-67.16 -65.46)" style="fill:#ff4f4f"/>
    <path d="M267.12,369.75h25.77l-1.81-6.27H267.93Q267.62,366.17,267.12,369.75Z" transform="translate(-67.16 -65.46)" style="fill:#ff8080"/>
    <path d="M268.61,356.15c0,.31,0,.72-.05,1.22h20.76l-.38-1.32H268.61Z" transform="translate(-67.16 -65.46)" style="fill:#ff8080"/>
    <path d="M266.12,347a11.46,11.46,0,0,0,1.27,4.78h22.39l1.6-6.27H266.33A9.15,9.15,0,0,0,266.12,347Z" transform="translate(-67.16 -65.46)" style="fill:#ff8080"/>
    <path d="M272.36,333.1l10.42,1.65,7.49-1.35-.18,0a79.84,79.84,0,0,0-8.66-.9A50.3,50.3,0,0,0,272.36,333.1Z" transform="translate(-67.16 -65.46)" style="fill:#ff8080"/>
    <path d="M286.68,331.44h-4.31l-5.29.15a.5.5,0,0,0-.48.5v.46a.5.5,0,0,0,.37.48l5.56,1.55h0l4.3-1.38a.49.49,0,0,0,.34-.47v-.79A.49.49,0,0,0,286.68,331.44Z" transform="translate(-67.16 -65.46)" style="fill:#ff8080"/>
    <path d="M267.77,340.86h24.79l.34-1.32H268.3C268.11,340,267.94,340.43,267.77,340.86Z" transform="translate(-67.16 -65.46)" style="fill:#ff8080"/>
    <path d="M275.17,340.42q-.78,4-6.59,14.55l-1.16-3.33,6.13-12.54Q275.93,336.4,275.17,340.42Z" transform="translate(-67.16 -65.46)" style="fill:#080708;fill-opacity:0.223011359572411"/>
    <path d="M268.82,337.22l-6.9,14-8.43-12.62a.34.34,0,0,1-.05-.14l-.54-4.76h0q-2-4.69-2.52-3.24c-.25.62.31,1.53,0,3.76,0,.33-1.65-.62-4.83-2.83a.31.31,0,0,0-.44.08.33.33,0,0,0-.05.24l1,5.21a.34.34,0,0,0,.11.18l4.77,4h0l6.46,15.63a4.41,4.41,0,0,0,7.92.47l9.55-17.07h0Z" transform="translate(-67.16 -65.46)" style="fill:#ffc4a7"/>
    <path d="M273.78,333.59l.29.15a4.06,4.06,0,0,1,1.83,5.46c0,.09-.09.17-.13.26L264.58,358.4a3.79,3.79,0,0,1-5.2,1.34,3.74,3.74,0,0,1-1.39-1.43l-3.17-5.73h0l5-5.22,1.29,2,7.22-14A4.11,4.11,0,0,1,273.78,333.59Z" transform="translate(-67.16 -65.46)" style="fill:#ff4f4f"/>
    <path d="M260.81,348.55l-.84-1.11a.66.66,0,0,0-.93-.14l-.07.07-4.31,4.41a.65.65,0,0,0-.11.78l.89,1.59a.66.66,0,0,0,.9.25.49.49,0,0,0,.18-.14l4.26-4.88A.66.66,0,0,0,260.81,348.55Z" transform="translate(-67.16 -65.46)" style="fill:#ff8080"/>
    <polygon points="214.04 321.39 208.62 359.67 211.46 359.63 216.88 321.79 214.04 321.39" style="fill:#a7c3ff"/>
    <polygon points="216.34 321.39 221.76 359.67 218.92 359.63 213.5 321.79 216.34 321.39" style="fill:#c8daff"/>
    <polygon points="198.28 321.39 192.86 359.67 195.7 359.63 201.12 321.79 198.28 321.39" style="fill:#a7c3ff"/>
    <polygon points="232.85 321.39 238.27 359.67 235.43 359.63 230.01 321.79 232.85 321.39" style="fill:#c8daff"/>
    <path d="M258.89,384.64a4.47,4.47,0,0,1,4.47-4.47H281.5a5,5,0,0,0,4.94-4.49l2.9-30.87a5,5,0,0,1,4.94-4.49h11.8a5,5,0,0,1,4.95,4.95c0,.13,0,.26,0,.38l-3,38.88a5,5,0,0,1-4.94,4.57H263.36A4.46,4.46,0,0,1,258.89,384.64Z" transform="translate(-67.16 -65.46)" style="fill:#a7c3ff"/>
    <path d="M291.8,340.94l-3,39.09a5,5,0,0,1-4.94,4.57H258.89v-.09a4.45,4.45,0,0,1,4.45-4.45h18.1a5,5,0,0,0,4.93-4.49l2.91-30.76A5,5,0,0,1,291.8,340.94Z" transform="translate(-67.16 -65.46)" style="fill:#c8daff"/>
    <path d="M362.33,335.17l.08,42.54a37.92,37.92,0,0,1,5,9.27c1.42,3.57,3.58,12.77,7.53,24.88q.36,1.06-4.68,2.25l-16.9-35.67-9-43.27Z" transform="translate(-67.16 -65.46)" style="fill:#ba7769"/>
    <path d="M362.33,335.17l2.73,27.24a44.35,44.35,0,0,1-7.46,2,26.85,26.85,0,0,1-7.14.08l-6.08-29.31Z" transform="translate(-67.16 -65.46)" style="fill:#e4a95b"/>
    <path d="M376.69,419.9c-1.29.85-5.6,2-8.65,3.36-1.38.61-4.6-.14-5.16-.18h0a.66.66,0,0,1-.14-1.29,11.29,11.29,0,0,0,4.61-2.4c1.68-1.59,3.35-3.11,3.09-4.53q-.27-1.42-3.46-7.76h5.94l4.52,10.81C377.8,418.68,377.55,419.34,376.69,419.9Z" transform="translate(-67.16 -65.46)" style="fill:#ba7769"/>
    <path d="M365.63,419.34a4.43,4.43,0,0,0-4.43,4.31v.13h7.93l-1.59-4.44Zm.87,2.22a.4.4,0,1,1-.39.39A.4.4,0,0,1,366.5,421.56Zm-1.58,0a.4.4,0,1,1-.4.39A.4.4,0,0,1,364.92,421.56Zm-1.59,0a.4.4,0,1,1,0,.79.4.4,0,0,1,0-.79Zm0-1.11a.4.4,0,1,1,0,.79.4.4,0,0,1,0-.79Zm1.59-.16a.4.4,0,0,1,.4.4.4.4,0,0,1-.8,0A.4.4,0,0,1,364.92,420.29Zm1.58-.16a.4.4,0,0,1,.4.4.4.4,0,0,1-.79,0A.4.4,0,0,1,366.5,420.13Z" transform="translate(-67.16 -65.46)" style="fill:#465b6b"/>
    <path d="M377.2,422.85H361.67a.63.63,0,0,0-.63.63v.16a.63.63,0,0,0,.63.63H377.2a.64.64,0,0,0,.64-.63v-.16A.64.64,0,0,0,377.2,422.85Z" transform="translate(-67.16 -65.46)" style="fill:#465b6b"/>
    <path d="M331.8,413l-5.35,1.78,2.3-36.22,8.76-43.35h16l-15.88,44a68.24,68.24,0,0,1-.91,12.84Q335.7,397.17,331.8,413Z" transform="translate(-67.16 -65.46)" style="fill:#e09282"/>
    <path d="M332.24,361.27l5.27-26.1H361a20.57,20.57,0,0,1-3.25,9.73,19.58,19.58,0,0,1-7.68,6.57l-4.26,13.58a18.52,18.52,0,0,1-6.8-.62A24.77,24.77,0,0,1,332.24,361.27Z" transform="translate(-67.16 -65.46)" style="fill:#ffbe68"/>
    <path d="M367.23,302.06l10.54,13.52a3.19,3.19,0,0,1,.22,3.58L368.5,335h0q.47,6.64-2,7.5c-.47.17-1.28,4-2.24,2.81-.17-.21-.3-2.69-.38-7.42l1.07-5.2,5.63-15.06-8.8-11.11Z" transform="translate(-67.16 -65.46)" style="fill:#e09282"/>
    <path d="M357.15,294.93l-.84.73a4.13,4.13,0,0,0-.41,5.81l9.27,10.69h0l7.06-6.15L363,295.33a4.13,4.13,0,0,0-5.82-.41Z" transform="translate(-67.16 -65.46)" style="fill:#be065a"/>
    <polygon points="295.2 237.21 298.48 246.28 298.01 246.7 295.85 244.18 295.2 237.21" style="fill:#080708;fill-opacity:0.340226173400879"/>
    <path d="M342.72,280.9l-1.6,3.13a.16.16,0,0,0,.07.21h0l1.5.4h0Z" transform="translate(-67.16 -65.46)" style="fill:#b9726b"/>
    <path d="M353.37,293.64h-6.72l.64-3.16a4,4,0,0,1-4-1.5q-1.26-1.8-1.09-11.15h11.19Z" transform="translate(-67.16 -65.46)" style="fill:#e09282"/>
    <path d="M352.71,288.24H351a1.27,1.27,0,0,1-1.2-.85,18.06,18.06,0,0,1-.92-3.75,2.94,2.94,0,0,0-2.09-2.67l-.25,2.17a.74.74,0,0,1-.74.66.67.67,0,0,1-.66-.67v-2.35a2.53,2.53,0,0,0-2.13-2.5l-.8-.13h0q-.23-3.18,1.52-4.64c1.75-1.47,6.1-1.62,8.6-.78a6.29,6.29,0,0,1,4.24,6.23c-.09,1.81-1,4.64-2.65,8.51A1.25,1.25,0,0,1,352.71,288.24Z" transform="translate(-67.16 -65.46)" style="fill:#321111"/>
    <circle cx="286.2" cy="216.83" r="4.12" style="fill:#321111"/>
    <circle cx="287.39" cy="212.15" r="4.2" style="fill:#321111"/>
    <circle cx="280.97" cy="207.79" r="4.44" style="fill:#321111"/>
    <circle cx="285.96" cy="208.19" r="2.77" style="fill:#321111"/>
    <circle cx="276.05" cy="208.11" r="3.96" style="fill:#321111"/>
    <circle cx="274.47" cy="210.01" r="3.17" style="fill:#321111"/>
    <circle cx="277.16" cy="210.65" r="3.96" style="fill:#321111"/>
    <polygon points="280.13 225.02 281.53 224.82 279.5 228.17 280.13 225.02" style="fill:#b9726b"/>
    <polygon points="279.3 263.2 274.22 263.2 274.22 269.07 279.3 269.07 279.3 263.2" style="fill:#f2f3f5"/>
    <path d="M359,293.94H339.73a3.48,3.48,0,0,0-3.48,3.35l-1.46,38.18h0l7.19.79,1.49-5.54,1.49,5.54,20.42-.79-2.92-38.31A3.48,3.48,0,0,0,359,293.94Z" transform="translate(-67.16 -65.46)" style="fill:#be065a"/>
    <polygon points="287.86 226.59 277.38 226.59 278.19 228.65 287.86 228.65 287.86 226.59" style="fill:#84013d"/>
    <polygon points="275.3 238.48 268.03 259.08 268.51 246.94 275.3 238.48" style="fill:#080708;fill-opacity:0.340226173400879"/>
    <path d="M308.11,283.51l5.27-1a1.07,1.07,0,0,1,1.25.85L317.09,296a1.07,1.07,0,0,1-.85,1.25l-5.26,1a1.08,1.08,0,0,1-1.26-.85l-2.45-12.63A1.06,1.06,0,0,1,308.11,283.51Z" transform="translate(-67.16 -65.46)" style="fill:#1075f0"/>
    <rect x="308.79" y="282.71" width="7.51" height="15.01" transform="translate(-116.79 -0.49) rotate(-11)" style="fill:#467fff"/>
    <path d="M308.85,283.83l.56-.11a.25.25,0,0,1,.28.19.24.24,0,0,0,.27.19l2.7-.53a.22.22,0,0,0,.18-.27A.24.24,0,0,1,313,283l.56-.11a.81.81,0,0,1,.94.63h0l2.32,12a1,1,0,0,1-.77,1.13l-4.42.86a1,1,0,0,1-1.13-.76h0l-2.32-12A.82.82,0,0,1,308.85,283.83Z" transform="translate(-67.16 -65.46)" style="fill:#eaefff"/>
    <path d="M333.26,305.25l-3.6,7-13.2-12.69a.31.31,0,0,1-.09-.18l-.78-4.78h0c-1.93-3.36-3.07-4.42-3.41-3.2-.19.69,1.68,1.51,1.37,3.76q-.06.49-5.06-3.27a.31.31,0,0,0-.44.06.28.28,0,0,0-.06.25l1,5.65a.45.45,0,0,0,.11.19l4.8,4h0l12.24,16.71a4.43,4.43,0,0,0,7.44-.43l5.8-10.21h0Z" transform="translate(-67.16 -65.46)" style="fill:#e09282"/>
    <path d="M341.31,294.4l1,.48a4.12,4.12,0,0,1,1.89,5.51L338,313.08h0l-8.41-4.1,6.19-12.69A4.12,4.12,0,0,1,341.31,294.4Z" transform="translate(-67.16 -65.46)" style="fill:#be065a"/>
    <path d="M338.2,335.48a14.85,14.85,0,0,0,3.16,4,12.59,12.59,0,0,0,4.14,2.37" transform="translate(-67.16 -65.46)" style="fill:none;stroke:#fff;stroke-linecap:round;stroke-width:1.06444799900055px"/>
    <path d="M330.28,424c-1.5.35-1.75-.52-4.59-.32s-1.52.28-4.86.51a4.94,4.94,0,0,1-3-.83,4.67,4.67,0,0,1-1.84-.19h0a.68.68,0,0,1-.35-.9.66.66,0,0,1,.56-.4,19,19,0,0,0,5.46-1.24c2.12-.91,3.89-1.64,4.29-3.21a66.28,66.28,0,0,0,.82-8.32l5.29,3a32,32,0,0,0-1,5.55,13.69,13.69,0,0,0,.55,4.7Q331.78,423.63,330.28,424Z" transform="translate(-67.16 -65.46)" style="fill:#e09282"/>
    <path d="M319,420a4.44,4.44,0,0,0-4.44,4.32v.12h7.93V420Zm2,1.91a.39.39,0,0,1,.4.39.4.4,0,0,1-.8,0A.39.39,0,0,1,321,421.88Zm-1.58,0a.39.39,0,0,1,.39.39.4.4,0,1,1-.79,0A.39.39,0,0,1,319.44,421.88Zm-1.59,0a.39.39,0,0,1,.4.39.4.4,0,1,1-.8,0A.39.39,0,0,1,317.85,421.88Zm0-1.11a.39.39,0,0,1,.4.39.4.4,0,1,1-.8,0A.39.39,0,0,1,317.85,420.77Zm1.59-.16a.39.39,0,0,1,.39.39.4.4,0,1,1-.79,0A.39.39,0,0,1,319.44,420.61Zm1.58-.16a.4.4,0,1,1-.4.4A.4.4,0,0,1,321,420.45Z" transform="translate(-67.16 -65.46)" style="fill:#51677a"/>
    <path d="M330.76,423.48h-15.7a.64.64,0,0,0-.63.64v.15a.64.64,0,0,0,.63.64h15.7a.64.64,0,0,0,.63-.64v-.15A.64.64,0,0,0,330.76,423.48Z" transform="translate(-67.16 -65.46)" style="fill:#51677a"/>
    <path d="M801.63,217.48h54.66a1.34,1.34,0,0,1,1.33,1.34v104a1.33,1.33,0,0,1-1.33,1.33H801.63a1.32,1.32,0,0,1-1.33-1.33v-104A1.33,1.33,0,0,1,801.63,217.48Z" transform="translate(-67.16 -65.46)" style="fill:#c8daff"/>
    <polygon points="785.88 204.48 736.88 246.6 736.88 237.58 785.88 198.12 785.88 204.48" style="fill:#d8e5ff"/>
    <polygon points="785.88 191.91 736.88 231.34 736.88 204.36 785.88 172.09 785.88 191.91" style="fill:#d8e5ff"/>
    <path d="M854,217.48a1.33,1.33,0,0,1,1.33,1.34v104a1.32,1.32,0,0,1-1.33,1.33H799.34A1.33,1.33,0,0,1,798,322.8v-104a1.34,1.34,0,0,1,1.33-1.34Zm-30.79,56.79H802.68a1.34,1.34,0,0,0-1.34,1.34h0v43.72a1.34,1.34,0,0,0,1.34,1.34h20.53a1.34,1.34,0,0,0,1.33-1.34h0V275.61a1.34,1.34,0,0,0-1.33-1.34Zm27.06,0H829.74a1.33,1.33,0,0,0-1.33,1.34h0v43.72a1.33,1.33,0,0,0,1.33,1.34h20.53a1.33,1.33,0,0,0,1.33-1.34h0V275.61a1.33,1.33,0,0,0-1.33-1.34Zm0-53.45H829.74a1.32,1.32,0,0,0-1.33,1.33h0v46.93a1.33,1.33,0,0,0,1.33,1.33h20.53a1.33,1.33,0,0,0,1.33-1.33h0V222.15a1.32,1.32,0,0,0-1.33-1.33Zm-27.06,0H802.68a1.33,1.33,0,0,0-1.34,1.33h0v46.93a1.34,1.34,0,0,0,1.34,1.33h20.53a1.34,1.34,0,0,0,1.33-1.33h0V222.15a1.33,1.33,0,0,0-1.33-1.33Z" transform="translate(-67.16 -65.46)" style="fill:#9ab9fa"/>
    <path d="M856.86,217.48a1.34,1.34,0,0,1,1.33,1.34v104a1.33,1.33,0,0,1-1.33,1.33H802.2a1.32,1.32,0,0,1-1.33-1.33v-104a1.33,1.33,0,0,1,1.33-1.34Zm-30.8,56.79H805.53a1.34,1.34,0,0,0-1.33,1.34h0v43.72a1.34,1.34,0,0,0,1.33,1.34h20.53a1.34,1.34,0,0,0,1.34-1.34h0V275.61a1.34,1.34,0,0,0-1.34-1.34Zm27.07,0H832.6a1.34,1.34,0,0,0-1.34,1.34h0v43.72a1.34,1.34,0,0,0,1.34,1.34h20.53a1.34,1.34,0,0,0,1.33-1.34h0V275.61a1.34,1.34,0,0,0-1.33-1.34Zm0-53.45H832.6a1.33,1.33,0,0,0-1.34,1.33h0v46.93a1.34,1.34,0,0,0,1.34,1.33h20.53a1.34,1.34,0,0,0,1.33-1.33h0V222.15a1.33,1.33,0,0,0-1.33-1.33Zm-27.07,0H805.53a1.33,1.33,0,0,0-1.33,1.33h0v46.93a1.34,1.34,0,0,0,1.33,1.33h20.53a1.34,1.34,0,0,0,1.34-1.33h0V222.15a1.33,1.33,0,0,0-1.34-1.33Z" transform="translate(-67.16 -65.46)" style="fill:#a7c3ff"/>
    <polygon points="734.16 251.67 796.74 251.67 796.74 258.81 734.16 258.81 734.16 251.67" style="fill:#a7c3ff"/>
    <rect x="733.14" y="251.67" width="7.14" height="7.14" style="fill:#9ab9fa"/>
    <rect x="586.81" y="338.3" width="4.76" height="10.88" style="fill:#a7c3ff"/>
    <polygon points="589.87 338.31 593.95 338.31 593.95 349.19 589.87 349.19 589.87 338.31" style="fill:#c8daff"/>
    <rect x="558.92" y="338.3" width="4.76" height="10.88" style="fill:#a7c3ff"/>
    <polygon points="561.98 338.31 566.06 338.31 566.06 349.19 561.98 349.19 561.98 338.31" style="fill:#c8daff"/>
    <rect x="672.85" y="338.3" width="4.76" height="10.88" style="fill:#a7c3ff"/>
    <polygon points="675.91 338.31 679.99 338.31 679.99 349.19 675.91 349.19 675.91 338.31" style="fill:#c8daff"/>
    <rect x="644.96" y="338.3" width="4.76" height="10.88" style="fill:#a7c3ff"/>
    <polygon points="648.02 338.31 652.1 338.31 652.1 349.19 648.02 349.19 648.02 338.31" style="fill:#c8daff"/>
    <rect x="555.86" y="298.18" width="112.57" height="41.83" style="fill:#a7c3ff"/>
    <path d="M655,363.64h92.85a1.36,1.36,0,0,1,1.36,1.36v39.11a1.36,1.36,0,0,1-1.36,1.36H655a1.36,1.36,0,0,1-1.36-1.36V365A1.36,1.36,0,0,1,655,363.64Z" transform="translate(-67.16 -65.46)" style="fill:#c8daff"/>
    <path d="M659.41,367.38h39.11a1.36,1.36,0,0,1,1.36,1.36V400a1.36,1.36,0,0,1-1.36,1.36H659.41a1.36,1.36,0,0,1-1.36-1.36V368.74A1.36,1.36,0,0,1,659.41,367.38Z" transform="translate(-67.16 -65.46)" style="fill:#a7c3ff"/>
    <path d="M697.3,368.74a1.22,1.22,0,0,1,1.22,1.21v28.86A1.22,1.22,0,0,1,697.3,400H660.62a1.22,1.22,0,0,1-1.21-1.22V370a1.21,1.21,0,0,1,1.21-1.21H673l.34,3.4h11.56l.34-3.4Z" transform="translate(-67.16 -65.46)" style="fill:#c8daff"/>
    <path d="M705,367.38h39.11a1.36,1.36,0,0,1,1.36,1.36V400a1.36,1.36,0,0,1-1.36,1.36H705a1.36,1.36,0,0,1-1.36-1.36V368.74A1.36,1.36,0,0,1,705,367.38Z" transform="translate(-67.16 -65.46)" style="fill:#a7c3ff"/>
    <path d="M742.87,368.74a1.22,1.22,0,0,1,1.22,1.21v28.86a1.22,1.22,0,0,1-1.22,1.22H706.19a1.22,1.22,0,0,1-1.21-1.22V370a1.21,1.21,0,0,1,1.21-1.21h12.39l.34,3.4h11.56l.34-3.4Z" transform="translate(-67.16 -65.46)" style="fill:#c8daff"/>
    <path d="M652.57,334.49h13.77a.81.81,0,0,1,.81.81v18.62a.81.81,0,0,1-.81.81H652.57a.81.81,0,0,1-.81-.81V335.3A.81.81,0,0,1,652.57,334.49Z" transform="translate(-67.16 -65.46)" style="fill:#1075f0"/>
    <path d="M652.57,334.49h2.84v20.24h-2.84a.81.81,0,0,1-.81-.81V335.3A.81.81,0,0,1,652.57,334.49Z" transform="translate(-67.16 -65.46)" style="fill:#467fff"/>
    <path d="M659.05,336.11h21.86a.81.81,0,0,1,.81.81v2.43a.81.81,0,0,1-.81.81H659.05a.81.81,0,0,1-.81-.81v-2.43A.81.81,0,0,1,659.05,336.11Z" transform="translate(-67.16 -65.46)" style="fill:#f5ac00"/>
    <path d="M659.05,336.11h11.74a.81.81,0,0,1,.81.81v2.43a.81.81,0,0,1-.81.81H659.05a.81.81,0,0,1-.81-.81v-2.43A.81.81,0,0,1,659.05,336.11Z" transform="translate(-67.16 -65.46)" style="fill:#ffbf29"/>
    <path d="M659.78,336.51h21.54a.4.4,0,0,1,.4.41v2.43a.4.4,0,0,1-.4.4H659.78a.73.73,0,0,1-.73-.73v-1.78A.73.73,0,0,1,659.78,336.51Z" transform="translate(-67.16 -65.46)" style="fill:#eaefff"/>
    <path d="M672.33,336.51h9a.4.4,0,0,1,.4.41v2.43a.4.4,0,0,1-.4.4h-9a.73.73,0,0,1-.73-.73v-1.78A.73.73,0,0,1,672.33,336.51Z" transform="translate(-67.16 -65.46)" style="fill:#c1d7ff"/>
    <path d="M684.56,359.59h21.86a.81.81,0,0,1,.81.81v2.43a.81.81,0,0,1-.81.81H684.56a.81.81,0,0,1-.81-.81V360.4A.81.81,0,0,1,684.56,359.59Z" transform="translate(-67.16 -65.46)" style="fill:#f5ac00"/>
    <path d="M684.56,359.59H696.3a.81.81,0,0,1,.81.81v2.43a.81.81,0,0,1-.81.81H684.56a.81.81,0,0,1-.81-.81V360.4A.81.81,0,0,1,684.56,359.59Z" transform="translate(-67.16 -65.46)" style="fill:#ffbf29"/>
    <path d="M685.28,360h21.54a.41.41,0,0,1,.41.41v2.43a.4.4,0,0,1-.41.4H685.28a.72.72,0,0,1-.72-.73v-1.78A.73.73,0,0,1,685.28,360Z" transform="translate(-67.16 -65.46)" style="fill:#eaefff"/>
    <path d="M697.83,360h9a.41.41,0,0,1,.41.41v2.43a.4.4,0,0,1-.41.4h-9a.72.72,0,0,1-.72-.73v-1.78A.73.73,0,0,1,697.83,360Z" transform="translate(-67.16 -65.46)" style="fill:#c1d7ff"/>
    <path d="M668.16,338.54h13.16a1.83,1.83,0,0,1,1.84,1.83V362.1a1.84,1.84,0,0,1-1.84,1.84H668.16Z" transform="translate(-67.16 -65.46)" style="fill:#c8daff"/>
    <path d="M647,338.54h22.34a1.83,1.83,0,0,1,1.84,1.83V362.1a1.84,1.84,0,0,1-1.84,1.84H647a1.83,1.83,0,0,1-1.83-1.84V340.37A1.83,1.83,0,0,1,647,338.54Z" transform="translate(-67.16 -65.46)" style="fill:#a7c3ff"/>
    <path d="M646,338.54h24.74a.61.61,0,0,1,.61.61.44.44,0,0,1,0,.16l-2.59,9.35a1.23,1.23,0,0,1-1.18.9H643.26a.62.62,0,0,1-.62-.62.45.45,0,0,1,0-.16l2.72-9.8A.6.6,0,0,1,646,338.54Z" transform="translate(-67.16 -65.46)" style="fill:#95b2ee"/>
    <path d="M682.39,338.54H671.72a.61.61,0,0,0-.61.61.88.88,0,0,0,0,.16l2.6,9.35a1.22,1.22,0,0,0,1.18.9h10.2a.61.61,0,0,0,.61-.62.88.88,0,0,0,0-.16L683,339A.62.62,0,0,0,682.39,338.54Z" transform="translate(-67.16 -65.46)" style="fill:#a7c3ff"/>
    <rect x="580.5" y="289.6" width="7.96" height="2.14" style="fill:#95b2ee"/>
    <path d="M648.72,358.74h8.88a1.07,1.07,0,0,1,0,2.14h-8.88a1.07,1.07,0,0,1,0-2.14Z" transform="translate(-67.16 -65.46)" style="fill:#95b2ee"/>
    <path d="M657.84,332.06H679.7a.81.81,0,0,1,.81.81v2.43a.82.82,0,0,1-.81.81H657.84a.81.81,0,0,1-.81-.81v-2.43A.81.81,0,0,1,657.84,332.06Z" transform="translate(-67.16 -65.46)" style="fill:#ff326f"/>
    <path d="M657.84,332.06h11.74a.81.81,0,0,1,.81.81v2.43a.82.82,0,0,1-.81.81H657.84a.81.81,0,0,1-.81-.81v-2.43A.81.81,0,0,1,657.84,332.06Z" transform="translate(-67.16 -65.46)" style="fill:#ff5d8e"/>
    <path d="M658.56,332.46H680.1a.41.41,0,0,1,.41.41v2.43a.4.4,0,0,1-.41.4H658.56a.72.72,0,0,1-.72-.73v-1.78A.73.73,0,0,1,658.56,332.46Z" transform="translate(-67.16 -65.46)" style="fill:#eaefff"/>
    <path d="M671.11,332.46h9a.41.41,0,0,1,.41.41v2.43a.4.4,0,0,1-.41.4h-9a.72.72,0,0,1-.72-.73v-1.78A.73.73,0,0,1,671.11,332.46Z" transform="translate(-67.16 -65.46)" style="fill:#c1d7ff"/>
    <path d="M686.18,355.54H708a.81.81,0,0,1,.81.81v2.43a.81.81,0,0,1-.81.81H686.18a.81.81,0,0,1-.81-.81v-2.43A.81.81,0,0,1,686.18,355.54Z" transform="translate(-67.16 -65.46)" style="fill:#b34ee6"/>
    <path d="M686.18,355.54h11.74a.81.81,0,0,1,.81.81v2.43a.81.81,0,0,1-.81.81H686.18a.81.81,0,0,1-.81-.81v-2.43A.81.81,0,0,1,686.18,355.54Z" transform="translate(-67.16 -65.46)" style="fill:#cf6fff"/>
    <path d="M686.09,356h11.42a.81.81,0,0,1,.81.81v1.61a.81.81,0,0,1-.81.81H686.09a.72.72,0,0,1-.72-.72v-1.79A.72.72,0,0,1,686.09,356Z" transform="translate(-67.16 -65.46)" style="fill:#eaefff"/>
    <rect x="864.38" y="339.91" width="4.76" height="10.88" style="fill:#a7c3ff"/>
    <polygon points="866.08 339.91 863.36 339.91 863.36 350.79 866.08 350.79 866.08 339.91" style="fill:#c8daff"/>
    <rect x="882.06" y="339.91" width="4.76" height="10.88" style="fill:#a7c3ff"/>
    <polygon points="883.76 339.91 881.04 339.91 881.04 350.79 883.76 350.79 883.76 339.91" style="fill:#c8daff"/>
    <polygon points="836.15 339.91 832.75 339.91 832.75 350.79 836.15 350.79 836.15 339.91" style="fill:#a7c3ff"/>
    <polygon points="833.09 339.91 830.37 339.91 830.37 350.79 833.09 350.79 833.09 339.91" style="fill:#c8daff"/>
    <polygon points="851.46 339.91 848.05 339.91 848.05 350.79 851.46 350.79 851.46 339.91" style="fill:#a7c3ff"/>
    <polygon points="848.39 339.91 845.67 339.91 845.67 350.79 848.39 350.79 848.39 339.91" style="fill:#c8daff"/>
    <path d="M953.64,299.27H896.17a1.35,1.35,0,0,0-1.36,1.36V409.45a1.36,1.36,0,0,0,1.36,1.36h57.47a1.36,1.36,0,0,0,1.36-1.36V300.63A1.36,1.36,0,0,0,953.64,299.27Z" transform="translate(-67.16 -65.46)" style="fill:#9ab9fa"/>
    <path d="M953.64,299.27H933.57V410.81h20.07a1.36,1.36,0,0,0,1.36-1.36V300.63A1.36,1.36,0,0,0,953.64,299.27Z" transform="translate(-67.16 -65.46)" style="fill:#a7c3ff"/>
    <path d="M913.17,299.27h-17a1.35,1.35,0,0,0-1.36,1.36V409.45a1.36,1.36,0,0,0,1.36,1.36h17Z" transform="translate(-67.16 -65.46)" style="fill:#a7c3ff"/>
    <path d="M896.17,299.27a1.35,1.35,0,0,0-1.36,1.36V409.45a1.36,1.36,0,0,0,1.36,1.36h37.75a1.36,1.36,0,0,0,1.36-1.36V300.63a1.36,1.36,0,0,0-1.36-1.36Zm1.36,75.49h34.68v33H897.53Zm0-36.39h34.68v33H897.53Zm0-36h34.68v33H897.53Z" transform="translate(-67.16 -65.46)" style="fill:#c8daff"/>
    <polygon points="832.6 285.73 845.28 285.73 845.28 305.97 832.6 305.97 832.6 285.73" style="fill:#ff5d8e"/>
    <polygon points="832.6 285.73 836.37 285.73 836.37 305.97 832.6 305.97 832.6 285.73" style="fill:#eaefff"/>
    <polygon points="838.77 286.76 848.03 286.76 854.89 303.57 845.63 303.57 838.77 286.76" style="fill:#ffbf29"/>
    <path d="M905.92,352.23a5.21,5.21,0,0,0-1.81,1.08,2.27,2.27,0,0,0-.74,1.52l6.94,16.6a2.29,2.29,0,0,1,.8-1.52,5.26,5.26,0,0,1,1.67-.88Z" transform="translate(-67.16 -65.46)" style="fill:#f5ac00"/>
    <path d="M912.78,369h9.05a18.46,18.46,0,0,0-1.64,1.2,9.22,9.22,0,0,0-1.1,1.2h-8.78a2.29,2.29,0,0,1,.8-1.52A5.17,5.17,0,0,1,912.78,369Z" transform="translate(-67.16 -65.46)" style="fill:#eff3ff"/>
    <path d="M902.37,315.05h13.76a.81.81,0,0,1,.81.81v18.63a.81.81,0,0,1-.81.81H902.37a.81.81,0,0,1-.81-.81V315.86A.81.81,0,0,1,902.37,315.05Z" transform="translate(-67.16 -65.46)" style="fill:#b34ee6"/>
    <path d="M902.37,315.05h2.83V335.3h-2.83a.81.81,0,0,1-.81-.81V315.86A.81.81,0,0,1,902.37,315.05Z" transform="translate(-67.16 -65.46)" style="fill:#cf6fff"/>
    <polygon points="834.81 249.59 837.64 249.59 837.64 269.84 834.81 269.84 834.81 249.59" style="fill:#eaefff"/>
    <rect x="838.86" y="247.97" width="15.38" height="21.86" style="fill:#40b955"/>
    <path d="M906.82,313.44h2.84V335.3h-2.84a.81.81,0,0,1-.81-.81V314.25A.81.81,0,0,1,906.82,313.44Z" transform="translate(-67.16 -65.46)" style="fill:#4ed266"/>
    <path d="M797,402.22h5.38q-.06,6.19.6,6.91c.44.48,2.64,1.67,6.58,3.56l-11.37-1.49Z" transform="translate(-67.16 -65.46)" style="fill:#616988"/>
    <path d="M797.76,409.59c-.22,0-.45,1.13-.45,2.08V415a.15.15,0,0,0,.14.15h3.95a.15.15,0,0,0,.15-.15h0v-.76h0a45.07,45.07,0,0,0,5.58,1c.82,0,5.5-.61,6.22-1.19s-.16-1.71-1-1.71a11.64,11.64,0,0,1-4-.92c-1-.52-3.33-2.46-3.71-2.46s-.65,1.58-.41,1.79a7.79,7.79,0,0,1,.62.67Q798,409.59,797.76,409.59Z" transform="translate(-67.16 -65.46)" style="fill:#642f14"/>
    <path d="M782.18,326.8l9.33,41.67q-.56,6.25-.55,10.68t6,26.66h6.12l-4-79Z" transform="translate(-67.16 -65.46)" style="fill:#b7c3d1"/>
    <path d="M795.39,403.26h7.74a.15.15,0,0,1,.15.15v2.85a.15.15,0,0,1-.15.15h-7.06a.16.16,0,0,1-.15-.12l-.68-2.84a.15.15,0,0,1,.11-.18Z" transform="translate(-67.16 -65.46)" style="fill:#9da9b6"/>
    <path d="M771.86,402.22h5.38c-1,4.13-1.33,6.43-.89,6.91s2.63,1.67,6.58,3.56l-11.37-1.49Z" transform="translate(-67.16 -65.46)" style="fill:#616988"/>
    <path d="M771.12,409.59c-.21,0-.45,1.13-.45,2.08V415a.15.15,0,0,0,.15.15h3.95a.15.15,0,0,0,.15-.15h0v-.76h0a45.08,45.08,0,0,0,5.57,1c.82,0,5.51-.61,6.23-1.19s-.16-1.71-1-1.71a11.69,11.69,0,0,1-4-.92c-1-.52-3.32-2.46-3.7-2.46s-.65,1.58-.42,1.79a6.45,6.45,0,0,1,.62.67Q771.35,409.59,771.12,409.59Z" transform="translate(-67.16 -65.46)" style="fill:#823e1d"/>
    <path d="M774.69,327l-1.59,40.17a39.8,39.8,0,0,0-2,11.13q0,4.42-.7,27.71h7.33l13.69-79Z" transform="translate(-67.16 -65.46)" style="fill:#ccd8e7"/>
    <polygon points="718.82 262.94 714.21 269.46 714.88 262.96 718.82 262.94" style="fill:#0b5e59"/>
    <path d="M782.14,328l-4.63,40.53a77.55,77.55,0,0,0-2.07,10.59q-.72,5.57-2.21,26.87" transform="translate(-67.16 -65.46)" style="fill:none;stroke:#71b6c2;stroke-width:0.554400026798248px"/>
    <path d="M769.61,403.71h8.95a.15.15,0,0,1,.15.15v0l-.4,2.39a.15.15,0,0,1-.15.13h-8.55a.15.15,0,0,1-.15-.15v-2.4A.15.15,0,0,1,769.61,403.71Z" transform="translate(-67.16 -65.46)" style="fill:#afbbca"/>
    <path d="M801.27,301.79l3.39,6.64,12.46-12a.28.28,0,0,0,.09-.18l.52-4.49h0q3-4.77,3.44-3c.18.65-1.35,1.41-1.06,3.53q.07.47,4.59-2.69a.3.3,0,0,1,.42.07.37.37,0,0,1,0,.23l-1,4.95a.28.28,0,0,1-.11.17l-4.53,3.79h0L808,314.58a4.2,4.2,0,0,1-5.86.9,4.32,4.32,0,0,1-1.17-1.31l-5.47-9.64h0Z" transform="translate(-67.16 -65.46)" style="fill:#ffc4a7"/>
    <path d="M822.43,284.55l5.89.93a1,1,0,0,1,.83,1.15l-2.38,15a1,1,0,0,1-1.14.83l-5.89-.94a1,1,0,0,1-.83-1.14l2.38-15A1,1,0,0,1,822.43,284.55Z" transform="translate(-67.16 -65.46)" style="fill:#f5ac00"/>
    <rect x="826.45" y="282.53" width="1.62" height="5.83" transform="translate(348.77 992.41) rotate(-81)" style="fill:#ffbf29"/>
    <path d="M822.86,284.9l10.37,1.64a1,1,0,0,1,.83,1.14l-2.38,15a1,1,0,0,1-1.14.83l-10.37-1.65a1,1,0,0,1-.83-1.14l2.38-15A1,1,0,0,1,822.86,284.9Z" transform="translate(-67.16 -65.46)" style="fill:#ffbf29"/>
    <polygon points="755.17 219.89 766.37 221.66 763.93 237.02 752.74 235.24 755.17 219.89" style="fill:#fff"/>
    <rect x="827.41" y="282.68" width="1.62" height="5.83" transform="translate(349.43 993.48) rotate(-81)" style="fill:#ffbf29"/>
    <path d="M828.49,288.58a.32.32,0,0,1-.07.64h0l-5.27-.84a.32.32,0,0,1,.06-.64h0Z" transform="translate(-67.16 -65.46)" style="fill:#a7c3ff"/>
    <rect x="830" y="288.49" width="1.94" height="1.94" transform="translate(347.92 999.46) rotate(-81)" style="fill:#a7c3ff"/>
    <path d="M828,291.78a.32.32,0,0,1,.27.37.32.32,0,0,1-.33.27h0l-5.28-.84a.32.32,0,0,1-.27-.37.32.32,0,0,1,.33-.27h0Z" transform="translate(-67.16 -65.46)" style="fill:#a7c3ff"/>
    <path d="M827.47,295a.32.32,0,0,1-.06.64h0l-5.28-.84a.33.33,0,0,1-.27-.37.33.33,0,0,1,.34-.27h0Z" transform="translate(-67.16 -65.46)" style="fill:#a7c3ff"/>
    <path d="M793.63,291.57l-.67.32a3.9,3.9,0,0,0-1.79,5.21l.12.22,9.92,17.39a3.74,3.74,0,0,0,5.1,1.4,3.53,3.53,0,0,0,.75-.57l3.06-3h0l-3-7.14L805.3,307l-6.45-13.58a3.89,3.89,0,0,0-5.18-1.85Z" transform="translate(-67.16 -65.46)" style="fill:#13a199"/>
    <polygon points="730.65 233.56 734.09 249.21 731.02 243.86 730.65 233.56" style="fill:#080708;fill-opacity:0.340226173400879"/>
    <path d="M775.83,290.9l10.76-1.18h0l8.09,1.13a3.3,3.3,0,0,1,2.82,3l2.78,33.59h0l-1.49.54-.14.95H774.86l-.21-.84-1.76-.65V294.17A3.29,3.29,0,0,1,775.83,290.9Z" transform="translate(-67.16 -65.46)" style="fill:#13a199"/>
    <path d="M786.59,289.72l4.46.62v.13q0,2.19-3,5.06-4.91-2.73-5-4.92a4.36,4.36,0,0,1,0-.51Z" transform="translate(-67.16 -65.46)" style="fill:#0b5e59"/>
    <polygon points="711.57 233.56 705.8 252.48 705.8 241.27 711.57 233.56" style="fill:#080708;fill-opacity:0.340226173400879"/>
    <path d="M787.92,306.25q2-4.11,2.76-4.06c.48,0,.28,1.35-.62,3.95Z" transform="translate(-67.16 -65.46)" style="fill:#ffc4a7"/>
    <path d="M797.72,302.89c1.1,0,1.66.09,1.69.25s-.5.4-1.56.71l-9,1.7a.47.47,0,0,1-.54-.37v0a.51.51,0,0,1,.4-.58l9-1.69Z" transform="translate(-67.16 -65.46)" style="fill:#0a2650"/>
    <path d="M773.26,306.2l-3.21,5.89q26.16-8.77,26.4-8.38c.4.66-2.06,1.86-2.7,2.66s0,3-.69,3.86c-.31.37-3.49.37-4.55.37-.45,0-5.48,2.17-13.2,6.14q-.88.45-4.53,2a5.39,5.39,0,0,1-7-7.24l4-8.51h0Z" transform="translate(-67.16 -65.46)" style="fill:#ffc4a7"/>
    <path d="M778,291.47l.66.4a3.89,3.89,0,0,1,1.38,5.25l-7.57,13.4h1.14v7.14l-3.6,1.3a5.24,5.24,0,0,1-6.5-7.2l9-18.64a3.89,3.89,0,0,1,5.19-1.82Z" transform="translate(-67.16 -65.46)" style="fill:#13a199"/>
    <path d="M787.4,293a2.63,2.63,0,0,0,2.63-2.63,1.51,1.51,0,0,0,0-.3l-.26-2.29h0q3.51.27,4.69-1.42.9-1.28,1-8.94a5.54,5.54,0,0,0-5.45-5.62h-1.14a5.54,5.54,0,0,0-5.54,5.53v1.58c-2.36.7-1.88,3.93,1.12,3.93V290A3,3,0,0,0,787.4,293Z" transform="translate(-67.16 -65.46)" style="fill:#ffc4a7"/>
    <path d="M784.47,278.91l.4,2.15a.35.35,0,0,0,.35.29.39.39,0,0,0,.38-.29c.26-.94.45-1.57.57-1.9a10.86,10.86,0,0,1,.85-1.57h0a2.57,2.57,0,0,1,2.27-1.22c1.21.05,2.34.07,3.38.07,1.35,0,2.26,0,2.72-.07h0a.14.14,0,0,0,.13-.1q1-3-.95-4.3-1.67-1.11-7-.86a5.19,5.19,0,0,0-4.26,7.78h0l1-.11A.17.17,0,0,1,784.47,278.91Z" transform="translate(-67.16 -65.46)" style="fill:#546a8b"/>
    <path d="M791.88,283.24a5.72,5.72,0,0,1,1.45-.19,5.6,5.6,0,0,1,1.4.18.5.5,0,0,1,.37.49.27.27,0,0,1-.27.27h-.08a5.59,5.59,0,0,0-1.42-.19,5.72,5.72,0,0,0-1.47.2.28.28,0,0,1-.34-.2.17.17,0,0,1,0-.07A.49.49,0,0,1,791.88,283.24Z" transform="translate(-67.16 -65.46)" style="fill:#546a8b"/>
    <path d="M791.38,283.4l.44-.14h0l.29.06v3h-1.05v-2.51A.45.45,0,0,1,791.38,283.4Z" transform="translate(-67.16 -65.46)" style="fill:#546a8b"/>
    <path d="M791.06,285.74h4.19v.6a1.63,1.63,0,0,1-1.64,1.64h-.9a1.64,1.64,0,0,1-1.65-1.64v-.6Z" transform="translate(-67.16 -65.46)" style="fill:#546a8b"/>
    <path d="M794.65,283.31h.15a.45.45,0,0,1,.45.45v2.58h-.6Z" transform="translate(-67.16 -65.46)" style="fill:#546a8b"/>
    <path d="M789.79,287.73a10.77,10.77,0,0,1-1.84-.39,12.48,12.48,0,0,1-1.81-.76,27.54,27.54,0,0,0,2.1,1.91,12.07,12.07,0,0,0,1.73,1.13Z" transform="translate(-67.16 -65.46)" style="fill:#f19b93"/>
    <path d="M793.62,279.19l1.51,2.95a.15.15,0,0,1-.07.2h0l-1.41.38h0Z" transform="translate(-67.16 -65.46)" style="fill:#f19b93"/>
    <polygon points="673.22 336.3 678.61 336.3 679.95 345.28 675.01 345.28 673.22 336.3" style="fill:#616988"/>
    <path d="M741.12,409.94v3.79h16.31a2.17,2.17,0,0,0-1.7-2.12c-4.39-1-6.87-1.76-7.41-2.36-.93-1-2.23.36-3.37.81-.66.27-1.73.09-3.2-.53a.45.45,0,0,0-.59.24A.47.47,0,0,0,741.12,409.94Z" transform="translate(-67.16 -65.46)" style="fill:#111f53"/>
    <polygon points="673.97 347.53 690.28 347.53 690.28 348.87 673.97 348.87 673.97 347.53" style="fill:#525151"/>
    <path d="M740.24,404.78h6.27l-2.29-34.19L736,329.66h-16.7l15,40.93a54.75,54.75,0,0,0,.56,12.37Q735.72,387.85,740.24,404.78Z" transform="translate(-67.16 -65.46)" style="fill:#525151"/>
    <polygon points="633.33 333.55 638.29 335.66 634.84 343.69 630.29 341.76 633.33 333.55" style="fill:#7680a4"/>
    <path d="M697,405.6l-1.48,3.49h0l9.82,4.17,5.19.11a1.34,1.34,0,0,0-.71-1.76,1.58,1.58,0,0,0-.31-.09,6.25,6.25,0,0,1-2.53-.76q-2.81-2.17-3.09-3c-.46-1.29-2.19-.54-3.42-.56-.71,0-1.63-.59-2.74-1.74a.44.44,0,0,0-.63,0A.44.44,0,0,0,697,405.6Z" transform="translate(-67.16 -65.46)" style="fill:#1b2e76"/>
    <polygon points="628.26 343.59 638.18 347.68 643.59 347.69 643.66 348.94 637.71 348.95 627.73 344.83 628.26 343.59" style="fill:#6b6b6b"/>
    <path d="M712.53,329.66l-2.62,39.86a35.58,35.58,0,0,0-4.71,8.76c-1.34,3.36-3.64,10.86-6.61,22.49q-.29,1.1,6.46,3.41l16-33.67,8.48-40.85Z" transform="translate(-67.16 -65.46)" style="fill:#6b6b6b"/>
    <polygon points="653.6 264.18 648.98 270.71 649.65 264.21 653.6 264.18" style="fill:#282828"/>
    <path d="M716.78,329.81l-3.84,40.06a.09.09,0,0,1,0,.05L699.84,402.1h0" transform="translate(-67.16 -65.46)" style="fill:none;stroke:#0d0d0d;stroke-width:0.554400026798248px"/>
    <path d="M739.59,305.19l3.45,8.37,1.63-11.76c.21-1.47.32-2.29.35-2.46.11-.64-.65-2-.74-3.35v-.21c-.1-1.34-.55-2.94-.49-3.39s.68-.16,1.06.14c.84.68.78,1.59,1.32,2.71.19.4,2-3.61,2.71-3.61s2.91,3.43,2.91,4.51c0,.72-1.07,2.17-3.23,4.35l-.81,18.58a4.19,4.19,0,0,1-7.94,1.68l-6.26-12.67Z" transform="translate(-67.16 -65.46)" style="fill:#ffc4a7"/>
    <path d="M731.5,295.19l-.72.35a3.89,3.89,0,0,0-1.79,5.2v0l9.84,19.77a4.94,4.94,0,0,0,9.29-1.34l.41-2.36h0l-5.14-6.75-.67,1.16-5.94-14.08a3.89,3.89,0,0,0-5.1-2.07A1.63,1.63,0,0,0,731.5,295.19Z" transform="translate(-67.16 -65.46)" style="fill:#282828"/>
    <path d="M713.91,294.49l10.61-1.17h0l8.24,1.14a3.3,3.3,0,0,1,2.83,3L738.36,331H711V297.77A3.3,3.3,0,0,1,713.91,294.49Z" transform="translate(-67.16 -65.46)" style="fill:#ffa400"/>
    <polygon points="649.22 236.84 643.82 256.54 643.82 245.32 649.22 236.84" style="fill:#080708;fill-opacity:0.340226173400879"/>
    <path d="M743.14,298.46H756.3a1.84,1.84,0,0,1,1.84,1.83V322a1.84,1.84,0,0,1-1.84,1.84H743.14Z" transform="translate(-67.16 -65.46)" style="fill:#c8daff"/>
    <path d="M722,298.46h22.34a1.83,1.83,0,0,1,1.84,1.83V322a1.84,1.84,0,0,1-1.84,1.84H722a1.84,1.84,0,0,1-1.84-1.84V300.29A1.84,1.84,0,0,1,722,298.46Z" transform="translate(-67.16 -65.46)" style="fill:#a7c3ff"/>
    <rect x="655.48" y="249.52" width="7.96" height="2.14" style="fill:#95b2ee"/>
    <path d="M723.7,318.66h8.88a1.07,1.07,0,0,1,0,2.14H723.7a1.07,1.07,0,0,1,0-2.14Z" transform="translate(-67.16 -65.46)" style="fill:#95b2ee"/>
    <polygon points="663.13 232.99 668.02 232.99 668.02 239.12 667.41 238.5 666.8 239.12 666.19 238.5 665.58 239.12 664.96 238.5 664.35 239.12 663.74 238.5 663.13 239.12 663.13 232.99" style="fill:#95b2ee"/>
    <path d="M711.58,309.89l-3.21,5.89q12.45,4.83,16.46,5.94c1.38.39,3.17-3.11,5.19-2.6.78.19-2.29,3-.82,3.26,3.27.58,5.79,1.13,6,1.83.29.86-3.32,2.92-4.92,3.17-.88.14-3.45-.78-6.55-1.61q-2.91-.78-17.76-4a5.38,5.38,0,0,1-4.13-6.4,5.67,5.67,0,0,1,.46-1.31l3.77-7.43h0Z" transform="translate(-67.16 -65.46)" style="fill:#ffc4a7"/>
    <path d="M716.25,295.1l.72.43a3.9,3.9,0,0,1,1.35,5.31l-8.46,14.38h0l1.42,1-4,7.31-4.4-2.42a4.34,4.34,0,0,1-1.77-5.8l9.7-18.7A3.88,3.88,0,0,1,716,295Z" transform="translate(-67.16 -65.46)" style="fill:#282828"/>
    <path d="M725.72,297.21a2.63,2.63,0,0,0,2.63-2.63c0-.1,0-.2,0-.3l-.27-2.3h0c2.34.19,3.9-.28,4.7-1.41s1.13-5.14,1-12h-11V283c-3.36,0-3.36,4.06,0,4.06v7.21A3,3,0,0,0,725.72,297.21Z" transform="translate(-67.16 -65.46)" style="fill:#ffc4a7"/>
    <path d="M728,290.69a12.81,12.81,0,0,1-1.84-.39,12.64,12.64,0,0,1-1.81-.77c.91.89,1.61,1.53,2.09,1.91a12.35,12.35,0,0,0,1.73,1.13Z" transform="translate(-67.16 -65.46)" style="fill:#f19b93"/>
    <path d="M729.08,288.05l2.73-.44a.25.25,0,0,1,.12,0l1.51.4a.13.13,0,0,1,.11.16l0,.27a.29.29,0,0,1-.33.25,2.52,2.52,0,0,1-1.32-.5,5.76,5.76,0,0,1-2.64.52Z" transform="translate(-67.16 -65.46)" style="fill:#0a2650"/>
    <path d="M724.11,282.57l.15,2.62a3.14,3.14,0,0,0,3.32,3h0l1.48-.1h0l1.12,2.56a.31.31,0,0,0,.28.18h1.82a.31.31,0,0,0,.29-.21l.74-2.38h.15l-.45,3.49a1.47,1.47,0,0,1-1.46,1.27h-1a1.61,1.61,0,0,1-.65-.13l-4.73-2.07a2.24,2.24,0,0,1-1.34-1.84l-.67-7h0Z" transform="translate(-67.16 -65.46)" style="fill:#0a2650"/>
    <path d="M731.49,283.82v2.91h1.65a.15.15,0,0,0,.15-.15.07.07,0,0,0,0-.05,6,6,0,0,0-.89-1.74C732.07,284.42,731.77,284.09,731.49,283.82Z" transform="translate(-67.16 -65.46)" style="fill:#f19b93"/>
    <path d="M719.8,279.16c0-.43,4.85-4.35,7.23-4.58,1.93-.18,4.63,1.47,5.84,1.47a3.92,3.92,0,0,0,2.61-1q1.68,3.21.79,4.47c-.9,1.27-2.61,2.23-4,1.91S728.52,280,727,280c-1.84,0-2.81,1-2.9,3h-1.38a3.12,3.12,0,0,0-1.77.53A37.47,37.47,0,0,1,719.8,279.16Z" transform="translate(-67.16 -65.46)" style="fill:#0a2650"/>
    <polygon points="792.69 337.47 787.3 337.47 786.56 344.95 791.5 344.95 792.69 337.47" style="fill:#616988"/>
    <path d="M859.4,407v7.93H842.79v-1.16a4.31,4.31,0,0,1,3.86-1.85c2.64,0,5.23-.63,6.15-1.64a5.05,5.05,0,0,0,1-3.28Z" transform="translate(-67.16 -65.46)" style="fill:#4f2511"/>
    <rect x="775.63" y="348.69" width="16.61" height="1.35" style="fill:#34180a"/>
    <path d="M873.69,327.23l-9.33,41.67c.36,4.17.55,7.73.55,10.68s-1.37,11.84-4.1,26.66h-8.07l4-79Z" transform="translate(-67.16 -65.46)" style="fill:#203584"/>
    <polygon points="817.08 337.62 811.7 337.62 812.59 345.1 817.53 345.1 817.08 337.62" style="fill:#7680a4"/>
    <path d="M884.69,407.11,885,415H868.38v-1.16a3.61,3.61,0,0,1,3.56-1.85c2.64,0,5.23-.63,6.15-1.64a5.11,5.11,0,0,0,1-3.28Z" transform="translate(-67.16 -65.46)" style="fill:#823e1d"/>
    <rect x="801.22" y="348.84" width="16.61" height="1.35" style="fill:#4f2511"/>
    <path d="M881.17,327.38l1.59,40.17a39.5,39.5,0,0,1,2,11.13q0,4.43.69,27.71h-7.32l-13.69-79Z" transform="translate(-67.16 -65.46)" style="fill:#2e47a6"/>
    <polygon points="802.73 264.27 807.35 270.79 806.67 264.29 802.73 264.27" style="fill:#203584"/>
    <path d="M873.73,328.4l4.62,40.53a79.09,79.09,0,0,1,2.08,10.59q.72,5.57,2.2,26.87" transform="translate(-67.16 -65.46)" style="fill:none;stroke:#98abf4;stroke-width:0.554400026798248px"/>
    <path d="M854.24,303.14l-3.45,8.38-1.63-11.76c-.2-1.47-.32-2.29-.35-2.46-.11-.65.65-2,.74-3.36l0-.2c.09-1.34.55-2.94.48-3.39s-.67-.17-1,.14c-.85.67-.79,1.59-1.32,2.71-.19.4-2-3.61-2.72-3.61s-2.91,3.42-2.91,4.51q0,1.08,3.23,4.35l.81,18.58A4.19,4.19,0,0,0,854,318.7L860.3,306Z" transform="translate(-67.16 -65.46)" style="fill:#ffc4a7"/>
    <path d="M862.14,293.05l.94.46a3.89,3.89,0,0,1,1.79,5.2l-5.84,12h0l-7.93-3.87,5.84-12A3.89,3.89,0,0,1,862.14,293.05Z" transform="translate(-67.16 -65.46)" style="fill:#ff4f4f"/>
    <line x1="783.63" y1="246.06" x2="784.29" y2="249.97" style="fill:none;stroke:#e49a76;stroke-linecap:round;stroke-width:0.739199995994568px"/>
    <polygon points="791 235.55 787.8 243.22 790.11 244.37 791 235.55" style="fill:#080708;fill-opacity:0.221263110637665"/>
    <path d="M879.92,292.45l-10.61-1.17h0l-8.23,1.14a3.28,3.28,0,0,0-2.83,3L855.47,329h0l27.39,1.49V295.72A3.31,3.31,0,0,0,879.92,292.45Z" transform="translate(-67.16 -65.46)" style="fill:#ff4f4f"/>
    <polygon points="810.3 234.79 815.7 254.5 815.7 243.28 810.3 234.79" style="fill:#080708;fill-opacity:0.221263110637665"/>
    <path d="M873.22,319.91H851.36a.81.81,0,0,0-.81.81v2.43a.81.81,0,0,0,.81.81h21.86a.81.81,0,0,0,.81-.81v-2.43A.81.81,0,0,0,873.22,319.91Z" transform="translate(-67.16 -65.46)" style="fill:#f5ac00"/>
    <path d="M873.22,319.91H861.48a.81.81,0,0,0-.81.81v2.43a.81.81,0,0,0,.81.81h11.74a.81.81,0,0,0,.81-.81v-2.43A.81.81,0,0,0,873.22,319.91Z" transform="translate(-67.16 -65.46)" style="fill:#ffbf29"/>
    <path d="M872.49,320.32H851a.4.4,0,0,0-.4.4v2.43a.4.4,0,0,0,.4.41h21.54a.73.73,0,0,0,.73-.73v-1.78A.73.73,0,0,0,872.49,320.32Z" transform="translate(-67.16 -65.46)" style="fill:#eaefff"/>
    <path d="M859.94,320.32h-9a.4.4,0,0,0-.4.4v2.43a.4.4,0,0,0,.4.41h9a.73.73,0,0,0,.73-.73v-1.78A.73.73,0,0,0,859.94,320.32Z" transform="translate(-67.16 -65.46)" style="fill:#c1d7ff"/>
    <path d="M874.43,315.86H852.57a.81.81,0,0,0-.81.81v2.43a.81.81,0,0,0,.81.81h21.86a.81.81,0,0,0,.81-.81v-2.43A.81.81,0,0,0,874.43,315.86Z" transform="translate(-67.16 -65.46)" style="fill:#ff326f"/>
    <path d="M874.43,315.86H862.69a.82.82,0,0,0-.81.81v2.43a.81.81,0,0,0,.81.81h11.74a.81.81,0,0,0,.81-.81v-2.43A.81.81,0,0,0,874.43,315.86Z" transform="translate(-67.16 -65.46)" style="fill:#ff5d8e"/>
    <path d="M873.7,316.27H852.17a.4.4,0,0,0-.41.4v2.43a.41.41,0,0,0,.41.41H873.7a.73.73,0,0,0,.73-.73V317A.73.73,0,0,0,873.7,316.27Z" transform="translate(-67.16 -65.46)" style="fill:#eaefff"/>
    <path d="M861.15,316.27h-9a.4.4,0,0,0-.41.4v2.43a.41.41,0,0,0,.41.41h9a.73.73,0,0,0,.73-.73V317A.73.73,0,0,0,861.15,316.27Z" transform="translate(-67.16 -65.46)" style="fill:#c1d7ff"/>
    <path d="M882.25,308.15l3.22,5.89Q873,318.87,869,320c-1.39.39-3.18-3.11-5.2-2.61-.78.2,2.29,3,.83,3.27-3.27.57-5.79,1.13-6,1.83s3.32,2.92,4.92,3.17c.88.13,3.45-.79,6.55-1.61q2.92-.78,17.76-4a5.39,5.39,0,0,0,4.13-6.4,5,5,0,0,0-.46-1.31l-3.77-7.43h0Z" transform="translate(-67.16 -65.46)" style="fill:#ffc4a7"/>
    <path d="M877.8,293.23l-.9.54a3.89,3.89,0,0,0-1.33,5.34l6.86,11.41h0L890,306l-6.86-11.41A3.88,3.88,0,0,0,877.8,293.23Z" transform="translate(-67.16 -65.46)" style="fill:#ff4f4f"/>
    <path d="M869,294.7a2.63,2.63,0,0,1-2.63-2.63,1.51,1.51,0,0,1,0-.3l.26-2.29h0q-3.51.27-4.69-1.42t-1-10.52h11v2.95c3.37,0,3.37,4.06,0,4.06v7.2A3,3,0,0,1,869,294.7Z" transform="translate(-67.16 -65.46)" style="fill:#ffc4a7"/>
    <path d="M866.62,289.49a11.77,11.77,0,0,0,1.84-.4,12.48,12.48,0,0,0,1.81-.76c-.91.89-1.61,1.53-2.09,1.91a12.81,12.81,0,0,1-1.74,1.13Z" transform="translate(-67.16 -65.46)" style="fill:#f19b93"/>
    <path d="M872,280.49l-.26,2.46a.34.34,0,0,1-.34.3.42.42,0,0,1-.4-.28l-1.16-3.2a2.85,2.85,0,0,0-2.68-1.88h-6.19a13.87,13.87,0,0,1-1.82-2.42,22.06,22.06,0,0,1-1.13-2.58q8.67-2,11-1.41a3.83,3.83,0,0,1,2.94,3,4,4,0,0,1,2.81,2.16c.41,1,.12,2.54-.87,4.55a2.23,2.23,0,0,0-1.06-.56A7.64,7.64,0,0,0,872,280.49Z" transform="translate(-67.16 -65.46)" style="fill:#8a5835"/>
    <path d="M862.79,280.94l-1.51,2.95a.16.16,0,0,0,.07.2h0l1.41.38h0Z" transform="translate(-67.16 -65.46)" style="fill:#f19b93"/>
    <path d="M879.09,391.57h13.16a1.84,1.84,0,0,1,1.84,1.84v21.73a1.84,1.84,0,0,1-1.84,1.84H879.09Z" transform="translate(-67.16 -65.46)" style="fill:#c8daff"/>
    <path d="M858,391.57h22.35a1.83,1.83,0,0,1,1.83,1.84v21.73a1.84,1.84,0,0,1-1.83,1.84H858a1.84,1.84,0,0,1-1.83-1.84V393.41A1.83,1.83,0,0,1,858,391.57Z" transform="translate(-67.16 -65.46)" style="fill:#a7c3ff"/>
    <path d="M856.91,391.57h24.74a.61.61,0,0,1,.61.61.47.47,0,0,1,0,.17l-2.59,9.34a1.23,1.23,0,0,1-1.18.9H854.19a.61.61,0,0,1-.62-.61.41.41,0,0,1,0-.16l2.72-9.8A.61.61,0,0,1,856.91,391.57Z" transform="translate(-67.16 -65.46)" style="fill:#95b2ee"/>
    <path d="M893.32,391.57H882.65a.61.61,0,0,0-.61.61.88.88,0,0,0,0,.17l2.6,9.34a1.22,1.22,0,0,0,1.18.9H896a.61.61,0,0,0,.61-.61.78.78,0,0,0,0-.16l-2.72-9.8A.63.63,0,0,0,893.32,391.57Z" transform="translate(-67.16 -65.46)" style="fill:#a7c3ff"/>
    <rect x="791.43" y="342.64" width="7.96" height="2.14" style="fill:#95b2ee"/>
    <path d="M859.66,411.77h8.87a1.08,1.08,0,0,1,0,2.15h-8.87a1.08,1.08,0,1,1,0-2.15Z" transform="translate(-67.16 -65.46)" style="fill:#95b2ee"/>
    <path d="M633,251.9H736.73a.67.67,0,0,1,.68.68v3.74a.68.68,0,0,1-.68.68H633a.68.68,0,0,1-.68-.68v-3.74A.67.67,0,0,1,633,251.9Z" transform="translate(-67.16 -65.46)" style="fill:#9ab9fa"/>
    <polygon points="597 191.53 588 204.3 588 191.53 597 191.53" style="fill:#9ab9fa"/>
    <polygon points="598.16 189.84 603.26 189.84 593.06 204.46 587.96 204.46 598.16 189.84" style="fill:#c8daff"/>
    <polygon points="655.15 191.53 646.15 204.3 646.15 191.53 655.15 191.53" style="fill:#9ab9fa"/>
    <polygon points="656.32 189.84 661.42 189.84 651.21 204.46 646.11 204.46 656.32 189.84" style="fill:#c8daff"/>
    <path d="M650,251.9h93.53a.68.68,0,0,1,.68.68v3.74a.69.69,0,0,1-.68.68H650a.69.69,0,0,1-.68-.68v-3.74A.68.68,0,0,1,650,251.9Z" transform="translate(-67.16 -65.46)" style="fill:#c8daff"/>
    <path d="M717.13,247.68h-4.76v4.07h4.76a3.43,3.43,0,0,0,0-4.07Z" transform="translate(-67.16 -65.46)" style="fill:#eff3ff"/>
    <rect x="644.88" y="181.81" width="25.12" height="0.4" style="fill:#ffbf29"/>
    <rect x="644.88" y="186.22" width="25.12" height="0.4" style="fill:#ffbf29"/>
    <path d="M717.13,247.68h20.36a3.39,3.39,0,0,1,0,4.07H717.13a3.43,3.43,0,0,0,0-4.07Z" transform="translate(-67.16 -65.46)" style="fill:#ffbf29"/>
    <path d="M714.75,242.92H710V247h4.75a3.4,3.4,0,0,0,0-4.08Z" transform="translate(-67.16 -65.46)" style="fill:#eff3ff"/>
    <rect x="642.5" y="177.06" width="25.12" height="0.4" style="fill:#1075f0"/>
    <rect x="642.5" y="181.47" width="25.12" height="0.4" style="fill:#1075f0"/>
    <path d="M714.75,242.92h20.37a3.4,3.4,0,0,1,0,4.08H714.75a3.4,3.4,0,0,0,0-4.08Z" transform="translate(-67.16 -65.46)" style="fill:#1075f0"/>
    <polygon points="632.18 172.96 629.69 172.96 629.69 178.57 632.18 178.57 632.18 172.96" style="fill:#a7c3ff"/>
    <path d="M702.15,228.29h3.3a1.09,1.09,0,0,1,1.1,1.09,1.23,1.23,0,0,1,0,.2,18,18,0,0,1-1.46,5.1,3,3,0,0,1-2.94,1.48l0-.93a2.09,2.09,0,0,0,2.09-1,17.48,17.48,0,0,0,1.35-4.8v0a.16.16,0,0,0-.16-.15h-3.3Z" transform="translate(-67.16 -65.46)" style="fill:#d9e1ff"/>
    <path d="M704.33,227.2H691.86l.75,7.51a5.51,5.51,0,0,0,11,0l.75-7.51Z" transform="translate(-67.16 -65.46)" style="fill:#d9e1ff"/>
    <path d="M694.35,234.06a28.86,28.86,0,0,0,1.4,5.09,5.33,5.33,0,0,0,1.42.44,27.92,27.92,0,0,1-1.57-5.53,41.63,41.63,0,0,1-.62-6.86h-1.25A41.63,41.63,0,0,0,694.35,234.06Z" transform="translate(-67.16 -65.46)" style="fill:#a7c3ff"/>
    <path d="M692.34,228.29h-1.59a1.09,1.09,0,0,0-1.09,1.09,1.27,1.27,0,0,0,0,.2,18,18,0,0,0,1.46,5.1,3.7,3.7,0,0,0,2.48,1.38.36.36,0,0,0,.44-.27.33.33,0,0,0,0-.1.6.6,0,0,0-.46-.55,2.44,2.44,0,0,1-1.65-.93,17.48,17.48,0,0,1-1.35-4.8v0a.16.16,0,0,1,.16-.15h1.59a.47.47,0,1,0,0-.94Z" transform="translate(-67.16 -65.46)" style="fill:#d9e1ff"/>
    <polygon points="639.04 177.33 622.61 177.33 622.61 186.68 639.04 186.68 639.04 177.33" style="fill:#a7c3ff"/>
    <rect x="630.31" y="177.33" width="8.73" height="9.35" style="fill:#d9e1ff"/>
    <rect x="631.35" y="178.4" width="6.86" height="6.86" style="fill:#a7c3ff"/>
    <polygon points="626.9 166.3 614.21 166.3 614.21 186.53 626.9 186.53 626.9 166.3" style="fill:#1075f0"/>
    <polygon points="626.9 166.3 623.13 166.3 623.13 186.53 626.9 186.53 626.9 166.3" style="fill:#eaefff"/>
    <polygon points="620.73 167.33 611.47 167.33 604.61 184.13 613.87 184.13 620.73 167.33" style="fill:#b34ee6"/>
    <path d="M687.88,232.79a5.49,5.49,0,0,1,1.82,1.08,2.24,2.24,0,0,1,.73,1.52L683.5,252a2.27,2.27,0,0,0-.8-1.52,5.12,5.12,0,0,0-1.68-.88Z" transform="translate(-67.16 -65.46)" style="fill:#cf6fff"/>
    <path d="M681,249.6h-9a15.83,15.83,0,0,1,1.64,1.2,8.53,8.53,0,0,1,1.11,1.2h8.78a2.29,2.29,0,0,0-.8-1.52A5.12,5.12,0,0,0,681,249.6Z" transform="translate(-67.16 -65.46)" style="fill:#eff3ff"/>
    <path d="M103.07,129.57V120.2a4.82,4.82,0,0,1,1.59-3.58q10.78-9.78,10.79-19.71a24.15,24.15,0,0,0-48.29,0q0,11.27,11,19.94A4.83,4.83,0,0,1,80,120.64v8.93a7.59,7.59,0,0,0,7.59,7.59h7.94A7.59,7.59,0,0,0,103.07,129.57Z" transform="translate(-67.16 -65.46)" style="fill:#ffbf29"/>
    <path d="M84.67,99a4.91,4.91,0,0,1,4.91,4.75v2.42H93v-2.25A4.93,4.93,0,0,1,97.78,99h.29a4.79,4.79,0,0,1,.16,9.58H95.44v19.91H93V108.6H89.59v19.91H87.17V108.6H84.54A4.79,4.79,0,0,1,79.75,104v-.17A4.79,4.79,0,0,1,84.37,99h.3Zm0,2.41h-.13a2.38,2.38,0,0,0-.13,4.76h2.76v-2.25a2.5,2.5,0,0,0-2.37-2.5Zm13.4,0h-.13a2.5,2.5,0,0,0-2.5,2.38v2.38h2.63a2.38,2.38,0,0,0,2.37-2.25v-.13a2.37,2.37,0,0,0-2.24-2.37Z" transform="translate(-67.16 -65.46)" style="fill:#fff"/>
    <path d="M103.22,119a4.89,4.89,0,0,0-.15,1.21h0v9.37a7.59,7.59,0,0,1-7.59,7.59H87.54A7.59,7.59,0,0,1,80,129.57h0v-8.93a4.81,4.81,0,0,0-.29-1.65Z" transform="translate(-67.16 -65.46)" style="fill:#f5ac00"/>
    <path d="M178.3,67.46h56a2,2,0,0,1,2,2v70a2,2,0,0,1-2,2h-56a2,2,0,0,1-2-2v-70A2,2,0,0,1,178.3,67.46Z" transform="translate(-67.16 -65.46)" style="fill:#d5e4ff"/>
    <path d="M176.3,65.46h56a2,2,0,0,1,2,2v70a2,2,0,0,1-2,2h-56a2,2,0,0,1-2-2v-70A2,2,0,0,1,176.3,65.46Z" transform="translate(-67.16 -65.46)" style="fill:#ffbf29"/>
    <polygon points="153.15 56 164.15 56 164.15 79 158.65 73 153.15 79 153.15 56" style="fill:#ff326f"/>
    <circle cx="159.65" cy="51.5" r="13.5" style="fill:#ff326f"/>
    <circle cx="158.65" cy="51.5" r="13.5" style="fill:#ff5d8e"/>
    <path d="M222.12,116.39a1,1,0,0,0-1.44-.14,1,1,0,0,0-.14,1.45l3.55,4.32a1.22,1.22,0,0,0,1.72.16,1.34,1.34,0,0,0,.2-.21l5.09-6.87a1,1,0,1,0-1.64-1.22l-4.46,6Z" transform="translate(-67.16 -65.46)" style="fill:#fff"/>
    <path d="M222.26,80.15a.75.75,0,0,1,.1,1.49H185.6a.75.75,0,0,1-.1-1.5h36.76Z" transform="translate(-67.16 -65.46)" style="fill:#fff"/>
    <path d="M222.26,89.15a.75.75,0,0,1,.1,1.49H185.6a.75.75,0,0,1-.1-1.5h36.76Z" transform="translate(-67.16 -65.46)" style="fill:#fff"/>
    <path d="M222.26,99.15a.75.75,0,0,1,.1,1.49H185.6a.75.75,0,0,1-.1-1.5h36.76Z" transform="translate(-67.16 -65.46)" style="fill:#fff"/>
    <path d="M210.26,109.15a.75.75,0,0,1,.1,1.49H185.6a.75.75,0,0,1-.1-1.5h24.76Z" transform="translate(-67.16 -65.46)" style="fill:#fff"/>
    <path d="M418.3,82.93V128.5a4,4,0,0,1-4,4h-122a4,4,0,0,1-4-4V82.93a4,4,0,0,1,4-4h122A4,4,0,0,1,418.3,82.93Z" transform="translate(-67.16 -65.46)" style="fill:#d5e4ff"/>
    <path d="M412.3,77.43h-122a3.5,3.5,0,0,0-3.5,3.5V126.5a3.46,3.46,0,0,0,1,2.47,3.5,3.5,0,0,0,2.47,1h122a3.5,3.5,0,0,0,3.5-3.5V80.93a3.48,3.48,0,0,0-3.5-3.5Z" transform="translate(-67.16 -65.46)" style="fill:#fff;stroke:#d2e0ff"/>
    <path d="M327.58,92.42a1.65,1.65,0,0,1,.13.53v15.58h-.06c.12,1.68-1.24,3.51-3.39,4.38-2.52,1-5.17.33-5.93-1.54s.68-4.21,3.2-5.22a5.85,5.85,0,0,1,3.81-.27V94.3l-12.22,5.41v14.21h0a5,5,0,0,1-3.4,4.09c-2.52,1-5.17.33-5.93-1.54s.68-4.2,3.2-5.22a5.82,5.82,0,0,1,3.8-.27V99.17a1.55,1.55,0,0,1,.85-1.38l.07,0,13.87-6.13A1.55,1.55,0,0,1,327.58,92.42Z" transform="translate(-67.16 -65.46)" style="fill:#1075f0"/>
    <path d="M373.78,92.75A1.26,1.26,0,0,1,375,93.87v21.32a1.25,1.25,0,0,1-2.49.13V94A1.25,1.25,0,0,1,373.78,92.75Z" transform="translate(-67.16 -65.46)" style="fill:#467fff"/>
    <path d="M367.78,94.75A1.26,1.26,0,0,1,369,95.87v17.32a1.25,1.25,0,0,1-2.49.13V96A1.25,1.25,0,0,1,367.78,94.75Z" transform="translate(-67.16 -65.46)" style="fill:#467fff"/>
    <path d="M361.78,98.75A1.26,1.26,0,0,1,363,99.87v9.32a1.25,1.25,0,0,1-2.49.13V100A1.25,1.25,0,0,1,361.78,98.75Z" transform="translate(-67.16 -65.46)" style="fill:#467fff"/>
    <path d="M355.78,94.75A1.26,1.26,0,0,1,357,95.87v17.32a1.25,1.25,0,0,1-2.49.13V96A1.25,1.25,0,0,1,355.78,94.75Z" transform="translate(-67.16 -65.46)" style="fill:#467fff"/>
    <path d="M379.78,96.75A1.26,1.26,0,0,1,381,97.87v13.32a1.25,1.25,0,0,1-2.49.13V98A1.25,1.25,0,0,1,379.78,96.75Z" transform="translate(-67.16 -65.46)" style="fill:#467fff"/>
    <path d="M385.78,98.75A1.26,1.26,0,0,1,387,99.87v9.32a1.25,1.25,0,0,1-2.49.13V100A1.25,1.25,0,0,1,385.78,98.75Z" transform="translate(-67.16 -65.46)" style="fill:#467fff"/>
    <path d="M391.78,94.75A1.26,1.26,0,0,1,393,95.87v17.32a1.25,1.25,0,0,1-2.49.13V96A1.25,1.25,0,0,1,391.78,94.75Z" transform="translate(-67.16 -65.46)" style="fill:#467fff"/>
    <path d="M397.78,98.75A1.26,1.26,0,0,1,399,99.87v9.32a1.25,1.25,0,0,1-2.49.13V100A1.25,1.25,0,0,1,397.78,98.75Z" transform="translate(-67.16 -65.46)" style="fill:#467fff"/>
    <path d="M403.78,100.75a1.26,1.26,0,0,1,1.25,1.12v5.32a1.25,1.25,0,0,1-2.49.13V102A1.25,1.25,0,0,1,403.78,100.75Z" transform="translate(-67.16 -65.46)" style="fill:#467fff"/>
    <path d="M343.78,100.75a1.26,1.26,0,0,1,1.25,1.12v5.32a1.25,1.25,0,0,1-2.49.13V102A1.25,1.25,0,0,1,343.78,100.75Z" transform="translate(-67.16 -65.46)" style="fill:#467fff"/>
    <path d="M349.78,98.75A1.26,1.26,0,0,1,351,99.87v9.32a1.25,1.25,0,0,1-2.49.13V100A1.25,1.25,0,0,1,349.78,98.75Z" transform="translate(-67.16 -65.46)" style="fill:#467fff"/>
    <circle cx="430.63" cy="184.77" r="34.63" style="fill:#d5e4ff"/>
    <circle cx="430.63" cy="184.77" r="34.63" style="fill:#b34ee6"/>
    <path d="M507.42,232.22a1.46,1.46,0,0,1,2-.09l.11.1L521,243.83a1.48,1.48,0,0,1,.08,2l-.1.11-11.53,11.31a1.45,1.45,0,0,1-1,.42,1.47,1.47,0,0,1-1.46-1.33v-4.85l-19.21-.1a1.47,1.47,0,0,1-1.45-1.33V246l-9.26,9.5,9.26,9.24v-3.8a1.47,1.47,0,0,1,1.33-1.47h13.7a1.25,1.25,0,0,1,1.25,1.25,1.27,1.27,0,0,1-1.13,1.25H488.81v5.26a1.48,1.48,0,0,1-1.33,1.47h-.14a1.49,1.49,0,0,1-.93-.33l-.11-.1-11.74-11.7a1.48,1.48,0,0,1-.11-2l.1-.11,11.74-12.05a1.46,1.46,0,0,1,2.07,0,1.43,1.43,0,0,1,.44.91v5.56L508,249a1.47,1.47,0,0,1,1.45,1.33v3.42l9-8.86-9-9.09v3.62a1.47,1.47,0,0,1-1.33,1.47H494.7a1.25,1.25,0,0,1-.13-2.49H507v-5.08a1.45,1.45,0,0,1,.34-.94Z" transform="translate(-67.16 -65.46)" style="fill:#fff"/>
    <path d="M809.86,84.88c-5.77,0-12.07,3.08-18.71,9.14a79.56,79.56,0,0,0-7.91,8.39s3.23,3.65,6.77,7.56a78.83,78.83,0,0,1,7.87-8.48c5.9-5.4,9.75-6.5,12-6.5a15.25,15.25,0,0,1,0,30.49,5.93,5.93,0,0,1-1.44-.18,18.54,18.54,0,0,0,7.47,1.89c15.21,0,18.19-10.28,18.36-11a26,26,0,0,0,.7-5.89A25.31,25.31,0,0,0,809.86,84.88Z" transform="translate(-67.16 -65.46)" style="fill:url(#a)"/>
    <path d="M756.75,135.54c5.77,0,12.06-3.07,18.71-9.14a79.63,79.63,0,0,0,7.91-8.39s-3.24-3.65-6.78-7.56a75.94,75.94,0,0,1-7.87,8.48c-5.9,5.36-9.79,6.51-12,6.51a15.25,15.25,0,0,1,0-30.5,6.53,6.53,0,0,1,1.44.18,18.59,18.59,0,0,0-7.48-1.89c-15.21,0-18.18,10.28-18.35,11a26,26,0,0,0-.7,5.89A25.25,25.25,0,0,0,756.75,135.54Z" transform="translate(-67.16 -65.46)" style="fill:url(#b)"/>
    <path d="M768.31,100.71c-1.66-1.58-9.79-8-17.57-8.26-13.87-.34-17.94,9.53-18.29,10.8a25.21,25.21,0,0,1,24.32-19.37c9.6,0,19.29,9.22,26.46,17.53l0,0s3.24,3.65,6.78,7.56c0,0,4,4.65,8.3,8.74,1.66,1.58,9.75,8,17.53,8.17,14.25.4,18.19-10,18.4-10.81a25.22,25.22,0,0,1-24.34,19.47c-9.6,0-19.3-9.22-26.5-17.54l0,.05s-3.23-3.65-6.77-7.56C776.62,109.45,772.6,104.8,768.31,100.71Zm-35.89,2.64a.54.54,0,0,1,0-.1Z" transform="translate(-67.16 -65.46)" style="fill:#29abe2;fill-rule:evenodd"/>
</svg>