<svg xmlns="http://www.w3.org/2000/svg" xmlns:xlink="http://www.w3.org/1999/xlink" viewBox="0 0 901.17 789.98">
    <defs>
        <linearGradient id="a" x1="-922.78" y1="1432.94" x2="-921.12" y2="1432.72" gradientTransform="matrix(223, 0, 0, -223, 206329.8, 319939.58)" gradientUnits="userSpaceOnUse">
            <stop offset="0" stop-color="#fafeff"/>
            <stop offset="1" stop-color="#83f2d5"/>
        </linearGradient>
        <linearGradient id="b" x1="-915.38" y1="1467.66" x2="-913.73" y2="1467.44" gradientTransform="matrix(84, 0, 0, -84, 77199.69, 123497.68)" gradientUnits="userSpaceOnUse">
            <stop offset="0" stop-color="#fafeff"/>
            <stop offset="1" stop-color="#a8d3fe"/>
        </linearGradient>
        <linearGradient id="c" x1="-923.39" y1="1430.09" x2="-922.35" y2="1429.71" gradientTransform="matrix(263, 0, 0, -263, 243265.91, 376467.85)" gradientUnits="userSpaceOnUse">
            <stop offset="0" stop-color="#fafeff"/>
            <stop offset="1" stop-color="#5ddeff"/>
        </linearGradient>
        <linearGradient id="d" x1="-921.81" y1="1438.29" x2="-921.13" y2="1438.63" gradientTransform="matrix(124.45, -124.45, -124.45, -124.45, 293903.39, 64970.09)" gradientUnits="userSpaceOnUse">
            <stop offset="0" stop-color="#e9fbff"/>
            <stop offset="1" stop-color="#cef4ff"/>
        </linearGradient>
        <linearGradient id="e" x1="-942.72" y1="1431.82" x2="-942.72" y2="1429.47" gradientTransform="matrix(158.61, 0, 0, -214.04, 149751.33, 306752.52)" gradientUnits="userSpaceOnUse">
            <stop offset="0" stop-color="#a2ffea"/>
            <stop offset="1" stop-color="#8ca5ff"/>
        </linearGradient>
        <linearGradient id="f" x1="-943.7" y1="1428.9" x2="-943.7" y2="1427.52" gradientTransform="matrix(149.55, 0, 0, -244, 141426.1, 349054.11)" xlink:href="#e"/>
        <mask id="g" x="117.1" y="296.83" width="186.1" height="157.26" maskUnits="userSpaceOnUse">
            <g transform="translate(-68.01 -148.01)">
                <path d="M195.49,444.85H360.85a10.37,10.37,0,0,1,10.37,10.37V591.74a10.37,10.37,0,0,1-10.37,10.37H195.49a10.37,10.37,0,0,1-10.37-10.37V455.22A10.37,10.37,0,0,1,195.49,444.85Z" style="fill:#fff"/>
            </g>
        </mask>
        <linearGradient id="n" x1="-903.49" y1="1448.7" x2="-903.87" y2="1449.66" gradientTransform="translate(-100293.93 149199.81) rotate(180) scale(111.52 102.37)" gradientUnits="userSpaceOnUse">
            <stop offset="0" stop-color="#f8e1b0"/>
            <stop offset="1" stop-color="#fdba7c"/>
        </linearGradient>
        <linearGradient id="o" x1="-820.66" y1="1549.19" x2="-820.59" y2="1547.64" gradientTransform="translate(-19262.01 44031) rotate(180) scale(24 28)" gradientUnits="userSpaceOnUse">
            <stop offset="0" stop-color="#fdc6c6"/>
            <stop offset="1" stop-color="#a47070"/>
        </linearGradient>
        <linearGradient id="p" x1="-892.76" y1="1469.3" x2="-892.7" y2="1468.32" gradientTransform="translate(-66412.98 99530.28) rotate(180) scale(74.94 67.28)" gradientUnits="userSpaceOnUse">
            <stop offset="0" stop-color="#f8e1b0"/>
            <stop offset="1" stop-color="#ffc692"/>
        </linearGradient>
        <linearGradient id="q" x1="-832.83" y1="1520.15" x2="-832.83" y2="1518.23" gradientTransform="translate(-21792.45 54889.18) rotate(180) scale(26.83 35.71)" gradientUnits="userSpaceOnUse">
            <stop offset="0" stop-color="#bf8888"/>
            <stop offset="1" stop-color="#714a4a"/>
        </linearGradient>
        <linearGradient id="r" x1="-849.57" y1="1536.67" x2="-849.47" y2="1535.29" gradientTransform="translate(-27203.67 48125.93) rotate(180) scale(32.67 30.93)" xlink:href="#o"/>
        <linearGradient id="s" x1="-905.49" y1="1449.43" x2="-903.18" y2="1450.36" gradientTransform="translate(-103475.54 146912.87) rotate(180) scale(114.96 100.75)" xlink:href="#p"/>
        <linearGradient id="t" x1="-834.39" y1="1450.54" x2="-834.38" y2="1449.33" gradientTransform="translate(-22309.98 147389.22) rotate(180) scale(27.36 101.16)" xlink:href="#p"/>
        <linearGradient id="u" x1="-842.92" y1="1444.11" x2="-842.92" y2="1442.9" gradientTransform="translate(-24707 176842) rotate(180) scale(30 122)" xlink:href="#p"/>
        <linearGradient id="v" x1="-852.57" y1="1623.4" x2="-852.47" y2="1622.97" gradientTransform="translate(-28436.99 29933) rotate(180) scale(34 18)" xlink:href="#o"/>
        <linearGradient id="w" x1="-885.93" y1="1464.25" x2="-885.89" y2="1463.04" gradientTransform="translate(-54016.24 109103.27) rotate(180) scale(61.65 74.05)" xlink:href="#p"/>
        <linearGradient id="x" x1="-1049.59" y1="1595.81" x2="-1050.81" y2="1595.81" gradientTransform="matrix(20.64, 0, 0, -20.64, 22048.87, 33690.04)" gradientUnits="userSpaceOnUse">
            <stop offset="0" stop-color="#f16b79"/>
            <stop offset="1" stop-color="#f69d88"/>
        </linearGradient>
        <linearGradient id="y" x1="-962.67" y1="1503.8" x2="-962.67" y2="1502.21" gradientTransform="matrix(69.97, 0, 0, -41.92, 67832.75, 63733.5)" gradientUnits="userSpaceOnUse">
            <stop offset="0" stop-color="#9ff6ec"/>
            <stop offset="1" stop-color="#7d9dff"/>
        </linearGradient>
        <linearGradient id="z" x1="-1111.14" y1="1609.72" x2="-1111.14" y2="1611.02" gradientTransform="matrix(13.31, 0, 0, -19.2, 15518.72, 31460.79)" gradientUnits="userSpaceOnUse">
            <stop offset="0" stop-color="#2067fa"/>
            <stop offset="1" stop-color="#88b8f6"/>
        </linearGradient>
        <linearGradient id="aa" x1="-991.22" y1="1512.39" x2="-991.22" y2="1510.79" gradientTransform="matrix(38.03, 0, 0, -38.4, 38480.14, 58719.2)" xlink:href="#y"/>
        <mask id="ab" x="677.28" y="508.97" width="79.1" height="67.95" maskUnits="userSpaceOnUse">
            <g transform="translate(-68.01 -148.01)">
                <path d="M770.12,657h32.37a.93.93,0,0,1,.94.93,1.23,1.23,0,0,1,0,.19l-8.91,42.74a.93.93,0,0,1-.91.74H761.22a.93.93,0,0,1-.93-.93.58.58,0,0,1,0-.19l8.9-42.74A.93.93,0,0,1,770.12,657Z" style="fill:#fff"/>
            </g>
        </mask>
        <linearGradient id="ac" x1="-1001.69" y1="1529.24" x2="-1004.28" y2="1529.24" gradientTransform="matrix(32.5, 0, 0, -32.5, 33274.49, 50255.99)" gradientUnits="userSpaceOnUse">
            <stop offset="0" stop-color="#0f9091"/>
            <stop offset="1" stop-color="#91f688"/>
        </linearGradient>
        <linearGradient id="ad" x1="-991.26" y1="1513.13" x2="-989.7" y2="1511.87" gradientTransform="matrix(38.5, 0, 0, -38, 38858.99, 58019.99)" gradientUnits="userSpaceOnUse">
            <stop offset="0" stop-color="#2fbdbe"/>
            <stop offset="1" stop-color="#88f6d7"/>
        </linearGradient>
    </defs>
    <rect x="618.95" y="277.49" width="289.16" height="289.16" transform="translate(-142.83 515.5) rotate(-45)" style="isolation:isolate;opacity:0.532831072807312;fill:url(#a)"/>
    <rect x="333.59" y="170.57" width="108.92" height="108.92" transform="translate(-113.48 192.29) rotate(-45)" style="fill:url(#b)"/>
    <rect x="444.24" y="256.56" width="341.03" height="341.03" transform="translate(-189.94 411.77) rotate(-45)" style="isolation:isolate;opacity:0.400000005960465;fill:url(#c)"/>
    <path d="M214.85,430.74a13,13,0,0,1,18.34,0l143,143a13,13,0,0,1,0,18.33l-143,143a13,13,0,0,1-18.34,0l-143-143a13,13,0,0,1,0-18.33ZM224,494.92l-88,88,88,88,88-88Z" transform="translate(-68.01 -148.01)" style="fill:url(#d)"/>
    <polygon points="233.19 515.97 233.19 687.26 233.37 687.09 233.32 695.59 331.85 793.51 318.71 793.51 233.19 708.47 233.19 793.47 222.82 793.47 222.82 711.71 140.61 793.51 126.18 793.51 222.82 697.43 222.82 515.97 233.19 515.97" style="fill:url(#e)"/>
    <path d="M314.17,831.26h-35a6.48,6.48,0,0,0-6.48,6.49v7.78a6.48,6.48,0,0,0,6.48,6.48h35a6.49,6.49,0,0,0,6.49-6.48v-7.78A6.49,6.49,0,0,0,314.17,831.26Z" transform="translate(-68.01 -148.01)" style="fill:#c8daff"/>
    <path d="M215.86,421.51H397.47a6.15,6.15,0,0,1,6.15,6.15V731.75a6.16,6.16,0,0,1-5.86,6.15h-.31l-181.62-.7a6.16,6.16,0,0,1-6.12-6.15V427.66A6.15,6.15,0,0,1,215.86,421.51Z" transform="translate(-68.01 -148.01)" style="fill:#8eb1fd"/>
    <path d="M207,421.51H388.58a6.15,6.15,0,0,1,6.15,6.15V731.75a6.16,6.16,0,0,1-5.87,6.15h-.3l-181.62-.7a6.16,6.16,0,0,1-6.13-6.15V427.66A6.15,6.15,0,0,1,207,421.51Z" transform="translate(-68.01 -148.01)" style="fill:url(#f)"/>
    <path d="M215.73,427.86H379.56a7,7,0,0,1,7,7V722a7,7,0,0,1-7,7H215.73a7,7,0,0,1-7-7V434.9A7,7,0,0,1,215.73,427.86Z" transform="translate(-68.01 -148.01)" style="fill:#fff"/>
    <path d="M267.15,720.14h49.56a5.08,5.08,0,0,1,5.08,5.08v16.52H267.15a5.09,5.09,0,0,1-5.09-5.08V725.22A5.08,5.08,0,0,1,267.15,720.14Z" transform="translate(-68.01 -148.01)" style="fill:#a7c3ff"/>
    <polygon points="252.5 588.64 257.59 588.64 257.59 593.72 252.5 593.72 252.5 588.64" style="fill:#a7c3ff"/>
    <path d="M264.6,720.14h49.56a5.08,5.08,0,0,1,5.09,5.08v11.44a5.09,5.09,0,0,1-5.09,5.08H264.6a5.09,5.09,0,0,1-5.08-5.08V725.22A5.08,5.08,0,0,1,264.6,720.14Z" transform="translate(-68.01 -148.01)" style="fill:#c8daff"/>
    <rect x="409.95" y="309.8" width="80.52" height="93.06" style="fill:#91d6ff"/>
    <rect x="403.67" y="309.8" width="80.52" height="93.06" style="fill:#e3f4ff"/>
    <path d="M486.29,468.79h51.32a5.19,5.19,0,0,1,5.18,5.19v61.25a5.18,5.18,0,0,1-5.18,5.19H486.29a5.19,5.19,0,0,1-5.19-5.19V474A5.19,5.19,0,0,1,486.29,468.79Z" transform="translate(-68.01 -148.01)" style="fill:#fff"/>
    <path d="M486.29,468.79h1.08v71.63h-1.08a5.19,5.19,0,0,1-5.19-5.19V474A5.19,5.19,0,0,1,486.29,468.79Z" transform="translate(-68.01 -148.01)" style="fill:#91d6ff"/>
    <path d="M531.89,520.33l-20.53-36a.51.51,0,0,0-.71-.2.64.64,0,0,0-.2.2l-19.69,36a.52.52,0,0,0,.21.71.45.45,0,0,0,.25.07h40.22a.53.53,0,0,0,.52-.53A.52.52,0,0,0,531.89,520.33Z" transform="translate(-68.01 -148.01)" style="fill:#83f2d5"/>
    <path d="M534.48,506.27l-11.1-19.33a.52.52,0,0,0-.71-.19.64.64,0,0,0-.2.2l-10.64,19.32a.52.52,0,0,0,.2.71.48.48,0,0,0,.26.07H534a.52.52,0,0,0,.52-.52A.56.56,0,0,0,534.48,506.27Z" transform="translate(-68.01 -148.01)" style="fill:#63cbe8;isolation:isolate;opacity:0.446870356798172"/>
    <rect x="525.35" y="309.8" width="80.52" height="93.06" style="fill:#91d6ff"/>
    <rect x="519.08" y="309.8" width="80.52" height="93.06" style="fill:#e3f4ff"/>
    <path d="M601.69,468.79H653A5.19,5.19,0,0,1,658.2,474v61.25a5.19,5.19,0,0,1-5.19,5.19H601.69a5.19,5.19,0,0,1-5.19-5.19V474A5.2,5.2,0,0,1,601.69,468.79Z" transform="translate(-68.01 -148.01)" style="fill:#fff"/>
    <rect x="543.13" y="344.31" width="30.85" height="30.85" style="fill:#83f2d5"/>
    <rect x="559.86" y="332.28" width="23.53" height="23.53" style="fill:#63cbe8;isolation:isolate;opacity:0.446870356798172"/>
    <path d="M601.69,468.79h1.09v71.63h-1.09a5.19,5.19,0,0,1-5.19-5.19V474A5.2,5.2,0,0,1,601.69,468.79Z" transform="translate(-68.01 -148.01)" style="fill:#91d6ff"/>
    <rect x="640.76" y="309.8" width="80.52" height="93.06" style="fill:#91d6ff"/>
    <rect x="634.48" y="309.8" width="80.52" height="93.06" style="fill:#e3f4ff"/>
    <path d="M717.1,468.79h51.32A5.19,5.19,0,0,1,773.6,474v61.25a5.18,5.18,0,0,1-5.18,5.19H717.1a5.19,5.19,0,0,1-5.19-5.19V474A5.19,5.19,0,0,1,717.1,468.79Z" transform="translate(-68.01 -148.01)" style="fill:#fff"/>
    <circle cx="675.53" cy="359.73" r="21.7" style="fill:#83f2d5"/>
    <circle cx="685.98" cy="342.48" r="11.24" style="fill:#63cbe8;isolation:isolate;opacity:0.446870356798172"/>
    <path d="M717.1,468.79h1.08v71.63H717.1a5.19,5.19,0,0,1-5.19-5.19V474A5.19,5.19,0,0,1,717.1,468.79Z" transform="translate(-68.01 -148.01)" style="fill:#91d6ff"/>
    <path d="M192.1,625.09H364.7a7,7,0,0,1,7,7v55.21a7,7,0,0,1-7,7H192.1a7,7,0,0,1-7-7V632.07A7,7,0,0,1,192.1,625.09Z" transform="translate(-68.01 -148.01)"/>
    <path d="M192.1,625.09H364.7a7,7,0,0,1,7,7v55.21a7,7,0,0,1-7,7H192.1a7,7,0,0,1-7-7V632.07A7,7,0,0,1,192.1,625.09Z" transform="translate(-68.01 -148.01)" style="fill:#fff"/>
    <path d="M248,663.52h34.93a2.1,2.1,0,1,1,0,4.19H248a2.1,2.1,0,1,1,0-4.19Z" transform="translate(-68.01 -148.01)" style="fill:#ffbf29;isolation:isolate;opacity:0.465471535921097"/>
    <path d="M248,651.64h21a2.1,2.1,0,0,1,0,4.19H248a2.1,2.1,0,1,1,0-4.19Z" transform="translate(-68.01 -148.01)" style="fill:#ffbf29"/>
    <path d="M314.57,651.83a2.62,2.62,0,0,1,3.47-1.3,2.69,2.69,0,0,1,1.07.91l.1.15,5.14,8.74a.18.18,0,0,0,.24.06h0l0,0,2.73-3.1a2.62,2.62,0,0,1,3.7-.22l.21.2.09.11,4,4.92a.17.17,0,0,0,.24,0l0,0v0L342,652a2.61,2.61,0,0,1,3.6-.85,2.66,2.66,0,0,1,.52.42l.11.12,3,3.53A1.22,1.22,0,0,1,349,657a1.2,1.2,0,0,1-1.64-.07l-.08-.08-2.95-3.53,0,0a.18.18,0,0,0-.21,0l0,0-6.34,10.24a2.36,2.36,0,0,1-.57.65,2.62,2.62,0,0,1-3.59-.26l-.1-.11-4-4.93,0,0a.18.18,0,0,0-.21,0l0,0L326.46,662a2.65,2.65,0,0,1-.63.52,2.62,2.62,0,0,1-3.51-.81l-.08-.12-5.14-8.74a.14.14,0,0,0-.08-.07.17.17,0,0,0-.2,0l0,0-5,11a2.64,2.64,0,0,1-.84,1l-.14.1-5.94,3.78a1.22,1.22,0,0,1-1.4-2l.09-.06,5.93-3.79a.1.1,0,0,0,.05,0l0,0Z" transform="translate(-68.01 -148.01)" style="fill:#ffbf29"/>
    <circle cx="151.69" cy="512.36" r="14.32" style="fill:#ffbf29"/>
    <path d="M195.49,444.85H360.85a10.37,10.37,0,0,1,10.37,10.37V591.74a10.37,10.37,0,0,1-10.37,10.37H195.49a10.37,10.37,0,0,1-10.37-10.37V455.22A10.37,10.37,0,0,1,195.49,444.85Z" transform="translate(-68.01 -148.01)"/>
    <path d="M195.49,444.85H360.85a10.37,10.37,0,0,1,10.37,10.37V591.74a10.37,10.37,0,0,1-10.37,10.37H195.49a10.37,10.37,0,0,1-10.37-10.37V455.22A10.37,10.37,0,0,1,195.49,444.85Z" transform="translate(-68.01 -148.01)" style="fill:#fff"/>
    <g style="mask:url(#g)">
        <path d="M210,563.84q22.08-6.32,31.81-19.19c9.74-12.89,13-25.38,29.76-25.38s18.88,19.13,37,19.13,19.09-24.39,25.1-34.08q6-9.68,16.4-9.68v82.78a2.28,2.28,0,0,1-2.29,2.28H212.3a2.29,2.29,0,0,1-2.29-2.28V563.84Z" transform="translate(-68.01 -148.01)" style="fill:#ffe3b5;isolation:isolate;opacity:0.414736807346344"/>
    </g>
    <g style="mask:url(#g)">
        <path d="M210,565.18q22.08-6.34,31.81-19.28c9.74-12.94,13-25.48,29.76-25.48s18.88,19.21,37,19.21,19.09-24.5,25.1-34.23q6-9.72,16.4-9.72" transform="translate(-68.01 -148.01)"/>
        <path d="M210,565.18q22.08-6.34,31.81-19.28c9.74-12.94,13-25.48,29.76-25.48s18.88,19.21,37,19.21,19.09-24.5,25.1-34.23q6-9.72,16.4-9.72" transform="translate(-68.01 -148.01)" style="fill:none;stroke:#ffbf29;stroke-linecap:round;stroke-width:2.64000010490417px"/>
    </g>
    <g style="mask:url(#g)">
        <rect x="131.63" y="312.39" width="58.09" height="6.22" style="fill:#ffbf29"/>
    </g>
    <g style="mask:url(#g)">
        <path d="M202.75,476H223.5a3.11,3.11,0,1,1,0,6.22H202.75a3.11,3.11,0,0,1,0-6.22Z" transform="translate(-68.01 -148.01)" style="fill:#ffbf29;isolation:isolate;opacity:0.465471535921097"/>
    </g>
    <g style="mask:url(#g)">
        <path d="M335,467.67a3.63,3.63,0,1,0-3.64-3.63A3.64,3.64,0,0,0,335,467.67Z" transform="translate(-68.01 -148.01)" style="fill:#fff"/>
    </g>
    <g style="mask:url(#g)">
        <path d="M345.39,467.67a3.63,3.63,0,1,0-3.63-3.63A3.64,3.64,0,0,0,345.39,467.67Z" transform="translate(-68.01 -148.01)" style="fill:#fff"/>
    </g>
    <g style="mask:url(#g)">
        <path d="M355.76,467.67a3.63,3.63,0,1,0-3.63-3.63A3.63,3.63,0,0,0,355.76,467.67Z" transform="translate(-68.01 -148.01)" style="fill:#fff"/>
    </g>
    <path d="M620.07,924l-47.69-2.61H557.71L509.82,924a2.18,2.18,0,0,0-2.06,2.17v3.39H622.13v-3.39A2.17,2.17,0,0,0,620.07,924Z" transform="translate(-68.01 -148.01)" style="fill:#bfe7ff"/>
    <polygon points="502.38 692.2 491.49 692.2 491.49 773.89 502.38 773.89 502.38 692.2" style="fill:#bfe7ff"/>
    <rect x="488.76" y="762.45" width="16.34" height="19.06" style="fill:#91d6ff"/>
    <path d="M577.47,834.22H552.42a1.09,1.09,0,0,0-1.09,1.09v8.52a1.09,1.09,0,0,0,.69,1l5.92,2.37a1.15,1.15,0,0,0,.41.08h13.19a1.15,1.15,0,0,0,.41-.08l5.93-2.37a1.1,1.1,0,0,0,.68-1v-8.52A1.09,1.09,0,0,0,577.47,834.22Z" transform="translate(-68.01 -148.01)" style="fill:#91d6ff"/>
    <rect x="545.95" y="781.51" width="10.89" height="10.89" style="fill:#91d6ff"/>
    <rect x="437.02" y="781.51" width="10.89" height="10.89" style="fill:#91d6ff"/>
    <rect x="491.49" y="781.51" width="10.89" height="10.89" style="fill:#91d6ff"/>
    <path d="M569.3,819H500.68a8.72,8.72,0,0,0,0,17.43H569.3a8.72,8.72,0,1,0,0-17.43Z" transform="translate(-68.01 -148.01)" style="fill:#bfe7ff"/>
    <path d="M620.5,738.37H605.25v43.57q0,21.78-24.51,43.56h20.15Q620.5,807,620.5,781.94Z" transform="translate(-68.01 -148.01)" style="fill:#91d6ff"/>
    <path d="M614,738.37H598.71v43.57q0,21.78-24.51,43.56h18q21.78-18,21.78-43.56Z" transform="translate(-68.01 -148.01)" style="fill:#bfe7ff"/>
    <path d="M647.73,706.78H570.9A10.89,10.89,0,0,0,560,717.67V760a10.88,10.88,0,0,0,10.89,10.89h76.83A10.89,10.89,0,0,0,658.62,760V717.67A10.9,10.9,0,0,0,647.73,706.78Z" transform="translate(-68.01 -148.01)" style="fill:#bfe7ff"/>
    <path d="M652,706.78a7.06,7.06,0,0,0-7.06,7.06v50a7.06,7.06,0,0,0,14.12,0v-50A7.06,7.06,0,0,0,652,706.78Z" transform="translate(-68.01 -148.01)" style="fill:#91d6ff"/>
    <path d="M622.67,819H556.23a8.72,8.72,0,0,0,0,17.43h66.44a8.72,8.72,0,1,0,0-17.43Z" transform="translate(-68.01 -148.01)" style="fill:#91d6ff"/>
    <path d="M489.74,897.67s4.17,16-1.72,20.61-18.48,13.15-18.48,13.15l45.83-2.59-9.18-33.19Z" transform="translate(-68.01 -148.01)" style="fill:#92691f"/>
    <path d="M517.07,930.35l-9.74,2.84-3.23-2.84-3.24,1.08s-6.29,4.29-10.74,5.39c-12.39,3.06-29.9-2.73-29.9-2.73s-1.52-9,4.12-8.48c10.05,1,23.24-11.27,23.24-11.27a29.64,29.64,0,0,0,15.58,3c1.7-.19,6.51-6.83,8.31-6.41Q512.61,911.21,517.07,930.35Z" transform="translate(-68.01 -148.01)" style="fill:#391b0b"/>
    <path d="M492,916s-11,8.44-13.65,8.61c-3.35.22-4.51-1.21-4.51-1.21a50.41,50.41,0,0,0,13.87-9.14Z" transform="translate(-68.01 -148.01)" style="fill:#81411e"/>
    <path d="M552,777.75c-12.5.56-87.79,7.22-100.25,7.61s-22,18.14-12.32,34.53c10.83,18.4,40.26,72.66,46,84.91,4.87,10.35,27,6.11,23-9.71-4.76-18.93-13.61-62.69-32.53-79.4,0,0,65.19,13.19,92.67.5C588.53,807,582.16,776.4,552,777.75Z" transform="translate(-68.01 -148.01)" style="fill:url(#n)"/>
    <path d="M448.35,692.9s.15-11.2-3.76-17-4.08-12.06-7-11.86,0,14.65,0,14.65a38.46,38.46,0,0,1-6.46-3.25c-2.7-1.82-10.89-10.78-12.81-9.19-3.24,2.7,2,18,4.83,21s18.46,13.09,18.46,13.09Z" transform="translate(-68.01 -148.01)" style="fill:url(#o)"/>
    <path d="M532.89,686.19c-6.4,14.84-18.11,42.11-22.95,50.25-6.05,10.19-15.6,14.68-26.77,7.12-11.75-7.95-44.09-38.93-45-45.94s7-15.44,14.14-11.08,36.92,29.12,36.92,29.12,12-30.79,21.68-48.62C519.23,651.61,542.64,663.62,532.89,686.19Z" transform="translate(-68.01 -148.01)" style="fill:url(#p)"/>
    <path d="M489.07,715.68q-3.22,10.94-4,10.31t.58-13.17Z" transform="translate(-68.01 -148.01)" style="fill-opacity:0.159855768084526"/>
    <path d="M571.76,651.7s-7.72-1.81-8-14.46-.08-17-.08-17L545.4,620s-.18,14.09-.19,19.19c0,11.09-8.25,14.09-8.25,14.09s.69,12.13,16.09,13C565.08,666.94,571.76,651.7,571.76,651.7Z" transform="translate(-68.01 -148.01)" style="fill:url(#q)"/>
    <path d="M565.37,613.89c7.59-.29,6.35,10.81-1.53,10.8,0,0-8.46,17-21.75,17.06-6.4,0-8.49-5.68-10.41-9.68a40.06,40.06,0,0,1-3.45-13.66c-.12-3.91-.14-16.75-.14-16.75l37.58,0Z" transform="translate(-68.01 -148.01)" style="fill:url(#r)"/>
    <path d="M548.19,630.27l-14.26-.11S540.13,621.7,548.19,630.27Z" transform="translate(-68.01 -148.01)" style="fill:#422851"/>
    <path d="M569,615q-6-3.21-9.07,4.95l-.92-1.43c.39-6.61-.82-10.75-3.63-12.45-5-3-29.36,6-29.25-5C526.39,576.56,581.94,578.72,569,615Z" transform="translate(-68.01 -148.01)" style="fill:#422851"/>
    <path d="M543,632.07a3.55,3.55,0,0,1-3.32,0" transform="translate(-68.01 -148.01)" style="fill:none;stroke:#8f5a5a;stroke-linecap:round"/>
    <path d="M564.19,620.23c-.08-1.78.47-3.19,2.28-3.48" transform="translate(-68.01 -148.01)" style="fill:none;stroke:#8f5a5a;stroke-linecap:round"/>
    <path d="M570.47,651c-9.84,5.12-20.41,6.32-32.14,1.36-23.86,40,2.85,89.44-26.45,128.44,17.94,10.81,54,9.71,76.51,1.9Z" transform="translate(-68.01 -148.01)" style="fill:#e4ecff"/>
    <path d="M451.12,901s-8.83,17.09-22.92,23.49-18.07,6-16.8,10.94,42.44,6.25,45.87,2.39c2.91-3.29,9.25-33.9,11-31.56Z" transform="translate(-68.01 -148.01)" style="fill:#92691f"/>
    <path d="M464.75,917.5s-3.67,20.91-6,21.71-32.51,3.57-41.22,1.55-13.31-6.71-13.31-6.71,1.81-8.45,9.53-6.84,28.9-13,29.6-14.12,8.15,5.42,12.13,5.8C459.72,919.3,467.11,912.09,464.75,917.5Z" transform="translate(-68.01 -148.01)" style="fill:#391b0b"/>
    <path d="M447.26,914.84s-11.81,9.63-14.44,9.69a3,3,0,0,1-3-2.6,82.09,82.09,0,0,0,13.6-9.27Z" transform="translate(-68.01 -148.01)" style="fill:#81411e"/>
    <path d="M591,790.23q5.32,25-14.09,32.21c-19.4,7.25-82.58,4.52-82.58,4.52s-20.05,73.69-24.86,80.87-27.58,7.92-26.35-8.61,10.13-77.9,11.85-92.46,7.11-18,22.89-20.65c5.54-.91,3.19-2.38,38.83-4.05,7.66-.36,20.5,2.51,32.3,3.8Q560.78,787.17,591,790.23Z" transform="translate(-68.01 -148.01)" style="fill:url(#s)"/>
    <path d="M571.63,811.19c-13.62,5.9-72.34,8.23-79.38,12.32-5.16,3-12.37,42.08-15.88,65.5l.46-1.46c7.56-24.13,17.48-60.59,17.48-60.59l2.15.09c11.22.39,63.16,1.84,80.43-4.61Q596.3,815.2,591,790.23l-3.54-.36h0Q583.78,805.92,571.63,811.19Z" transform="translate(-68.01 -148.01)" style="fill:#fff;fill-opacity:0.192498907446861"/>
    <ellipse cx="443.18" cy="806.65" rx="5.19" ry="9.08" transform="translate(-238.11 -27.65) rotate(-13)" style="fill:#fff;fill-opacity:0.192498907446861"/>
    <ellipse cx="465.2" cy="804.03" rx="10.37" ry="6.48" transform="translate(-503.92 881.58) rotate(-74)" style="fill:#fff;fill-opacity:0.192498907446861"/>
    <path d="M540.41,651a69.6,69.6,0,0,0-8.7,31.69Q530,748.32,522.26,782l-17.33.2q8.61-107.69,11.34-115.61C519,658.66,531.11,655.34,540.41,651Z" transform="translate(-68.01 -148.01)" style="fill:url(#t)"/>
    <path d="M540.41,651l-.37.05c-3.4,2.81-11.18,9.53-15.12,15.43-2.22,3.32,1.28,8.31,1.79,10.93.48,2.46-3.23,6.08-4.37,11.9-.89,4.6,5.49,23.41,8.19,31.06.44-10.82.81-23.28,1.18-37.68A69.6,69.6,0,0,1,540.41,651Z" transform="translate(-68.01 -148.01)" style="fill:#e5aa41"/>
    <path d="M568.83,649.72c-15.12,99-8.37,149.22,24.53,158.2,0,0,8.62-137.3,6.3-141.78C597.82,662.58,568.83,649.72,568.83,649.72Z" transform="translate(-68.01 -148.01)" style="fill:url(#u)"/>
    <path d="M586.84,686.34q-2.13,3.79,2.6,27.43l.45,2.24a45.34,45.34,0,0,1-5.07,31.68l-.35.61A86.83,86.83,0,0,0,578,762.37c-2.58,6.94,1.69,22,11.85,44.4a35.64,35.64,0,0,0,3.49,1.15l.85-13.9c1.65-27.17,5.14-87,5.76-114.14Q589.14,682.25,586.84,686.34Z" transform="translate(-68.01 -148.01)" style="fill-opacity:0.159855768084526"/>
    <path d="M568.83,649.72c-4.07,26.68-6.56,49.82-7.38,69.57,5-7.71,14.62-23.48,13.7-29.21-.66-4.06-2.88-8.13-2.32-11.61.5-3.12,3.62-5.65,5.62-9.06,3.43-5.87-5.93-16-9.56-19.66Z" transform="translate(-68.01 -148.01)" style="fill:#e5aa41"/>
    <path d="M571.53,720s-13-11.49-17-12.83-27.27-2.94-27.12.08c.16,3.23,12.67,3,14,4.63s1.59,12.45,6.49,13.67,19.55,3.32,19.55,3.32Z" transform="translate(-68.01 -148.01)" style="fill:url(#v)"/>
    <path d="M606.09,671.27c15,19.32,28.39,51.76,32.87,63.23s0,28.77-19.76,25.37-54-24.81-57.49-30.18,1.8-15.14,8.43-13.86C576.28,717,606.75,730,606.75,730s-19.6-34.75-24.39-44.06C574.37,670.35,593.41,654.93,606.09,671.27Z" transform="translate(-68.01 -148.01)" style="fill:url(#w)"/>
    <path d="M606.44,729.73q10.27,5.1,9,3T602.52,723Z" transform="translate(-68.01 -148.01)" style="fill-opacity:0.159855768084526"/>
    <polygon points="333.81 617.38 355.59 617.38 355.59 793.83 333.81 793.83 333.81 617.38" style="fill:#91d6ff"/>
    <polygon points="330.54 617.38 343.61 617.38 343.61 793.83 330.54 793.83 330.54 617.38" style="fill:#bfe7ff"/>
    <polygon points="235.78 617.38 257.56 617.38 257.56 793.83 235.78 793.83 235.78 617.38" style="fill:#91d6ff"/>
    <polygon points="232.51 617.38 245.58 617.38 245.58 793.83 232.51 793.83 232.51 617.38" style="fill:#bfe7ff"/>
    <polygon points="577.79 617.38 599.58 617.38 599.58 793.83 577.79 793.83 577.79 617.38" style="fill:#91d6ff"/>
    <polygon points="574.53 617.38 587.6 617.38 587.6 793.83 574.53 793.83 574.53 617.38" style="fill:#bfe7ff"/>
    <polygon points="479.76 617.38 501.55 617.38 501.55 793.83 479.76 793.83 479.76 617.38" style="fill:#91d6ff"/>
    <polygon points="476.5 617.38 489.57 617.38 489.57 793.83 476.5 793.83 476.5 617.38" style="fill:#bfe7ff"/>
    <path d="M411.62,759.94H665.41a2.18,2.18,0,0,1,2.18,2.18v25a2.18,2.18,0,0,1-2.18,2.18H411.62a2.18,2.18,0,0,1-2.17-2.18v-25A2.18,2.18,0,0,1,411.62,759.94Z" transform="translate(-68.01 -148.01)" style="fill:#91d6ff"/>
    <path d="M302.7,759.94H555.4a2.18,2.18,0,0,1,2.18,2.18v25a2.18,2.18,0,0,1-2.18,2.18H302.7a2.19,2.19,0,0,1-2.18-2.18v-25A2.19,2.19,0,0,1,302.7,759.94Z" transform="translate(-68.01 -148.01)" style="fill:#bfe7ff"/>
    <rect x="210.47" y="611.93" width="403.27" height="11.67" style="fill:#e3f4ff"/>
    <path d="M369.47,722.65v-5h6.33V715a2.64,2.64,0,0,1,5.27,0v5.5a2.12,2.12,0,0,1-2.11,2.11Z" transform="translate(-68.01 -148.01)" style="fill:#02b596"/>
    <path d="M351.93,725.51v-4.74a2.64,2.64,0,1,1,5.27,0v2.63h3.16V711.28a5.8,5.8,0,1,1,11.6,0v30h-11.6V728.67h-5.27A3.16,3.16,0,0,1,351.93,725.51Z" transform="translate(-68.01 -148.01)" style="fill:#02d3af"/>
    <path d="M352.43,733.09H379.2l-1.91,25.53a1.35,1.35,0,0,1-1.34,1.24H355.68a1.33,1.33,0,0,1-1.33-1.24Z" transform="translate(-68.01 -148.01)" style="fill:url(#x)"/>
    <path d="M352.43,733.09H379.2a1.34,1.34,0,0,1,1.34,1.34v5.35a1.34,1.34,0,0,1-1.34,1.34H352.43a1.34,1.34,0,0,1-1.34-1.34v-5.35A1.34,1.34,0,0,1,352.43,733.09Z" transform="translate(-68.01 -148.01)" style="fill:#ffb3a4"/>
    <path d="M441.36,755.8H567.08a1.8,1.8,0,0,1,0,3.59H441.36a1.8,1.8,0,1,1,0-3.59Z" transform="translate(-68.01 -148.01)" style="fill:#8dc6f6"/>
    <path d="M526.54,755.8h40.54a1.8,1.8,0,0,1,0,3.59H526.54a1.8,1.8,0,1,1,0-3.59Z" transform="translate(-68.01 -148.01)" style="fill:#518df8"/>
    <path d="M438.09,701.59h78.4a4.66,4.66,0,0,1,4.63,4.08l5.78,45a4.68,4.68,0,0,1-4,5.23l-.59,0H443.86a4.67,4.67,0,0,1-4.63-4.07l-5.77-45a4.67,4.67,0,0,1,4-5.22A5.65,5.65,0,0,1,438.09,701.59Z" transform="translate(-68.01 -148.01)" style="fill:#518df8"/>
    <path d="M438.09,701.59h75.62a4.68,4.68,0,0,1,4.63,4.08l5.77,45a4.67,4.67,0,0,1-4,5.23,5.68,5.68,0,0,1-.59,0H443.86a4.67,4.67,0,0,1-4.63-4.07l-5.77-45a4.67,4.67,0,0,1,4-5.22A5.65,5.65,0,0,1,438.09,701.59Z" transform="translate(-68.01 -148.01)" style="fill:url(#y)"/>
    <ellipse cx="477.35" cy="729.64" rx="5.55" ry="6.05" transform="translate(-411 286.19) rotate(-37)" style="fill:#fff"/>
    <path d="M584.5,747H639a6.48,6.48,0,0,1,0,13H584.5a1.3,1.3,0,0,1-1.3-1.29V748.27A1.3,1.3,0,0,1,584.5,747Z" transform="translate(-68.01 -148.01)" style="fill:#f16b79"/>
    <path d="M584.5,749.57h31.12a3.89,3.89,0,1,1,0,7.78H584.5a1.3,1.3,0,0,1-1.3-1.3v-5.18A1.3,1.3,0,0,1,584.5,749.57Z" transform="translate(-68.01 -148.01)" style="fill:#eaefff"/>
    <rect x="639.72" y="557.47" width="156.85" height="236.52" style="fill:#91d6ff"/>
    <rect x="639.72" y="557.47" width="114.52" height="236.52" style="fill:#bfe7ff"/>
    <path d="M802.34,864.82H727.66a10,10,0,0,0-10,10v47.3a10,10,0,0,0,10,10h74.68a10,10,0,0,0,10-10v-47.3A10,10,0,0,0,802.34,864.82Z" transform="translate(-68.01 -148.01)" style="fill:#e3f4ff"/>
    <path d="M779.94,864.82H750.06v7.47a5,5,0,0,0,5,5H775a5,5,0,0,0,5-5v-7.47Z" transform="translate(-68.01 -148.01)" style="fill:#91d6ff"/>
    <path d="M809.71,728.41H727.66a10,10,0,0,0-10,10V772.7a10,10,0,0,0,10,10h82.05a2.59,2.59,0,0,0,2.59-2.59V731A2.59,2.59,0,0,0,809.71,728.41Z" transform="translate(-68.01 -148.01)" style="fill:#91d6ff"/>
    <path d="M781.6,715.44H706.91a10,10,0,0,0-10,10v47.3a10,10,0,0,0,10,10H781.6a10,10,0,0,0,10-10V725.4A10,10,0,0,0,781.6,715.44Z" transform="translate(-68.01 -148.01)" style="fill:#e3f4ff"/>
    <path d="M802.34,790.13H727.66a10,10,0,0,0-10,10v47.3a10,10,0,0,0,10,10h74.68a10,10,0,0,0,10-10v-47.3A10,10,0,0,0,802.34,790.13Z" transform="translate(-68.01 -148.01)" style="fill:#e3f4ff"/>
    <path d="M779.94,790.13H750.06v7.47a5,5,0,0,0,5,5H775a5,5,0,0,0,5-5v-7.47Z" transform="translate(-68.01 -148.01)" style="fill:#91d6ff"/>
    <path d="M759.19,715.44H729.31v7.47a5,5,0,0,0,5,5h19.92a5,5,0,0,0,5-5v-7.47Z" transform="translate(-68.01 -148.01)" style="fill:#91d6ff"/>
    <polygon points="723.56 531.79 731.86 531.79 740.81 556.69 732.51 556.69 723.56 531.79" style="fill:url(#z)"/>
    <path d="M770.25,654.91h37.3a1,1,0,0,1,1,1,1.49,1.49,0,0,1,0,.21l-9.94,47.72a1,1,0,0,1-1,.82h-37.3a1,1,0,0,1-1-1,.76.76,0,0,1,0-.21l9.94-47.72A1,1,0,0,1,770.25,654.91Z" transform="translate(-68.01 -148.01)" style="fill:#a7c3ff"/>
    <path d="M768.18,654.91h37.3a1,1,0,0,1,1,1,.76.76,0,0,1,0,.21l-9.94,47.72a1,1,0,0,1-1,.82h-37.3a1,1,0,0,1-1-1,1.49,1.49,0,0,1,0-.21l9.94-47.72A1,1,0,0,1,768.18,654.91Z" transform="translate(-68.01 -148.01)" style="fill:url(#aa)"/>
    <path d="M770.12,657h32.37a.93.93,0,0,1,.94.93,1.23,1.23,0,0,1,0,.19l-8.91,42.74a.93.93,0,0,1-.91.74H761.22a.93.93,0,0,1-.93-.93.58.58,0,0,1,0-.19l8.9-42.74A.93.93,0,0,1,770.12,657Z" transform="translate(-68.01 -148.01)" style="fill:#baf3c4"/>
    <g style="mask:url(#ab)">
        <circle cx="711.64" cy="521.81" r="4.54" style="fill:#fff"/>
        <circle cx="698.35" cy="555.85" r="21.07" style="fill:url(#ac)"/>
        <ellipse cx="731.41" cy="549.69" rx="24.96" ry="24.64" style="fill:url(#ad)"/>
    </g>
</svg>