<svg version="1.1" id="Layer_1" xmlns="http://www.w3.org/2000/svg" xmlns:xlink="http://www.w3.org/1999/xlink" x="0px" y="0px"
	 viewBox="0 0 200 200" style="enable-background:new 0 0 200 200;" xml:space="preserve">
    <style type="text/css">
	.st0{display:none;}
	.st1{display:inline;fill:url(#Oval_00000119838873827975353920000001214516057517094817_);}
	.st2{display:inline;fill:#FFFFFF;}
	
		.st3{display:none;opacity:0.5328;fill:url(#Line-2_00000061464058494294589860000011559308978138281627_);enable-background:new    ;}
	.st4{display:none;opacity:0.4;fill:url(#Line-2_00000086675323970128638850000007680404431141097630_);enable-background:new    ;}
	
		.st5{display:none;opacity:0.4374;fill:url(#Path_00000005266882504714998070000000131078008956775832_);enable-background:new    ;}
	
		.st6{display:none;opacity:0.5328;fill:url(#_x2B__00000052092642356874930790000014876668699920069790_);enable-background:new    ;}
	.st7{fill:#16697a;}
	.st8{opacity:0.6044;fill:url(#Rectangle_00000007400456969925987150000001333276510036059321_);enable-background:new    ;}
	.st9{opacity:0.6044;fill:url(#Rectangle_00000132058377936794035320000010868292388043901595_);enable-background:new    ;}
	.st10{opacity:0.5328;fill:url(#Rectangle_00000094599206766991314730000003929522350842477757_);enable-background:new    ;}
	.st11{opacity:0.5328;fill:url(#Rectangle_00000137833726559891094680000003863158182871212459_);enable-background:new    ;}
</style>
    <g id="ElementIcon72" transform="translate(2496.000000, 2739.000000)" class="st0">
        <linearGradient id="Oval_00000078008158112138213180000011711406619062625432_" gradientUnits="userSpaceOnUse" x1="-3840.1155" y1="-1656.0819" x2="-3838.6284" y2="-1657.7611" gradientTransform="matrix(62.3295 0 0 -62.3295 236893.625 -105932.6719)">
            <stop  offset="0" style="stop-color:#0F9091"/>
            <stop  offset="1" style="stop-color:#91F688"/>
        </linearGradient>
        <circle id="Oval_267_" style="display:inline;fill:url(#Oval_00000078008158112138213180000011711406619062625432_);" cx="-2396.3" cy="-2639.3" r="31.2"/>
        <path id="Shape_7_" class="st2" d="M-2394.9-2657.1v2.9c2.1,0.2,3.7,1,4.9,2.1c1.2,1.2,2,2.7,2.3,4.7l-4.9,0.6
		c-0.3-1.5-1.1-2.6-2.3-3.1v7.6c3.1,0.8,5.2,1.9,6.4,3.3c1.1,1.3,1.7,3.1,1.7,5.2c0,2.3-0.7,4.3-2.1,5.9c-1.4,1.6-3.4,2.6-5.9,3v3.6
		h-2.8v-3.5c-2.2-0.3-4.1-1.1-5.5-2.5c-1.4-1.4-2.3-3.4-2.7-5.9l5.1-0.5c0.2,1,0.6,1.9,1.2,2.7s1.2,1.3,1.9,1.6v-8.2
		c-2.5-0.7-4.4-1.8-5.6-3.3c-1.2-1.5-1.8-3.3-1.8-5.4c0-2.1,0.7-3.9,2-5.4c1.3-1.4,3.1-2.3,5.4-2.5v-2.9H-2394.9z M-2394.9-2636.8
		v7.6c1-0.2,1.8-0.6,2.4-1.4c0.6-0.7,0.9-1.6,0.9-2.5c0-0.9-0.3-1.6-0.8-2.2c-0.5-0.6-1.2-1.1-2.3-1.4L-2394.9-2636.8z
		 M-2397.7-2649.9c-0.8,0.3-1.4,0.7-1.8,1.3s-0.7,1.3-0.7,2.1c0,0.7,0.2,1.3,0.6,1.9c0.4,0.6,1,1.1,1.9,1.4V-2649.9z"/>
    </g>
    <linearGradient id="Line-2_00000145760438056428769960000000955380173131245240_" gradientUnits="userSpaceOnUse" x1="-1393.2999" y1="1008.342" x2="-1392.6816" y2="1008.569" gradientTransform="matrix(105.8803 88.8441 107.733 -128.3911 38859.957 253266.2969)">
        <stop  offset="0" style="stop-color:#FAFEFF"/>
        <stop  offset="1" style="stop-color:#61FFD6"/>
    </linearGradient>
    <path id="Line-2_4_" style="display:none;opacity:0.5328;fill:url(#Line-2_00000145760438056428769960000000955380173131245240_);enable-background:new    ;" d="
	M69,15l-2.3,42.7c0,0.5-0.5,0.9-1,0.9c-0.2,0-0.4-0.1-0.6-0.2L51.4,46.9l0,0l-17.6,21c-0.3,0.4-0.9,0.5-1.4,0.1c0,0,0,0,0,0L22,59.3
	c-0.4-0.3-0.5-0.9-0.1-1.4l17.6-21l0,0L25.8,25.4c-0.4-0.3-0.5-0.9-0.1-1.4c0.1-0.2,0.3-0.3,0.5-0.3L67.8,14c0.5-0.1,1,0.2,1.2,0.7
	C69,14.8,69,14.9,69,15z"/>
    <linearGradient id="Line-2_00000044164240787198527370000003870797605227539114_" gradientUnits="userSpaceOnUse" x1="-1485.7407" y1="1020.8756" x2="-1485.4364" y2="1020.7227" gradientTransform="matrix(39.1497 32.8505 41.3114 -49.233 16119.7646 99083.9609)">
        <stop  offset="0" style="stop-color:#FAFEFF"/>
        <stop  offset="1" style="stop-color:#3FD8FF"/>
    </linearGradient>
    <path id="Line-2_5_" style="display:none;opacity:0.4;fill:url(#Line-2_00000044164240787198527370000003870797605227539114_);enable-background:new    ;" d="
	M143,15.2l-1,20.1c0,0.7-0.7,1.3-1.4,1.2c-0.3,0-0.6-0.1-0.8-0.3l-6.1-5.1l0,0l-8.9,10.6c-0.5,0.6-1.3,0.6-1.9,0.2c0,0,0,0,0,0
	l-4.4-3.7c-0.6-0.5-0.6-1.3-0.2-1.9l8.9-10.6l0,0l-6.1-5.1c-0.6-0.5-0.6-1.3-0.2-1.9c0.2-0.2,0.4-0.4,0.7-0.4l19.6-4.5
	c0.7-0.2,1.4,0.3,1.6,1C143,14.9,143,15.1,143,15.2z"/>
    <linearGradient id="Path_00000095329953181066257910000011338533881356127161_" gradientUnits="userSpaceOnUse" x1="-1374.3781" y1="1049.8042" x2="-1374.1428" y2="1049.8812" gradientTransform="matrix(143.0036 0 0 -116.0036 196671.7812 121946.4922)">
        <stop  offset="0" style="stop-color:#739DFF"/>
        <stop  offset="1" style="stop-color:#65DEFF"/>
    </linearGradient>
    <path id="Path_2363_" style="display:none;opacity:0.4374;fill:url(#Path_00000095329953181066257910000011338533881356127161_);enable-background:new    ;" d="
	M181,134.4c2.2-3.2,6.6-4.1,9.9-1.8c3.2,2.2,4,6.5,1.9,9.7l-0.1,0.1l-17.3,25.2c-2.5,3.5-7.4,4.4-11,1.9l-0.1-0.1l-9.9-7.1
	l-10.8,17.1c-2.1,3.3-6.4,4.3-9.7,2.3l-0.1-0.1c-3.3-2.1-4.3-6.4-2.3-9.7l0.1-0.1l14.3-22.7c2.4-3.7,7.3-4.9,11-2.5l0.2,0.1l0.2,0.1
	l10.1,7.2L181,134.4z"/>
    <linearGradient id="_x2B__00000033365671755758394110000001829092964097442483_" gradientUnits="userSpaceOnUse" x1="-1433.7083" y1="1098.9733" x2="-1432.3158" y2="1099.3392" gradientTransform="matrix(58 0 0 -58 83133 63932.8984)">
        <stop  offset="0" style="stop-color:#FAFEFF"/>
        <stop  offset="1" style="stop-color:#61FFD6"/>
    </linearGradient>
    <path id="_x2B__4_" style="display:none;opacity:0.5328;fill:url(#_x2B__00000033365671755758394110000001829092964097442483_);enable-background:new    ;" d="
	M49.5,191.3v-11.9l0,0h11.9c0.9,0,1.6-0.7,1.6-1.6v-5.9c0-0.9-0.7-1.6-1.6-1.6H49.5l0,0v-12c0-0.9-0.7-1.6-1.6-1.6h-6
	c-0.9,0-1.6,0.7-1.6,1.6v12l0,0H28.6c-0.9,0-1.6,0.7-1.6,1.6v5.9c0,0.9,0.7,1.6,1.6,1.6h11.9l0,0v11.9c0,0.9,0.7,1.6,1.6,1.6h6
	C48.8,192.8,49.5,192.1,49.5,191.3z"/>
    <path class="st7" d="M166.2,115.6l26.7-6.8l-14.8-57.9l-27,6.8l1.5,5.8c-13.8,1.8-19.5-1.7-34.2-9.4c-3.8-2-7.4-3.2-10.8-3.2
	c-4.5,0-8.5,2.1-11.5,5.5l-3.8,4.2c-15-11.7-24.4-3.1-34.5,0.6c-2.8,1-6.1,1.4-8.3,1.5l1.3-5.1l-27-6.8L9,108.7l26.7,6.8l1.4-5.3
	c2.4,0.5,11.6,2.2,13.3,2.7c-5,8.1,0.1,18.1,9.2,19.1c1.7,4.2,5.7,7.1,10.3,7.7c1.7,4.2,5.6,7.1,10.2,7.6c2.5,6.2,10,9.7,17.1,6.6
	c2.7,2.7,6.4,4.1,10.4,4.1c5.4,0,10.3-2.6,12.8-7.8c4.4-0.9,8.1-3.8,9.9-7.7c4.2-0.9,7.9-3.6,9.8-7.7c5.8-1.2,10.6-5.9,11.2-12.3
	c0.2-2.4-0.2-4.8-1.2-7c2.2-1.2,11-5,14.5-6.4C164.6,109.3,166.2,115.6,166.2,115.6z M171.5,62l10.3,40.2l-8.9,2.3l-10.5-40.1
	C162.3,64.3,171.5,62,171.5,62z M29.1,104.4l-8.9-2.3L30.4,62l9.1,2.3L29.1,104.4z M58,123.4c-2.3-1.7-2.5-4.9-0.6-7.2l4.7-5.7
	c1.9-2.3,5.3-2.8,7.6-1.1c2.3,1.7,2.5,4.9,0.6,7.2l-4.7,5.7C63.6,124.6,60.2,125.1,58,123.4z M68.2,131.1c-2.3-1.7-2.6-4.9-0.7-7.2
	l4.7-5.8c1.9-2.3,5.3-2.8,7.5-1.1c2.3,1.7,2.5,5,0.6,7.2l-4.7,5.8C73.8,132.4,70.5,132.8,68.2,131.1z M78.4,138.7
	c-2.3-1.7-2.6-4.9-0.6-7.2l4.7-5.7c1.9-2.3,5.3-2.8,7.6-1.1c2.3,1.7,2.5,4.9,0.6,7.2l-4.7,5.7C84.1,140,80.7,140.4,78.4,138.7z
	 M100.9,139.6l-4.7,5.7c-1.9,2.3-5.3,2.8-7.6,1.1c-2.3-1.7-2.5-4.9-0.6-7.2l4.7-5.8c1.9-2.3,5.3-2.8,7.6-1.1
	C102.6,134.1,102.8,137.3,100.9,139.6z M110.7,148.1c-0.9,0.7-2,1.1-3.2,1.1c-1.2,0-2.4-0.5-3.4-1.3l2.7-3.4c1.2-1.4,2.1-3.2,2.5-5
	l1.8,1.6C113.1,143.2,112.9,146.4,110.7,148.1z M140.4,125c-2.2,1.7-5.5,1.3-7.4-0.9l-14.9-12.8c-1.2-1.1-2.8,0.8-1.6,1.9l14.5,12.5
	c1.9,2.2,1.7,5.3-0.5,7c-2.1,1.7-5.5,1.4-7.4-0.9l-11.4-10c-1.2-1.1-2.8,0.8-1.6,1.8l11.2,9.8c1.9,2.2,1.6,5.3-0.6,7
	c-2.1,1.7-5.4,1.4-7.4-0.8l-3.4-3.1l0-1.7c-0.7-6-5.4-10.4-11.1-11c-1.7-4.2-5.6-7.1-10.2-7.6c-1.7-4.1-5.6-7.1-10.2-7.7
	c-3-7.5-12.5-10.2-19.5-5.2c-3.3-1-14.2-3.4-18.7-4.3l6.4-24.6c6-0.3,13-1,22.2-5.4c6.6-3.1,9.8-4.6,15.8-0.1
	c-3.9,3.9-7.9,7.3-12,9.7c-3.7,2.1-5.3,6.4-4.1,10.9c1.4,5.1,6.6,10.3,15,10.3s22.4-7.8,25.1-11.5c11.3,10.7,22.2,20.6,31.7,29.1
	C143.1,120.3,142.6,123.3,140.4,125z M144.4,105.5c-6.4-5.8-20.9-18.9-26.1-24.1c-2.2-2.2-5.3-4.7-9.5-4.7c-3.8,0-6.7,2-8.6,3.6
	c-4.4,3.5-15.5,10.6-19.9,7c8.9-5.8,16.9-14.9,24.5-23.5c1.8-2.1,4.5-1.7,8.4,0.3c16.5,8.6,23,12.8,42.4,10.7l6,22.9
	C157.7,99.3,147.6,103.7,144.4,105.5z"/>
    <linearGradient id="Rectangle_00000078044461416982411350000017547999741017421727_" gradientUnits="userSpaceOnUse" x1="-1370.6329" y1="1031.7742" x2="-1370.5461" y2="1031.8079" gradientTransform="matrix(188 0 0 -188 257718 194007)">
        <stop  offset="0" style="stop-color:#E9FBFF"/>
        <stop  offset="1" style="stop-color:#8DFFC1"/>
    </linearGradient>
    <path id="Rectangle_1353_" style="opacity:0.6044;fill:url(#Rectangle_00000078044461416982411350000017547999741017421727_);enable-background:new    ;" d="
	M58.8,18.3c0.4,0,0.8,0.3,0.8,0.8v22c0,0.4-0.3,0.8-0.8,0.8h-22c-0.4,0-0.8-0.3-0.8-0.8V19c0-0.4,0.3-0.8,0.8-0.8H58.8z M52.6,25.3
	h-9.5v9.5h9.5V25.3z"/>
    <linearGradient id="Rectangle_00000062192792023405410960000007702467624066662279_" gradientUnits="userSpaceOnUse" x1="-1397.0939" y1="1059.0651" x2="-1396.8828" y2="1059.1702" gradientTransform="matrix(102 0 0 -102 142521 108200)">
        <stop  offset="0" style="stop-color:#E9FBFF"/>
        <stop  offset="1" style="stop-color:#CEF4FF"/>
    </linearGradient>
    <path id="Rectangle_1354_" style="opacity:0.6044;fill:url(#Rectangle_00000062192792023405410960000007702467624066662279_);enable-background:new    ;" d="
	M54,145.7c1.3,0,2.4,1.1,2.4,2.4V184c0,1.3-1.1,2.4-2.4,2.4H18.2c-1.3,0-2.4-1.1-2.4-2.4v-35.9c0-1.3,1.1-2.4,2.4-2.4H54z
	 M42.9,159.3H29.3v13.5h13.5V159.3z"/>
    <linearGradient id="Rectangle_00000127005536209505756760000013461510959095647378_" gradientUnits="userSpaceOnUse" x1="-1383.9457" y1="1041.8591" x2="-1383.6564" y2="1041.8204" gradientTransform="matrix(141 0 0 -141 195255 146929)">
        <stop  offset="0" style="stop-color:#FAFEFF"/>
        <stop  offset="1" style="stop-color:#61FFD6"/>
    </linearGradient>
    <rect id="Rectangle_1356_" x="126.2" y="14" style="opacity:0.5328;fill:url(#Rectangle_00000127005536209505756760000013461510959095647378_);enable-background:new    ;" width="32" height="32"/>
    <linearGradient id="Rectangle_00000124883008249994593100000005189955436764358818_" gradientUnits="userSpaceOnUse" x1="-1456.6527" y1="1111.2343" x2="-1456.1455" y2="1111.1663" gradientTransform="matrix(54 0 0 -54 78805 60169)">
        <stop  offset="0" style="stop-color:#FAFEFF"/>
        <stop  offset="1" style="stop-color:#61FFD6"/>
    </linearGradient>
    <rect id="Rectangle_1357_" x="150.8" y="153.7" style="opacity:0.5328;fill:url(#Rectangle_00000124883008249994593100000005189955436764358818_);enable-background:new    ;" width="21.5" height="21.5"/>
</svg>