<svg xmlns="http://www.w3.org/2000/svg" viewBox="0 0 1351.24 371.02">
    <path d="M166.07,106.83V293.1h61.79V106.83Z" transform="translate(-11.48 -14.49)" fill="gold" fill-rule="evenodd"/>
    <path d="M227.92,292.76H104.23V39.32A185.44,185.44,0,0,0,11.48,200c0,102.46,83.07,185.52,185.5,185.52a186.68,186.68,0,0,0,30.94-2.58Z" transform="translate(-11.48 -14.49)" fill="#16697a" fill-rule="evenodd"/>
    <path d="M197,14.49a186.44,186.44,0,0,0-30.92,2.58v90.17H289.75V360.68A185.44,185.44,0,0,0,382.5,200C382.5,97.55,299.44,14.49,197,14.49Z" transform="translate(-11.48 -14.49)" fill="#16697a" fill-rule="evenodd"/>
    <path d="M532.1,162.91,475.5,271.66H449.84L393.7,162.91H437l26,55.78,26.13-55.78Z" transform="translate(-11.48 -14.49)" fill="#16697a"/>
    <path d="M660.66,224.43H579.92q0,24.49,23.54,24.5,12,0,18.41-10.32h37.26q-4.46,14.73-13.12,22.78Q630.3,276,603.94,276q-33.53,0-50.39-20.39-12.66-15.24-12.66-37.15,0-26,15.82-42.31t44.65-16.29q35.5,0,50.74,25.83,8.55,14.56,8.56,33.81Zm-36-21.91q-4.08-18.4-21.8-18.4-9.78,0-15.85,5.86-4.78,4.65-6.06,12.54Z" transform="translate(-11.48 -14.49)" fill="#16697a"/>
    <path d="M764.13,198.3a37.44,37.44,0,0,0-16.36-3.87q-18.93,0-24.54,15.59-2.1,5.63-2.1,15.12v46.52H682.57V162.91h38.56v17.81q6.07-9.5,13.09-13.71,9.46-5.62,22.43-5.62c2,0,4.52.11,7.48.35Z" transform="translate(-11.48 -14.49)" fill="#16697a"/>
    <path d="M863.27,269.32a55.36,55.36,0,0,1-25.07,6q-29.78,0-47.23-20.15a57.67,57.67,0,0,1,0-75.47q17.46-20.16,47.23-20.16a53.47,53.47,0,0,1,25.07,6.1V198.3q-10.17-7.14-19.87-7.15-11.46,0-18.94,7.39T817,217.4q0,11.49,7.47,18.87t18.94,7.38q9.58,0,19.87-7Z" transform="translate(-11.48 -14.49)" fill="#16697a"/>
    <path d="M999.92,271.66H961.36v-55q0-14.5-3.26-19.19-4.77-6.9-14.33-6.9a19.68,19.68,0,0,0-14.67,5.94q-5.36,5.49-5.36,16.91v58.24H885.19v-176h38.55v81q6.68-7.74,12.29-10.9,9.24-5.26,22.82-5.27,17.31,0,28.55,9.61,12.51,10.78,12.52,32.34Z" transform="translate(-11.48 -14.49)" fill="#16697a"/>
    <path d="M1142.06,231.93q0,30.36-28.71,40.32-12,4.1-29.18,4.1-33.87,0-48.63-16.64-9.37-10.54-9.37-27.78v-69h38.55v61.64q0,10.2,4.89,15,5.25,5.16,14.56,5.16t14.45-5.16q4.89-4.8,4.89-15V162.91h38.55Z" transform="translate(-11.48 -14.49)" fill="#16697a"/>
    <path d="M1233.12,194.43H1211.2v77.23h-38.55V194.43H1160V162.91h12.66v-32.7h38.55v32.7h21.92Z" transform="translate(-11.48 -14.49)" fill="#16697a"/>
    <path d="M1362.73,224.43H1282q0,24.49,23.54,24.5,12,0,18.41-10.32h37.26q-4.46,14.73-13.12,22.78Q1332.38,276,1306,276q-33.52,0-50.39-20.39Q1243,240.37,1243,218.46q0-26,15.82-42.31t44.65-16.29q35.5,0,50.74,25.83,8.57,14.56,8.56,33.81Zm-36-21.91q-4.08-18.4-21.8-18.4-9.78,0-15.85,5.86a21.8,21.8,0,0,0-6.06,12.54Z" transform="translate(-11.48 -14.49)" fill="#16697a"/>
</svg>