<svg version="1.1" id="Layer_1" xmlns="http://www.w3.org/2000/svg" xmlns:xlink="http://www.w3.org/1999/xlink" x="0px" y="0px"
	 viewBox="0 0 200 200" style="enable-background:new 0 0 200 200;" xml:space="preserve">
    <style type="text/css">
	.st0{display:none;}
	.st1{display:inline;fill:url(#Oval_00000130627363523826877240000003682997205727132581_);}
	.st2{display:inline;fill:#FFFFFF;}
	
		.st3{display:none;opacity:0.5328;fill:url(#Line-2_00000119826365043577026480000009562117095995165620_);enable-background:new    ;}
	.st4{display:none;opacity:0.4;fill:url(#Line-2_00000128485688463431742520000004070784657411700624_);enable-background:new    ;}
	
		.st5{display:none;opacity:0.4374;fill:url(#Path_00000035516959782821331050000009412277990438024082_);enable-background:new    ;}
	
		.st6{display:none;opacity:0.5328;fill:url(#_x2B__00000150816961837478788890000001058256488134505354_);enable-background:new    ;}
	.st7{display:none;fill:#7BE589;}
	
		.st8{display:none;opacity:0.6044;fill:url(#Rectangle_00000083782708263244056330000001268745431151446699_);enable-background:new    ;}
	
		.st9{display:none;opacity:0.6044;fill:url(#Rectangle_00000139284028634506297020000008645079322243705222_);enable-background:new    ;}
	
		.st10{display:none;opacity:0.5328;fill:url(#Rectangle_00000106864212865686762230000006026884562429710210_);enable-background:new    ;}
	
		.st11{display:none;opacity:0.5328;fill:url(#Rectangle_00000028285176364873664280000001582013679570744712_);enable-background:new    ;}
	.st12{fill:url(#Rectangle_00000139281685378120471180000005359623227793487508_);}
	.st13{fill:url(#Rectangle_00000031926611763393391150000014075314174865030063_);}
	.st14{opacity:0.4;fill:url(#Rectangle_00000003100949418074645110000002540112507555218065_);enable-background:new    ;}
	.st15{opacity:0.4;fill:url(#Rectangle_00000119834824949932371410000009411905441739101589_);enable-background:new    ;}
	.st16{fill:url(#Rectangle_00000164503405386769536590000000871712064781435780_);}
	.st17{fill:url(#Oval_00000077302274623544435720000009763414328825020092_);}
	.st18{fill:url(#Oval_00000039817486740332831030000015055141994201362068_);}
	.st19{fill:url(#Rectangle_00000031203548386202858140000009925909764763393443_);}
	.st20{fill:url(#Oval_00000070080796835510947140000015199981150825543842_);}
	.st21{fill:url(#Oval_00000181788196581393405510000012629633261528189106_);}
	.st22{fill:url(#Rectangle_00000131358137681568190620000002661151554489139870_);}
	.st23{fill:url(#Oval_00000031197382393035874250000004799714919257387184_);}
	.st24{fill:url(#Oval_00000181767641718666375160000013598292459250633892_);}
	.st25{fill:url(#Rectangle_00000155111659633479283080000006483164736794463883_);}
	.st26{fill:url(#Oval_00000031186881299997628190000007453420460358117795_);}
	.st27{fill:url(#Oval_00000150823415830331506820000013572140034581276822_);}
	.st28{fill:url(#Rectangle_00000121248843638700996440000002140409722457446544_);}
</style>
    <g id="ElementIcon72" transform="translate(2496.000000, 2739.000000)" class="st0">
        <linearGradient id="Oval_00000008830241327045873760000013792110672004578221_" gradientUnits="userSpaceOnUse" x1="-3840.1155" y1="-1656.0819" x2="-3838.6284" y2="-1657.7611" gradientTransform="matrix(62.3295 0 0 -62.3295 236893.625 -105932.6719)">
            <stop  offset="0" style="stop-color:#0F9091"/>
            <stop  offset="1" style="stop-color:#91F688"/>
        </linearGradient>
        <circle id="Oval_267_" style="display:inline;fill:url(#Oval_00000008830241327045873760000013792110672004578221_);" cx="-2396.3" cy="-2639.3" r="31.2"/>
        <path id="Shape_7_" class="st2" d="M-2394.9-2657.1v2.9c2.1,0.2,3.7,1,4.9,2.1c1.2,1.2,2,2.7,2.3,4.7l-4.9,0.6
		c-0.3-1.5-1.1-2.6-2.3-3.1v7.6c3.1,0.8,5.2,1.9,6.4,3.3c1.1,1.3,1.7,3.1,1.7,5.2c0,2.3-0.7,4.3-2.1,5.9c-1.4,1.6-3.4,2.6-5.9,3v3.6
		h-2.8v-3.5c-2.2-0.3-4.1-1.1-5.5-2.5c-1.4-1.4-2.3-3.4-2.7-5.9l5.1-0.5c0.2,1,0.6,1.9,1.2,2.7s1.2,1.3,1.9,1.6v-8.2
		c-2.5-0.7-4.4-1.8-5.6-3.3c-1.2-1.5-1.8-3.3-1.8-5.4c0-2.1,0.7-3.9,2-5.4c1.3-1.4,3.1-2.3,5.4-2.5v-2.9H-2394.9z M-2394.9-2636.8
		v7.6c1-0.2,1.8-0.6,2.4-1.4c0.6-0.7,0.9-1.6,0.9-2.5c0-0.9-0.3-1.6-0.8-2.2c-0.5-0.6-1.2-1.1-2.3-1.4L-2394.9-2636.8z
		 M-2397.7-2649.9c-0.8,0.3-1.4,0.7-1.8,1.3s-0.7,1.3-0.7,2.1c0,0.7,0.2,1.3,0.6,1.9c0.4,0.6,1,1.1,1.9,1.4V-2649.9z"/>
    </g>
    <linearGradient id="Line-2_00000050647199770390065660000013414261925348860563_" gradientUnits="userSpaceOnUse" x1="-1393.2999" y1="1008.342" x2="-1392.6816" y2="1008.569" gradientTransform="matrix(105.8803 88.8441 107.733 -128.3911 38859.957 253266.2969)">
        <stop  offset="0" style="stop-color:#FAFEFF"/>
        <stop  offset="1" style="stop-color:#61FFD6"/>
    </linearGradient>
    <path id="Line-2_4_" style="display:none;opacity:0.5328;fill:url(#Line-2_00000050647199770390065660000013414261925348860563_);enable-background:new    ;" d="
	M69,15l-2.3,42.7c0,0.5-0.5,0.9-1,0.9c-0.2,0-0.4-0.1-0.6-0.2L51.4,46.9l0,0l-17.6,21c-0.3,0.4-0.9,0.5-1.4,0.1c0,0,0,0,0,0L22,59.3
	c-0.4-0.3-0.5-0.9-0.1-1.4l17.6-21l0,0L25.8,25.4c-0.4-0.3-0.5-0.9-0.1-1.4c0.1-0.2,0.3-0.3,0.5-0.3L67.8,14c0.5-0.1,1,0.2,1.2,0.7
	C69,14.8,69,14.9,69,15z"/>
    <linearGradient id="Line-2_00000021088301859211879590000005510627617076473999_" gradientUnits="userSpaceOnUse" x1="-1485.7407" y1="1020.8756" x2="-1485.4364" y2="1020.7227" gradientTransform="matrix(39.1497 32.8505 41.3114 -49.233 16119.7646 99083.9609)">
        <stop  offset="0" style="stop-color:#FAFEFF"/>
        <stop  offset="1" style="stop-color:#3FD8FF"/>
    </linearGradient>
    <path id="Line-2_5_" style="display:none;opacity:0.4;fill:url(#Line-2_00000021088301859211879590000005510627617076473999_);enable-background:new    ;" d="
	M143,15.2l-1,20.1c0,0.7-0.7,1.3-1.4,1.2c-0.3,0-0.6-0.1-0.8-0.3l-6.1-5.1l0,0l-8.9,10.6c-0.5,0.6-1.3,0.6-1.9,0.2c0,0,0,0,0,0
	l-4.4-3.7c-0.6-0.5-0.6-1.3-0.2-1.9l8.9-10.6l0,0l-6.1-5.1c-0.6-0.5-0.6-1.3-0.2-1.9c0.2-0.2,0.4-0.4,0.7-0.4l19.6-4.5
	c0.7-0.2,1.4,0.3,1.6,1C143,14.9,143,15.1,143,15.2z"/>
    <linearGradient id="Path_00000003799331560132998360000014250560213817282205_" gradientUnits="userSpaceOnUse" x1="-1374.3781" y1="1049.8042" x2="-1374.1428" y2="1049.8812" gradientTransform="matrix(143.0036 0 0 -116.0036 196671.7812 121946.4922)">
        <stop  offset="0" style="stop-color:#739DFF"/>
        <stop  offset="1" style="stop-color:#65DEFF"/>
    </linearGradient>
    <path id="Path_2363_" style="display:none;opacity:0.4374;fill:url(#Path_00000003799331560132998360000014250560213817282205_);enable-background:new    ;" d="
	M181,134.4c2.2-3.2,6.6-4.1,9.9-1.8c3.2,2.2,4,6.5,1.9,9.7l-0.1,0.1l-17.3,25.2c-2.5,3.5-7.4,4.4-11,1.9l-0.1-0.1l-9.9-7.1
	l-10.8,17.1c-2.1,3.3-6.4,4.3-9.7,2.3l-0.1-0.1c-3.3-2.1-4.3-6.4-2.3-9.7l0.1-0.1l14.3-22.7c2.4-3.7,7.3-4.9,11-2.5l0.2,0.1l0.2,0.1
	l10.1,7.2L181,134.4z"/>
    <linearGradient id="_x2B__00000160907155042223898640000004188749959149690528_" gradientUnits="userSpaceOnUse" x1="-1433.7083" y1="1098.9733" x2="-1432.3158" y2="1099.3392" gradientTransform="matrix(58 0 0 -58 83133 63932.8984)">
        <stop  offset="0" style="stop-color:#FAFEFF"/>
        <stop  offset="1" style="stop-color:#61FFD6"/>
    </linearGradient>
    <path id="_x2B__4_" style="display:none;opacity:0.5328;fill:url(#_x2B__00000160907155042223898640000004188749959149690528_);enable-background:new    ;" d="
	M49.5,191.3v-11.9l0,0h11.9c0.9,0,1.6-0.7,1.6-1.6v-5.9c0-0.9-0.7-1.6-1.6-1.6H49.5l0,0v-12c0-0.9-0.7-1.6-1.6-1.6h-6
	c-0.9,0-1.6,0.7-1.6,1.6v12l0,0H28.6c-0.9,0-1.6,0.7-1.6,1.6v5.9c0,0.9,0.7,1.6,1.6,1.6h11.9l0,0v11.9c0,0.9,0.7,1.6,1.6,1.6h6
	C48.8,192.8,49.5,192.1,49.5,191.3z"/>
    <path class="st7" d="M166.2,115.6l26.7-6.8l-14.8-57.9l-27,6.8l1.5,5.8c-13.8,1.8-19.5-1.7-34.2-9.4c-3.8-2-7.4-3.2-10.8-3.2
	c-4.5,0-8.5,2.1-11.5,5.5l-3.8,4.2c-15-11.7-24.4-3.1-34.5,0.6c-2.8,1-6.1,1.4-8.3,1.5l1.3-5.1l-27-6.8L9,108.7l26.7,6.8l1.4-5.3
	c2.4,0.5,11.6,2.2,13.3,2.7c-5,8.1,0.1,18.1,9.2,19.1c1.7,4.2,5.7,7.1,10.3,7.7c1.7,4.2,5.6,7.1,10.2,7.6c2.5,6.2,10,9.7,17.1,6.6
	c2.7,2.7,6.4,4.1,10.4,4.1c5.4,0,10.3-2.6,12.8-7.8c4.4-0.9,8.1-3.8,9.9-7.7c4.2-0.9,7.9-3.6,9.8-7.7c5.8-1.2,10.6-5.9,11.2-12.3
	c0.2-2.4-0.2-4.8-1.2-7c2.2-1.2,11-5,14.5-6.4C164.6,109.3,166.2,115.6,166.2,115.6z M171.5,62l10.3,40.2l-8.9,2.3l-10.5-40.1
	C162.3,64.3,171.5,62,171.5,62z M29.1,104.4l-8.9-2.3L30.4,62l9.1,2.3L29.1,104.4z M58,123.4c-2.3-1.7-2.5-4.9-0.6-7.2l4.7-5.7
	c1.9-2.3,5.3-2.8,7.6-1.1c2.3,1.7,2.5,4.9,0.6,7.2l-4.7,5.7C63.6,124.6,60.2,125.1,58,123.4z M68.2,131.1c-2.3-1.7-2.6-4.9-0.7-7.2
	l4.7-5.8c1.9-2.3,5.3-2.8,7.5-1.1c2.3,1.7,2.5,5,0.6,7.2l-4.7,5.8C73.8,132.4,70.5,132.8,68.2,131.1z M78.4,138.7
	c-2.3-1.7-2.6-4.9-0.6-7.2l4.7-5.7c1.9-2.3,5.3-2.8,7.6-1.1c2.3,1.7,2.5,4.9,0.6,7.2l-4.7,5.7C84.1,140,80.7,140.4,78.4,138.7z
	 M100.9,139.6l-4.7,5.7c-1.9,2.3-5.3,2.8-7.6,1.1c-2.3-1.7-2.5-4.9-0.6-7.2l4.7-5.8c1.9-2.3,5.3-2.8,7.6-1.1
	C102.6,134.1,102.8,137.3,100.9,139.6z M110.7,148.1c-0.9,0.7-2,1.1-3.2,1.1c-1.2,0-2.4-0.5-3.4-1.3l2.7-3.4c1.2-1.4,2.1-3.2,2.5-5
	l1.8,1.6C113.1,143.2,112.9,146.4,110.7,148.1z M140.4,125c-2.2,1.7-5.5,1.3-7.4-0.9l-14.9-12.8c-1.2-1.1-2.8,0.8-1.6,1.9l14.5,12.5
	c1.9,2.2,1.7,5.3-0.5,7c-2.1,1.7-5.5,1.4-7.4-0.9l-11.4-10c-1.2-1.1-2.8,0.8-1.6,1.8l11.2,9.8c1.9,2.2,1.6,5.3-0.6,7
	c-2.1,1.7-5.4,1.4-7.4-0.8l-3.4-3.1l0-1.7c-0.7-6-5.4-10.4-11.1-11c-1.7-4.2-5.6-7.1-10.2-7.6c-1.7-4.1-5.6-7.1-10.2-7.7
	c-3-7.5-12.5-10.2-19.5-5.2c-3.3-1-14.2-3.4-18.7-4.3l6.4-24.6c6-0.3,13-1,22.2-5.4c6.6-3.1,9.8-4.6,15.8-0.1
	c-3.9,3.9-7.9,7.3-12,9.7c-3.7,2.1-5.3,6.4-4.1,10.9c1.4,5.1,6.6,10.3,15,10.3s22.4-7.8,25.1-11.5c11.3,10.7,22.2,20.6,31.7,29.1
	C143.1,120.3,142.6,123.3,140.4,125z M144.4,105.5c-6.4-5.8-20.9-18.9-26.1-24.1c-2.2-2.2-5.3-4.7-9.5-4.7c-3.8,0-6.7,2-8.6,3.6
	c-4.4,3.5-15.5,10.6-19.9,7c8.9-5.8,16.9-14.9,24.5-23.5c1.8-2.1,4.5-1.7,8.4,0.3c16.5,8.6,23,12.8,42.4,10.7l6,22.9
	C157.7,99.3,147.6,103.7,144.4,105.5z"/>
    <linearGradient id="Rectangle_00000103966649251273301060000003400459332674120599_" gradientUnits="userSpaceOnUse" x1="-1370.6329" y1="1031.7742" x2="-1370.5461" y2="1031.8079" gradientTransform="matrix(188 0 0 -188 257718 194007)">
        <stop  offset="0" style="stop-color:#E9FBFF"/>
        <stop  offset="1" style="stop-color:#8DFFC1"/>
    </linearGradient>
    <path id="Rectangle_1353_" style="display:none;opacity:0.6044;fill:url(#Rectangle_00000103966649251273301060000003400459332674120599_);enable-background:new    ;" d="
	M58.8,18.3c0.4,0,0.8,0.3,0.8,0.8v22c0,0.4-0.3,0.8-0.8,0.8h-22c-0.4,0-0.8-0.3-0.8-0.8V19c0-0.4,0.3-0.8,0.8-0.8H58.8z M52.6,25.3
	h-9.5v9.5h9.5V25.3z"/>
    <linearGradient id="Rectangle_00000108284046252646004240000016987548399915552670_" gradientUnits="userSpaceOnUse" x1="-1397.0939" y1="1059.0651" x2="-1396.8828" y2="1059.1702" gradientTransform="matrix(102 0 0 -102 142521 108200)">
        <stop  offset="0" style="stop-color:#E9FBFF"/>
        <stop  offset="1" style="stop-color:#CEF4FF"/>
    </linearGradient>
    <path id="Rectangle_1354_" style="display:none;opacity:0.6044;fill:url(#Rectangle_00000108284046252646004240000016987548399915552670_);enable-background:new    ;" d="
	M54,145.7c1.3,0,2.4,1.1,2.4,2.4V184c0,1.3-1.1,2.4-2.4,2.4H18.2c-1.3,0-2.4-1.1-2.4-2.4v-35.9c0-1.3,1.1-2.4,2.4-2.4H54z
	 M42.9,159.3H29.3v13.5h13.5V159.3z"/>
    <linearGradient id="Rectangle_00000018938052750120472650000016053369960059021741_" gradientUnits="userSpaceOnUse" x1="-1383.9457" y1="1041.8591" x2="-1383.6564" y2="1041.8204" gradientTransform="matrix(141 0 0 -141 195255 146929)">
        <stop  offset="0" style="stop-color:#FAFEFF"/>
        <stop  offset="1" style="stop-color:#61FFD6"/>
    </linearGradient>
    <rect id="Rectangle_1356_" x="126.2" y="14" style="display:none;opacity:0.5328;fill:url(#Rectangle_00000018938052750120472650000016053369960059021741_);enable-background:new    ;" width="32" height="32"/>
    <linearGradient id="Rectangle_00000109747957923737671640000011427592750508209828_" gradientUnits="userSpaceOnUse" x1="-1456.6527" y1="1111.2343" x2="-1456.1455" y2="1111.1663" gradientTransform="matrix(54 0 0 -54 78805 60169)">
        <stop  offset="0" style="stop-color:#FAFEFF"/>
        <stop  offset="1" style="stop-color:#61FFD6"/>
    </linearGradient>
    <rect id="Rectangle_1357_" x="150.8" y="153.7" style="display:none;opacity:0.5328;fill:url(#Rectangle_00000109747957923737671640000011427592750508209828_);enable-background:new    ;" width="21.5" height="21.5"/>
    <linearGradient id="Rectangle_00000158713746238827495260000006984488166674039966_" gradientUnits="userSpaceOnUse" x1="-1366.543" y1="1016.6598" x2="-1366.4642" y2="1016.699" gradientTransform="matrix(253 0 0 -253 345748 257253)">
        <stop  offset="0" style="stop-color:#E9FBFF"/>
        <stop  offset="1" style="stop-color:#CEF4FF"/>
    </linearGradient>
    <path id="Rectangle_1337_" style="fill:url(#Rectangle_00000158713746238827495260000006984488166674039966_);" d="M47.8,10.7
	c0.5,0,0.9,0.4,0.9,0.9v35.8c0,0.5-0.4,0.9-0.9,0.9H12c-0.5,0-0.9-0.4-0.9-0.9V11.6c0-0.5,0.4-0.9,0.9-0.9H47.8z M39.8,19.6H20v19.8
	h19.8V19.6z"/>
    <linearGradient id="Rectangle_00000123408985670245844560000017135814193494730165_" gradientUnits="userSpaceOnUse" x1="-1353.5358" y1="1017.6478" x2="-1353.4766" y2="1017.6583" gradientTransform="matrix(482 0 0 -249 652416.8125 253565)">
        <stop  offset="0" style="stop-color:#E9FFF9"/>
        <stop  offset="1" style="stop-color:#C7FADF"/>
    </linearGradient>
    <path id="Rectangle_1338_" style="fill:url(#Rectangle_00000123408985670245844560000017135814193494730165_);" d="M75.5,149.6
	c0.5,0,0.9,0.4,0.9,0.9v35.2c0,0.5-0.4,0.9-0.9,0.9H5.6c-0.5,0-0.9-0.4-0.9-0.9v-35.2c0-0.5,0.4-0.9,0.9-0.9H75.5z M70.4,155.6H10.7
	v25.1h59.7V155.6z"/>
    <linearGradient id="Rectangle_00000158019343533029925470000000369037715724395185_" gradientUnits="userSpaceOnUse" x1="-1419.4081" y1="1043.99" x2="-1419.2896" y2="1043.9468" gradientTransform="matrix(92 0 0 -92 130704 96074)">
        <stop  offset="0" style="stop-color:#FAFEFF"/>
        <stop  offset="1" style="stop-color:#3FD8FF"/>
    </linearGradient>
    <rect id="Rectangle_1339_" x="119.6" y="23" style="opacity:0.4;fill:url(#Rectangle_00000158019343533029925470000000369037715724395185_);enable-background:new    ;" width="13.7" height="13.7"/>
    <linearGradient id="Rectangle_00000113331121825706911050000013763815713782194358_" gradientUnits="userSpaceOnUse" x1="-1471.2358" y1="1071.7211" x2="-1471.1173" y2="1071.6779" gradientTransform="matrix(55 0 0 -55 81081 59111)">
        <stop  offset="0" style="stop-color:#FAFEFF"/>
        <stop  offset="1" style="stop-color:#3FD8FF"/>
    </linearGradient>
    <rect id="Rectangle_1340_" x="163.7" y="164" style="opacity:0.4;fill:url(#Rectangle_00000113331121825706911050000013763815713782194358_);enable-background:new    ;" width="8.2" height="8.2"/>
    <linearGradient id="Rectangle_00000154397990052763601510000009780421901920928447_" gradientUnits="userSpaceOnUse" x1="-1388.4155" y1="1027.4744" x2="-1388.3564" y2="1027.5137" gradientTransform="matrix(151 0 0 -151 209823 155183)">
        <stop  offset="0" style="stop-color:#E9FFF9"/>
        <stop  offset="1" style="stop-color:#C7FADF"/>
    </linearGradient>
    <path id="Rectangle_1341_" style="fill:url(#Rectangle_00000154397990052763601510000009780421901920928447_);" d="M189.7,18.4
	c0.5,0,0.9,0.4,0.9,0.9V40c0,0.5-0.4,0.9-0.9,0.9H169c-0.5,0-0.9-0.4-0.9-0.9V19.3c0-0.5,0.4-0.9,0.9-0.9H189.7z M184.6,24.4h-10.6
	v10.6h10.6V24.4z"/>
    <g id="ElementIcon18" transform="translate(2359.000000, 2351.000000)">
        <linearGradient id="Oval_00000046304041820324422450000007765953090826119598_" gradientUnits="userSpaceOnUse" x1="-3700.6841" y1="-1251.0433" x2="-3700.3843" y2="-1252.2863" gradientTransform="matrix(46.1499 0 0 -47.1755 168522.4219 -61290.8984)">
            <stop  offset="0" style="stop-color:#FAFEFF"/>
            <stop  offset="1" style="stop-color:#16697A"/>
        </linearGradient>
        <ellipse id="Oval_218_" style="fill:url(#Oval_00000046304041820324422450000007765953090826119598_);" cx="-2258.8" cy="-2250.9" rx="23.1" ry="23.6"/>
        <g id="Group-70_2_" transform="translate(16.000000, 14.000000)">
            <linearGradient id="Oval_00000172427254394817206810000001406400318478611344_" gradientUnits="userSpaceOnUse" x1="-2279.1223" y1="-2269.9734" x2="-2270.0413" y2="-2269.9734">
                <stop  offset="0" style="stop-color:#FAFEFF"/>
                <stop  offset="1" style="stop-color:#16697A"/>
            </linearGradient>
            <circle id="Oval_219_" style="fill:url(#Oval_00000172427254394817206810000001406400318478611344_);" cx="-2274.6" cy="-2270" r="4.5"/>
            <linearGradient id="Rectangle_00000091698118513055234780000004134845915397912242_" gradientUnits="userSpaceOnUse" x1="-2281.8972" y1="-2260.3635" x2="-2267.2664" y2="-2260.3635">
                <stop  offset="0" style="stop-color:#FAFEFF"/>
                <stop  offset="1" style="stop-color:#16697A"/>
            </linearGradient>
            <path id="Rectangle_271_" style="fill:url(#Rectangle_00000091698118513055234780000004134845915397912242_);" d="M-2278.1-2264.1
			h7.1c2.1,0,3.8,1.7,3.8,3.8v2.8c0,0.6-0.5,1-1,1h-12.6c-0.6,0-1-0.5-1-1v-2.8C-2281.9-2262.5-2280.2-2264.1-2278.1-2264.1z"/>
        </g>
    </g>
    <g id="ElementIcon18_00000021082712015296749730000003752766336927200917_" transform="translate(2359.000000, 2351.000000)">
        <linearGradient id="Oval_00000034059981150289166340000005270345188449910173_" gradientUnits="userSpaceOnUse" x1="-3702.1492" y1="-1251.0226" x2="-3701.9094" y2="-1252.0162" gradientTransform="matrix(46.1499 0 0 -47.1755 168522.4219 -61290.8984)">
            <stop  offset="0" style="stop-color:#FAFEFF"/>
            <stop  offset="1" style="stop-color:#16697A"/>
        </linearGradient>
        <ellipse id="Oval_00000087406969546045970960000001229394495228141497_" style="fill:url(#Oval_00000034059981150289166340000005270345188449910173_);" cx="-2327.4" cy="-2256.2" rx="18.4" ry="18.9"/>
        <g id="Group-70_00000122699442545549454350000010047164040910847678_" transform="translate(16.000000, 14.000000)">
            <linearGradient id="Oval_00000016759414649210781260000018435299852543657149_" gradientUnits="userSpaceOnUse" x1="-2346.8865" y1="-2274.2322" x2="-2339.626" y2="-2274.2322">
                <stop  offset="0" style="stop-color:#FAFEFF"/>
                <stop  offset="1" style="stop-color:#16697A"/>
            </linearGradient>
            <circle id="Oval_00000019666672129458684360000014625555475923578247_" style="fill:url(#Oval_00000016759414649210781260000018435299852543657149_);" cx="-2343.3" cy="-2274.2" r="3.6"/>
            <linearGradient id="Rectangle_00000143603901718717015580000013628275990887671460_" gradientUnits="userSpaceOnUse" x1="-2349.105" y1="-2266.5491" x2="-2337.4077" y2="-2266.5491">
                <stop  offset="0" style="stop-color:#FAFEFF"/>
                <stop  offset="1" style="stop-color:#16697A"/>
            </linearGradient>
            <path id="Rectangle_00000144327001666150499970000005152461241940012219_" style="fill:url(#Rectangle_00000143603901718717015580000013628275990887671460_);" d="
			M-2346.1-2269.6h5.6c1.7,0,3,1.4,3,3v2.2c0,0.4-0.4,0.8-0.8,0.8h-10.1c-0.4,0-0.8-0.4-0.8-0.8v-2.2
			C-2349.1-2268.2-2347.8-2269.6-2346.1-2269.6z"/>
        </g>
    </g>
    <g id="ElementIcon18_00000165229075783010376920000011837479505041231745_" transform="translate(2359.000000, 2351.000000)">
        <linearGradient id="Oval_00000001636710721100560640000017091165557315328131_" gradientUnits="userSpaceOnUse" x1="-3699.364" y1="-1250.782" x2="-3699.2153" y2="-1251.3986" gradientTransform="matrix(46.1499 0 0 -47.1755 168522.4219 -61290.8984)">
            <stop  offset="0" style="stop-color:#FAFEFF"/>
            <stop  offset="1" style="stop-color:#16697A"/>
        </linearGradient>
        <ellipse id="Oval_00000038408393414171813160000017470786728787726757_" style="fill:url(#Oval_00000001636710721100560640000017091165557315328131_);" cx="-2200.4" cy="-2274" rx="11.4" ry="11.7"/>
        <g id="Group-70_00000113330322218903615230000018160287966259852459_" transform="translate(16.000000, 14.000000)">
            <linearGradient id="Oval_00000046318113566646759490000008506267769008875159_" gradientUnits="userSpaceOnUse" x1="-2218.582" y1="-2290.5457" x2="-2214.0764" y2="-2290.5457">
                <stop  offset="0" style="stop-color:#FAFEFF"/>
                <stop  offset="1" style="stop-color:#16697A"/>
            </linearGradient>
            <circle id="Oval_00000084496723445909157650000001731287249204048032_" style="fill:url(#Oval_00000046318113566646759490000008506267769008875159_);" cx="-2216.3" cy="-2290.5" r="2.3"/>
            <linearGradient id="Rectangle_00000036932756204676119290000013035469035197796235_" gradientUnits="userSpaceOnUse" x1="-2219.9587" y1="-2285.7776" x2="-2212.6997" y2="-2285.7776">
                <stop  offset="0" style="stop-color:#FAFEFF"/>
                <stop  offset="1" style="stop-color:#16697A"/>
            </linearGradient>
            <path id="Rectangle_00000181071380280610746200000018422767035247435401_" style="fill:url(#Rectangle_00000036932756204676119290000013035469035197796235_);" d="
			M-2218.1-2287.7h3.5c1,0,1.9,0.8,1.9,1.9v1.4c0,0.3-0.2,0.5-0.5,0.5h-6.3c-0.3,0-0.5-0.2-0.5-0.5v-1.4
			C-2220-2286.8-2219.1-2287.7-2218.1-2287.7z"/>
        </g>
    </g>
    <g id="ElementIcon18_00000021810131379831411270000005779851142034993044_" transform="translate(2359.000000, 2351.000000)">
        <linearGradient id="Oval_00000062164200943620530150000009945797954730187451_" gradientUnits="userSpaceOnUse" x1="-3699.6453" y1="-1252.0422" x2="-3699.3794" y2="-1253.1436" gradientTransform="matrix(46.1499 0 0 -47.1755 168522.4219 -61290.8984)">
            <stop  offset="0" style="stop-color:#FAFEFF"/>
            <stop  offset="1" style="stop-color:#16697A"/>
        </linearGradient>
        <ellipse id="Oval_00000030474577854390952910000015496429880043864759_" style="fill:url(#Oval_00000062164200943620530150000009945797954730187451_);" cx="-2211.4" cy="-2206.2" rx="20.4" ry="20.9"/>
        <g id="Group-70_00000046328461788475450290000015560780812324903320_" transform="translate(16.000000, 14.000000)">
            <linearGradient id="Oval_00000133517521694402643830000010361292738738826126_" gradientUnits="userSpaceOnUse" x1="-2231.2593" y1="-2224.7141" x2="-2223.2117" y2="-2224.7141">
                <stop  offset="0" style="stop-color:#FAFEFF"/>
                <stop  offset="1" style="stop-color:#16697A"/>
            </linearGradient>
            <circle id="Oval_00000034064802815461143650000002347676868823889283_" style="fill:url(#Oval_00000133517521694402643830000010361292738738826126_);" cx="-2227.2" cy="-2224.7" r="4"/>
            <linearGradient id="Rectangle_00000099627694746298845000000015440121734319753353_" gradientUnits="userSpaceOnUse" x1="-2233.7183" y1="-2216.198" x2="-2220.7527" y2="-2216.198">
                <stop  offset="0" style="stop-color:#FAFEFF"/>
                <stop  offset="1" style="stop-color:#16697A"/>
            </linearGradient>
            <path id="Rectangle_00000172419141650187582460000003425040853200855948_" style="fill:url(#Rectangle_00000099627694746298845000000015440121734319753353_);" d="
			M-2230.4-2219.6h6.3c1.9,0,3.4,1.5,3.4,3.4v2.5c0,0.5-0.4,0.9-0.9,0.9h-11.2c-0.5,0-0.9-0.4-0.9-0.9v-2.5
			C-2233.7-2218.1-2232.2-2219.6-2230.4-2219.6z"/>
        </g>
    </g>
</svg>