<svg version="1.1" id="Layer_1" xmlns="http://www.w3.org/2000/svg" xmlns:xlink="http://www.w3.org/1999/xlink" x="0px" y="0px"
	 viewBox="0 0 200 200" style="enable-background:new 0 0 200 200;" xml:space="preserve">
    <style type="text/css">
	.st0{fill:url(#Oval_00000151541241800190058860000016145054023528525196_);}
	.st1{fill:#FFFFFF;}
	.st2{opacity:0.5328;fill:url(#Line-2_00000063608640903417436090000001513533051061100223_);enable-background:new    ;}
	.st3{opacity:0.4;fill:url(#Line-2_00000029746306068038549380000005917576366637974703_);enable-background:new    ;}
	.st4{opacity:0.4374;fill:url(#Path_00000136379633595966608030000018082461407455973767_);enable-background:new    ;}
	.st5{opacity:0.5328;fill:url(#_x2B__00000065784079090478363660000007312928111448575634_);enable-background:new    ;}
</style>
    <g id="ElementIcon72" transform="translate(2496.000000, 2739.000000)">
        <linearGradient id="Oval_00000099624002664192874880000015056565869736699285_" gradientUnits="userSpaceOnUse" x1="-3840.1155" y1="-1656.0819" x2="-3838.6284" y2="-1657.7611" gradientTransform="matrix(62.3295 0 0 -62.3295 236893.625 -105932.6719)">
            <stop  offset="0" style="stop-color:#0F9091"/>
            <stop  offset="1" style="stop-color:#16697a"/>
        </linearGradient>
        <circle id="Oval_267_" style="fill:url(#Oval_00000099624002664192874880000015056565869736699285_);" cx="-2396.3" cy="-2639.3" r="31.2"/>
        <path id="Shape_7_" class="st1" d="M-2394.9-2657.1v2.9c2.1,0.2,3.7,1,4.9,2.1c1.2,1.2,2,2.7,2.3,4.7l-4.9,0.6
		c-0.3-1.5-1.1-2.6-2.3-3.1v7.6c3.1,0.8,5.2,1.9,6.4,3.3c1.1,1.3,1.7,3.1,1.7,5.2c0,2.3-0.7,4.3-2.1,5.9c-1.4,1.6-3.4,2.6-5.9,3v3.6
		h-2.8v-3.5c-2.2-0.3-4.1-1.1-5.5-2.5c-1.4-1.4-2.3-3.4-2.7-5.9l5.1-0.5c0.2,1,0.6,1.9,1.2,2.7s1.2,1.3,1.9,1.6v-8.2
		c-2.5-0.7-4.4-1.8-5.6-3.3c-1.2-1.5-1.8-3.3-1.8-5.4c0-2.1,0.7-3.9,2-5.4c1.3-1.4,3.1-2.3,5.4-2.5v-2.9H-2394.9z M-2394.9-2636.8
		v7.6c1-0.2,1.8-0.6,2.4-1.4c0.6-0.7,0.9-1.6,0.9-2.5c0-0.9-0.3-1.6-0.8-2.2c-0.5-0.6-1.2-1.1-2.3-1.4L-2394.9-2636.8z
		 M-2397.7-2649.9c-0.8,0.3-1.4,0.7-1.8,1.3s-0.7,1.3-0.7,2.1c0,0.7,0.2,1.3,0.6,1.9c0.4,0.6,1,1.1,1.9,1.4V-2649.9z"/>
    </g>
    <linearGradient id="Line-2_00000104673375762718457210000007941721282738395811_" gradientUnits="userSpaceOnUse" x1="-1393.2999" y1="1008.342" x2="-1392.6816" y2="1008.569" gradientTransform="matrix(105.8803 88.8441 107.733 -128.3911 38859.957 253266.2969)">
        <stop  offset="0" style="stop-color:#FAFEFF"/>
        <stop  offset="1" style="stop-color:#61FFD6"/>
    </linearGradient>
    <path id="Line-2_4_" style="opacity:0.5328;fill:url(#Line-2_00000104673375762718457210000007941721282738395811_);enable-background:new    ;" d="
	M69,15l-2.3,42.7c0,0.5-0.5,0.9-1,0.9c-0.2,0-0.4-0.1-0.6-0.2L51.4,46.9l0,0l-17.6,21c-0.3,0.4-0.9,0.5-1.4,0.1c0,0,0,0,0,0L22,59.3
	c-0.4-0.3-0.5-0.9-0.1-1.4l17.6-21l0,0L25.8,25.4c-0.4-0.3-0.5-0.9-0.1-1.4c0.1-0.2,0.3-0.3,0.5-0.3L67.8,14c0.5-0.1,1,0.2,1.2,0.7
	C69,14.8,69,14.9,69,15z"/>
    <linearGradient id="Line-2_00000182487988844581381090000003660573391961535157_" gradientUnits="userSpaceOnUse" x1="-1485.7407" y1="1020.8756" x2="-1485.4364" y2="1020.7227" gradientTransform="matrix(39.1497 32.8505 41.3114 -49.233 16119.7646 99083.9609)">
        <stop  offset="0" style="stop-color:#FAFEFF"/>
        <stop  offset="1" style="stop-color:#3FD8FF"/>
    </linearGradient>
    <path id="Line-2_5_" style="opacity:0.4;fill:url(#Line-2_00000182487988844581381090000003660573391961535157_);enable-background:new    ;" d="
	M143,15.2l-1,20.1c0,0.7-0.7,1.3-1.4,1.2c-0.3,0-0.6-0.1-0.8-0.3l-6.1-5.1l0,0l-8.9,10.6c-0.5,0.6-1.3,0.6-1.9,0.2c0,0,0,0,0,0
	l-4.4-3.7c-0.6-0.5-0.6-1.3-0.2-1.9l8.9-10.6l0,0l-6.1-5.1c-0.6-0.5-0.6-1.3-0.2-1.9c0.2-0.2,0.4-0.4,0.7-0.4l19.6-4.5
	c0.7-0.2,1.4,0.3,1.6,1C143,14.9,143,15.1,143,15.2z"/>
    <linearGradient id="Path_00000070104761214700652740000015441599294673571215_" gradientUnits="userSpaceOnUse" x1="-1374.3781" y1="1049.8042" x2="-1374.1428" y2="1049.8812" gradientTransform="matrix(143.0036 0 0 -116.0036 196671.7812 121946.4922)">
        <stop  offset="0" style="stop-color:#739DFF"/>
        <stop  offset="1" style="stop-color:#65DEFF"/>
    </linearGradient>
    <path id="Path_2363_" style="opacity:0.4374;fill:url(#Path_00000070104761214700652740000015441599294673571215_);enable-background:new    ;" d="
	M181,134.4c2.2-3.2,6.6-4.1,9.9-1.8c3.2,2.2,4,6.5,1.9,9.7l-0.1,0.1l-17.3,25.2c-2.5,3.5-7.4,4.4-11,1.9l-0.1-0.1l-9.9-7.1
	l-10.8,17.1c-2.1,3.3-6.4,4.3-9.7,2.3l-0.1-0.1c-3.3-2.1-4.3-6.4-2.3-9.7l0.1-0.1l14.3-22.7c2.4-3.7,7.3-4.9,11-2.5l0.2,0.1l0.2,0.1
	l10.1,7.2L181,134.4z"/>
    <linearGradient id="_x2B__00000106107718331102810080000017970547976377120682_" gradientUnits="userSpaceOnUse" x1="-1433.7083" y1="1098.9733" x2="-1432.3158" y2="1099.3392" gradientTransform="matrix(58 0 0 -58 83133 63932.8984)">
        <stop  offset="0" style="stop-color:#FAFEFF"/>
        <stop  offset="1" style="stop-color:#61FFD6"/>
    </linearGradient>
    <path id="_x2B__4_" style="opacity:0.5328;fill:url(#_x2B__00000106107718331102810080000017970547976377120682_);enable-background:new    ;" d="
	M49.5,191.3v-11.9l0,0h11.9c0.9,0,1.6-0.7,1.6-1.6v-5.9c0-0.9-0.7-1.6-1.6-1.6H49.5l0,0v-12c0-0.9-0.7-1.6-1.6-1.6h-6
	c-0.9,0-1.6,0.7-1.6,1.6v12l0,0H28.6c-0.9,0-1.6,0.7-1.6,1.6v5.9c0,0.9,0.7,1.6,1.6,1.6h11.9l0,0v11.9c0,0.9,0.7,1.6,1.6,1.6h6
	C48.8,192.8,49.5,192.1,49.5,191.3z"/>
</svg>